{"glyphs":{"0":{"ha":489,"x_min":42,"x_max":447,"o":"m 244 107 q 144 148 197 107 q 75 264 92 189 q 42 496 42 378 q 138 799 42 678 q 218 838 161 838 q 276 826 250 838 q 301 799 301 814 q 283 775 301 786 l 296 775 q 447 565 447 775 q 391 247 447 388 q 244 107 335 107 m 224 143 q 268 158 243 143 q 349 292 324 214 q 392 481 376 381 q 404 613 404 543 q 331 743 404 735 q 261 733 286 740 q 219 696 231 725 q 158 526 172 607 q 139 347 144 446 l 138 321 q 146 244 138 286 q 173 173 154 203 q 224 143 192 143 z "},"1":{"ha":268,"x_min":42,"x_max":226,"o":"m 157 104 q 134 125 144 104 q 117 171 124 146 q 111 211 111 196 q 100 425 100 319 q 117 681 100 551 l 103 672 q 68 657 85 657 q 50 665 58 657 q 42 681 42 672 q 47 690 42 686 q 57 699 51 694 q 167 831 125 753 q 189 851 178 851 q 226 810 226 846 q 186 526 194 669 q 178 238 178 382 l 176 124 q 157 104 167 104 z "},"2":{"ha":475,"x_min":42,"x_max":433,"o":"m 90 111 q 57 126 72 111 q 42 161 42 142 q 60 192 42 178 q 154 313 92 215 q 272 529 217 411 q 326 721 326 647 q 272 786 326 786 l 269 786 q 164 702 190 764 q 132 588 138 640 q 126 551 129 565 q 115 538 122 538 q 101 551 107 538 q 93 581 96 564 q 90 610 90 597 q 117 717 90 664 q 181 807 144 769 q 269 849 229 849 q 362 784 328 849 q 396 649 396 719 q 386 582 396 614 q 337 440 371 507 q 264 307 303 372 l 244 275 l 256 275 q 351 256 303 275 q 428 199 399 238 q 433 186 433 192 q 430 176 433 181 q 421 171 426 171 q 410 175 415 171 q 325 192 367 192 q 217 171 269 192 q 115 121 164 150 q 90 111 103 111 z "},"3":{"ha":417,"x_min":42,"x_max":375,"o":"m 211 61 q 94 102 147 61 q 42 213 42 143 l 42 226 q 51 268 42 242 q 75 315 60 294 q 108 335 90 335 q 119 332 114 335 q 125 325 125 329 q 122 316 125 319 q 118 311 119 313 q 88 196 88 238 q 135 139 88 139 q 231 188 176 139 q 311 313 286 236 q 317 343 317 328 q 292 398 317 375 q 228 426 268 421 q 172 434 194 426 q 140 478 149 442 l 139 490 q 157 522 139 510 q 301 743 265 610 l 303 756 q 263 792 303 792 q 160 743 203 792 q 106 643 118 694 q 103 638 104 640 q 101 632 103 635 q 96 629 100 629 q 71 674 71 646 q 101 756 71 713 q 157 819 131 800 q 250 856 210 856 q 333 807 304 856 q 363 694 363 758 q 281 511 363 583 q 265 490 265 497 q 283 471 265 482 q 351 376 328 432 q 375 260 375 319 q 344 136 375 194 q 285 79 321 97 q 211 61 250 61 z "},"4":{"ha":529,"x_min":42,"x_max":488,"o":"m 367 97 q 346 107 358 97 q 317 177 322 139 q 311 265 311 215 q 310 322 311 299 q 143 281 204 281 q 42 383 42 281 q 113 610 42 479 q 264 826 186 749 q 314 857 290 857 q 342 841 331 857 q 354 807 354 825 q 325 736 354 769 q 257 628 313 710 q 153 469 204 551 q 101 350 101 386 q 122 329 101 331 q 293 385 260 342 q 322 483 322 424 l 322 494 q 333 581 324 533 q 372 682 342 628 q 394 696 383 696 q 426 674 411 696 q 440 633 440 653 q 438 619 440 625 q 407 426 414 524 q 435 437 419 429 q 464 444 450 444 q 478 440 474 444 q 488 424 483 436 q 476 411 488 418 l 471 407 q 415 372 436 393 q 394 315 394 351 q 381 119 394 211 q 367 97 378 97 z "},"5":{"ha":431,"x_min":42,"x_max":389,"o":"m 167 86 q 82 122 121 86 q 53 201 53 160 q 113 335 53 275 q 117 339 114 336 q 124 346 119 342 q 133 350 128 350 q 144 344 139 350 q 150 333 150 339 q 140 315 150 326 q 108 256 125 297 q 92 185 92 215 q 122 144 92 144 q 153 151 135 144 q 270 272 214 175 q 326 449 326 369 q 249 535 326 535 q 213 531 233 535 q 168 504 193 528 q 119 453 143 481 q 84 413 100 429 q 57 396 68 396 q 42 425 44 396 q 69 546 61 483 q 113 701 78 626 q 117 717 117 710 q 106 734 117 725 q 85 765 94 743 q 75 807 75 788 q 93 832 75 829 q 111 828 100 832 q 269 801 188 801 q 367 807 335 801 q 383 799 376 807 q 389 781 389 790 q 375 758 389 767 q 210 701 276 701 l 190 703 q 167 695 175 703 q 153 658 160 688 q 133 567 146 629 q 242 608 194 608 q 350 538 313 608 q 388 379 388 467 q 369 263 388 319 q 314 168 351 207 q 249 110 289 133 q 167 86 210 86 z "},"6":{"ha":415,"x_min":42,"x_max":374,"o":"m 199 118 q 108 165 154 118 q 42 378 42 249 q 110 647 42 515 q 289 835 179 778 q 310 839 299 839 q 339 831 325 839 q 353 810 353 822 q 339 788 353 799 q 219 674 261 750 q 140 513 182 615 q 99 318 99 410 q 163 183 99 222 q 250 226 214 183 q 305 328 286 269 q 324 431 324 386 l 324 436 q 271 482 311 482 q 198 451 235 482 q 154 383 161 419 q 144 365 154 365 q 133 375 135 365 q 128 403 131 385 q 163 497 128 453 q 249 546 199 542 q 317 518 289 546 q 358 450 344 490 q 372 372 372 410 l 374 346 q 349 243 374 296 q 285 154 325 190 q 199 118 244 118 z "},"7":{"ha":410,"x_min":42,"x_max":368,"o":"m 79 114 q 61 122 65 115 q 57 140 57 129 q 64 168 57 154 q 79 195 71 182 q 93 219 88 208 l 124 278 q 226 478 178 376 q 307 690 275 581 q 311 708 308 696 q 317 733 314 719 q 319 757 319 746 q 306 778 319 778 l 301 778 q 76 660 175 744 q 72 654 74 657 q 67 649 69 651 q 60 647 64 647 q 47 656 53 647 q 42 674 42 664 q 81 739 42 703 q 174 801 119 775 q 278 826 229 826 q 368 728 368 826 q 320 498 361 603 q 207 282 279 393 q 167 215 188 260 q 127 146 149 178 q 79 114 106 114 z "},"8":{"ha":447,"x_min":42,"x_max":406,"o":"m 211 118 q 94 169 146 118 q 42 314 42 221 q 69 436 42 378 q 158 519 97 494 q 172 531 172 524 q 168 542 172 535 q 136 656 136 593 q 170 778 136 722 q 269 833 204 833 q 368 788 331 829 q 406 689 406 746 q 306 478 400 563 q 296 463 296 469 q 303 447 296 456 q 361 315 353 390 l 363 290 q 316 162 363 206 q 211 118 269 118 m 271 513 l 285 515 q 350 697 350 596 l 349 719 q 334 767 347 743 q 299 790 321 790 q 274 781 288 790 q 203 658 203 739 q 209 602 203 636 q 231 540 215 568 q 271 513 246 513 m 206 154 q 256 178 236 154 q 284 234 275 201 q 293 292 293 267 l 294 307 q 285 360 294 328 q 261 419 275 393 q 233 446 247 446 l 226 443 q 163 357 192 413 q 135 249 135 301 q 200 154 135 176 l 206 154 z "},"9":{"ha":422,"x_min":42,"x_max":381,"o":"m 150 118 q 125 132 133 118 q 259 292 221 203 q 300 501 297 382 q 240 427 276 454 q 164 400 203 400 q 82 441 122 400 q 42 560 42 482 q 67 681 42 618 q 134 786 92 743 q 231 829 176 829 q 288 815 258 829 l 289 822 l 288 836 q 294 846 288 843 q 338 809 324 839 q 358 749 351 779 l 363 733 q 381 536 381 639 q 363 373 381 453 q 301 228 344 293 q 179 125 257 164 q 150 118 165 118 m 144 446 q 186 465 164 446 q 222 510 208 485 q 296 724 283 608 l 296 729 q 290 739 296 739 l 279 735 q 167 638 213 703 q 117 493 121 574 q 144 446 117 446 z "},"\u0000":{"ha":0,"x_min":0,"x_max":0,"o":""}," ":{"ha":349,"x_min":0,"x_max":0,"o":""},"!":{"ha":214,"x_min":42,"x_max":172,"o":"m 90 192 q 50 234 58 203 q 42 300 42 265 l 42 367 q 58 561 42 464 q 125 743 75 658 q 144 754 135 754 q 165 739 157 754 q 172 708 172 724 q 171 694 172 700 q 113 347 119 524 q 108 296 110 324 l 108 288 q 90 192 108 233 m 72 0 q 53 22 63 0 q 43 75 43 43 q 67 126 43 126 q 92 112 79 126 q 104 75 104 97 q 100 40 104 56 q 72 0 89 0 z "},"\"":{"ha":232,"x_min":42,"x_max":190,"o":"m 74 618 q 53 636 64 618 q 42 679 42 654 q 53 735 42 710 q 76 760 64 760 q 104 700 93 760 q 101 669 104 689 q 91 634 97 650 q 74 618 85 618 m 160 618 q 139 636 150 618 q 128 679 128 654 q 139 735 128 710 q 163 760 150 760 q 190 700 179 760 q 187 669 190 689 q 177 634 183 650 q 160 618 171 618 z "},"#":{"ha":508,"x_min":42,"x_max":467,"o":"m 100 157 q 90 164 96 157 q 83 186 83 171 q 88 224 83 203 q 92 260 92 244 q 81 279 92 276 q 70 276 74 278 q 61 274 67 274 q 47 281 53 274 q 42 299 42 289 q 58 319 42 315 q 102 351 90 328 q 117 406 114 375 l 122 419 q 129 442 129 433 q 128 445 129 443 q 126 449 128 447 q 119 450 125 450 q 103 446 113 450 q 85 442 93 442 q 69 460 69 442 q 83 483 69 476 q 113 494 96 490 q 143 505 129 497 q 161 528 157 513 l 175 557 q 211 627 190 592 q 260 663 232 663 q 279 626 279 647 q 263 568 279 600 q 247 529 251 547 q 322 540 299 535 q 356 556 344 544 q 382 596 367 568 l 408 640 q 432 657 421 657 q 446 647 440 657 q 451 622 451 638 q 432 572 451 599 q 424 554 424 561 q 438 547 424 547 l 449 547 q 462 542 457 547 q 467 529 467 536 q 451 515 467 515 l 444 515 q 390 490 406 515 q 365 432 374 464 q 342 376 356 400 l 356 374 l 386 376 q 406 363 401 376 q 392 344 404 349 q 364 339 379 340 q 339 333 349 338 q 313 306 326 333 q 288 249 300 279 q 256 189 264 189 q 242 200 249 189 q 235 221 235 211 l 240 249 q 249 297 249 274 q 236 313 249 311 q 221 308 231 313 q 149 279 167 296 q 118 208 131 263 q 113 189 115 201 q 108 167 111 176 q 100 157 106 157 m 176 365 l 218 372 q 257 378 244 375 q 275 390 269 382 q 286 414 281 397 q 321 496 293 439 q 249 481 272 489 q 216 458 226 474 q 196 413 206 443 l 176 365 z "},"$":{"ha":365,"x_min":42,"x_max":324,"o":"m 164 74 q 149 104 149 86 l 151 138 q 146 157 151 149 q 114 164 135 164 q 77 167 93 164 q 47 188 61 171 q 42 200 42 193 q 53 211 42 211 q 101 204 75 204 q 147 229 147 204 q 145 240 147 235 q 143 254 143 246 l 146 293 q 129 329 146 315 q 54 438 54 368 q 72 503 54 469 q 119 561 89 538 q 153 594 139 576 q 169 642 168 613 q 176 684 169 671 q 192 697 183 697 q 210 683 201 697 q 218 644 218 668 l 217 626 q 246 638 231 631 q 286 650 267 650 q 305 641 296 650 q 314 622 314 632 q 299 597 314 607 q 265 578 285 588 q 227 558 244 569 q 203 528 210 546 l 188 379 q 201 358 188 365 q 236 344 215 350 q 294 320 267 338 q 324 260 321 303 q 189 171 324 193 q 165 129 165 164 l 167 96 q 164 74 167 83 m 146 379 l 146 499 q 109 460 125 482 q 93 419 93 439 q 146 379 93 386 m 176 222 q 281 276 281 256 q 196 311 281 294 l 194 311 q 183 300 185 311 q 182 267 182 289 q 176 222 182 238 z "},"%":{"ha":488,"x_min":42,"x_max":446,"o":"m 75 64 q 62 69 69 64 q 54 81 54 75 q 61 99 54 89 l 64 106 q 108 213 64 125 q 213 405 151 301 q 333 587 274 508 q 424 665 392 665 q 446 638 440 665 q 288 393 371 514 q 94 89 185 246 q 91 81 93 86 q 85 69 89 75 q 75 64 82 64 m 278 71 q 221 146 228 71 q 249 244 221 189 q 317 341 278 300 q 390 382 357 382 q 442 279 438 382 l 443 263 q 385 140 443 208 q 278 71 328 71 m 267 115 q 367 191 326 138 q 408 313 408 244 l 408 329 q 320 229 368 294 q 267 115 272 164 m 90 396 q 53 422 65 396 q 42 476 42 447 q 72 577 42 529 q 144 657 103 625 q 193 676 169 676 q 238 658 219 676 q 257 611 257 639 l 256 597 l 257 581 q 213 471 257 514 q 113 401 168 428 q 90 396 100 396 m 88 443 q 184 503 147 454 q 233 614 221 551 q 144 542 182 589 q 88 443 107 494 z "},"&":{"ha":386,"x_min":42,"x_max":344,"o":"m 296 164 q 263 193 271 169 q 254 244 256 217 q 250 278 253 264 q 122 197 179 197 q 63 229 85 197 q 42 307 42 261 q 78 422 42 363 q 194 515 114 482 q 118 567 142 535 q 94 633 94 600 q 119 697 94 669 q 183 725 143 725 q 278 686 224 725 q 276 722 278 701 q 275 768 275 743 q 322 864 275 864 q 339 850 333 861 q 344 826 344 839 q 340 808 344 817 q 315 742 321 776 q 310 651 310 708 q 303 631 310 631 q 268 643 293 631 q 267 644 268 644 q 233 654 251 654 q 180 638 206 654 q 154 601 154 622 q 195 552 154 572 q 282 517 236 532 l 313 506 q 332 481 332 496 q 326 467 332 474 q 308 460 319 461 q 222 418 269 450 q 139 342 175 386 q 103 256 103 299 l 104 239 q 132 231 118 231 q 242 301 179 231 q 246 326 246 311 q 258 365 246 349 q 282 382 269 382 q 308 369 296 382 q 324 338 321 357 q 310 270 324 303 q 297 203 297 238 l 301 171 q 296 164 301 167 z "},"'":{"ha":146,"x_min":42,"x_max":104,"o":"m 74 618 q 53 636 64 618 q 42 679 42 654 q 53 735 42 710 q 76 760 64 760 q 104 700 93 760 q 101 669 104 689 q 91 634 97 650 q 74 618 85 618 z "},"(":{"ha":288,"x_min":42,"x_max":246,"o":"m 185 65 q 76 234 110 121 q 42 479 42 347 q 79 760 42 625 q 186 968 117 896 q 208 979 196 979 q 234 968 222 979 q 246 942 246 957 q 242 926 246 935 q 97 393 97 643 q 185 65 97 207 z "},")":{"ha":260,"x_min":42,"x_max":218,"o":"m 83 103 q 71 107 78 103 q 64 117 64 111 q 65 124 64 121 q 68 129 67 128 q 144 469 144 276 q 123 711 142 593 q 50 936 104 829 q 47 942 49 939 q 44 948 46 944 q 42 956 42 951 q 46 964 42 960 q 133 872 94 958 q 194 686 171 786 q 218 538 217 586 q 197 331 214 433 q 124 138 179 229 q 83 103 107 103 z "},"*":{"ha":246,"x_min":42,"x_max":204,"o":"m 128 847 q 116 853 119 849 q 111 863 113 858 q 107 872 110 868 q 92 859 100 871 q 78 847 83 847 q 71 851 74 847 q 68 858 68 854 q 71 869 68 864 q 78 881 74 875 q 85 892 82 886 q 67 894 78 894 q 49 898 56 894 q 42 914 43 901 q 49 925 42 922 q 66 928 56 928 q 85 933 76 929 q 76 942 81 938 q 67 949 71 946 q 64 957 64 953 q 67 965 64 961 q 74 968 71 968 q 87 962 79 968 q 104 956 94 956 l 104 971 q 114 997 104 997 q 130 988 124 997 q 142 978 136 978 q 149 981 144 978 q 158 983 154 983 q 169 978 164 983 q 174 967 174 972 q 169 955 174 960 q 161 943 164 950 l 172 942 q 193 938 183 942 q 204 922 203 935 q 191 916 199 918 q 172 914 183 914 q 151 911 161 914 q 159 895 154 901 q 167 883 164 889 q 169 869 169 878 q 157 875 161 871 q 148 885 153 879 q 135 897 143 892 q 129 872 129 886 l 129 863 q 128 847 129 854 z "},"+":{"ha":347,"x_min":42,"x_max":306,"o":"m 182 340 q 153 367 158 343 q 149 419 149 390 q 145 469 149 449 q 122 489 142 489 q 100 486 111 489 q 76 483 89 483 q 53 490 64 483 q 42 506 42 496 q 56 519 42 519 q 93 524 71 524 q 129 528 115 524 q 144 551 143 532 l 147 575 q 153 625 149 599 q 197 692 164 692 q 229 649 229 683 q 221 597 229 624 q 213 553 213 571 q 233 528 213 532 q 256 526 242 526 q 285 523 271 526 q 306 507 300 519 q 288 496 303 496 l 256 497 q 223 494 233 497 q 209 483 213 492 q 201 451 206 474 q 193 378 194 415 q 193 365 193 369 q 193 356 193 360 q 191 347 193 351 q 182 340 189 342 z "},",":{"ha":199,"x_min":42,"x_max":157,"o":"m 90 3 q 82 8 86 3 q 78 19 78 13 q 101 69 78 33 q 125 119 125 104 q 120 129 122 126 q 111 132 118 132 q 78 117 97 132 q 60 106 68 106 q 47 113 51 106 q 42 132 42 121 q 55 160 42 146 q 100 176 68 175 q 157 119 157 168 q 140 62 157 92 q 101 13 124 32 q 90 3 96 4 z "},"-":{"ha":274,"x_min":42,"x_max":232,"o":"m 64 469 q 42 494 42 469 q 72 534 42 522 q 143 546 101 546 q 201 536 175 546 q 232 503 226 526 q 219 492 229 492 l 201 494 l 196 493 l 186 494 q 124 482 163 494 q 64 469 86 469 z "},".":{"ha":142,"x_min":42,"x_max":100,"o":"m 71 14 q 50 31 58 14 q 42 60 42 47 q 67 101 49 101 q 89 87 78 101 q 100 54 100 72 q 91 27 100 40 q 71 14 82 14 z "},"/":{"ha":476,"x_min":42,"x_max":435,"o":"m 61 142 q 48 150 54 142 q 42 172 42 158 q 183 530 88 361 q 386 857 278 699 q 393 868 390 861 q 410 882 401 882 q 426 872 418 882 q 435 850 435 863 q 406 786 435 829 q 192 418 292 614 q 76 165 131 293 q 61 142 72 142 z "},":":{"ha":157,"x_min":42,"x_max":115,"o":"m 67 319 q 42 368 42 326 q 54 421 42 396 q 82 446 67 446 q 115 389 100 446 q 107 361 115 372 q 88 340 99 350 q 77 328 82 336 q 67 319 72 319 m 79 565 q 61 576 69 565 q 51 610 53 586 q 62 645 53 633 q 82 657 71 657 q 111 610 106 657 q 101 577 111 589 q 79 565 90 565 z "},";":{"ha":172,"x_min":42,"x_max":131,"o":"m 67 283 q 56 290 58 286 q 54 304 54 294 q 71 352 54 325 q 88 401 88 379 q 68 396 76 396 q 49 406 57 396 q 42 426 42 415 q 55 454 42 443 q 82 465 68 465 q 117 443 103 465 q 131 396 131 421 q 122 364 131 378 q 92 314 108 339 q 80 294 86 306 q 67 283 74 283 m 74 547 q 59 555 65 547 q 53 574 53 563 q 72 636 58 607 q 103 665 86 665 q 129 615 118 665 q 92 561 126 586 q 74 547 83 547 z "},"<":{"ha":381,"x_min":42,"x_max":339,"o":"m 314 406 q 222 425 279 406 q 103 450 142 450 q 88 449 94 450 q 76 447 82 447 q 51 461 61 447 q 42 490 42 475 q 53 515 42 506 q 86 542 65 525 q 322 685 271 685 q 339 663 339 685 q 303 605 339 633 q 227 551 267 576 q 167 508 188 526 q 238 476 189 493 q 307 449 275 464 q 339 417 339 433 q 332 407 338 408 q 314 406 326 406 z "},"=":{"ha":311,"x_min":42,"x_max":269,"o":"m 78 438 q 44 451 53 438 q 42 469 42 461 q 178 528 42 528 q 207 525 190 525 q 239 520 224 525 q 257 494 254 515 q 249 477 257 482 q 228 469 242 472 q 185 458 215 467 q 78 438 110 438 m 215 572 l 164 574 l 142 572 l 133 574 l 99 572 q 72 577 81 572 q 64 599 64 582 q 83 628 64 619 q 160 638 121 638 q 247 624 204 638 q 269 597 269 615 l 269 594 q 215 572 258 572 z "},">":{"ha":333,"x_min":42,"x_max":292,"o":"m 50 364 q 42 381 43 364 q 85 442 56 417 q 147 490 114 468 q 218 547 188 517 l 178 561 q 99 594 136 574 q 49 654 61 614 l 49 658 q 64 682 49 682 q 219 607 76 682 q 292 553 292 581 q 263 510 292 532 q 196 468 233 489 q 93 393 133 433 q 50 364 61 364 z "},"?":{"ha":413,"x_min":43,"x_max":371,"o":"m 89 256 q 74 288 74 267 q 76 311 74 299 q 78 333 78 324 l 78 336 q 133 499 92 425 q 232 639 175 572 q 292 735 260 671 q 324 854 324 800 q 250 925 324 924 q 132 828 168 903 q 94 674 96 753 l 96 657 q 86 646 96 647 q 68 682 68 651 l 68 732 q 88 841 68 785 q 147 936 108 897 q 244 975 186 975 l 265 974 q 347 909 322 956 q 371 807 371 863 q 350 694 371 744 q 296 600 329 644 q 225 514 263 556 q 154 428 188 472 q 107 306 115 371 l 99 269 q 98 265 99 268 q 96 259 97 263 q 89 256 94 256 m 83 38 q 55 60 61 43 q 47 99 49 76 l 43 129 q 55 172 44 158 q 79 185 65 185 q 106 171 93 185 q 121 131 118 157 q 106 81 117 104 q 93 44 97 63 q 83 38 90 38 z "},"@":{"ha":642,"x_min":42,"x_max":600,"o":"m 290 190 q 189 212 238 190 q 110 271 140 233 q 42 469 42 354 q 66 613 42 542 q 129 743 90 683 q 232 835 175 806 q 347 864 289 864 q 523 794 446 864 q 600 617 600 725 l 597 581 q 569 484 593 536 q 512 394 546 432 q 443 356 478 356 q 364 456 392 356 q 257 346 303 346 q 213 385 228 346 q 199 476 199 424 q 212 573 199 524 q 253 655 225 622 q 324 688 281 688 q 403 660 358 688 q 440 697 422 697 q 464 665 460 697 q 457 638 464 653 q 414 444 414 531 l 414 431 l 413 422 q 421 400 413 408 q 440 392 429 392 q 469 408 454 392 q 563 621 563 514 q 510 756 563 703 q 383 810 458 810 q 278 780 333 810 q 172 685 224 750 q 107 569 128 632 q 86 447 86 507 q 132 290 86 357 q 265 222 178 222 q 415 269 329 222 q 432 278 425 278 q 446 265 446 278 q 433 249 446 258 q 290 190 379 190 m 250 383 q 300 431 268 383 q 358 533 332 478 q 385 611 385 589 q 382 619 385 617 q 286 544 317 606 q 240 421 256 482 l 238 411 q 250 383 239 383 z "},"A":{"ha":632,"x_min":42,"x_max":590,"o":"m 481 6 q 397 126 415 33 q 379 294 379 218 q 378 312 378 304 q 376 325 378 319 q 364 331 375 331 l 350 329 q 295 335 329 329 q 229 340 261 340 q 168 306 171 340 q 124 29 147 157 q 122 14 124 21 q 110 7 119 7 q 99 42 99 7 q 108 124 99 74 q 125 224 117 175 q 142 325 142 301 q 89 293 117 321 q 63 275 74 275 q 48 284 54 275 q 42 300 42 293 q 54 328 42 314 q 115 364 83 357 q 139 372 128 367 q 154 390 150 376 q 218 677 178 535 q 339 943 258 819 q 406 976 371 976 q 475 938 443 976 q 514 750 514 865 q 501 575 514 664 q 488 393 488 486 q 568 458 526 417 q 578 467 571 467 q 586 463 582 467 q 590 454 590 458 q 586 442 590 447 q 556 397 575 413 q 520 373 538 382 q 493 356 503 364 q 482 333 483 347 l 478 247 q 472 150 472 199 q 492 22 472 85 l 493 15 q 481 6 493 6 m 363 365 q 379 378 379 365 l 379 382 q 397 697 382 540 q 411 890 411 854 q 393 939 411 939 q 356 916 376 939 q 319 858 336 893 q 235 634 265 750 q 185 400 204 518 q 183 393 185 397 q 182 385 182 389 q 363 365 182 374 z "},"B":{"ha":793,"x_min":42,"x_max":751,"o":"m 344 -32 q 132 49 222 -32 q 42 232 42 129 q 149 421 42 339 q 181 458 172 439 q 190 504 190 476 l 189 543 q 211 803 189 667 q 290 976 239 976 q 322 928 322 967 q 317 885 322 907 q 313 849 313 864 q 306 721 306 785 l 306 649 q 406 860 354 781 q 508 975 458 940 q 596 1010 557 1010 q 663 977 638 1010 q 688 893 688 944 q 658 778 688 842 q 563 650 629 715 q 706 532 661 608 q 751 368 751 456 q 652 103 751 226 q 393 -28 553 -21 q 344 -32 368 -32 m 338 43 q 513 105 433 43 q 641 256 593 167 q 689 426 689 344 q 642 552 689 500 q 488 604 594 604 q 442 601 464 604 q 424 611 431 601 q 417 632 417 621 q 450 679 417 651 q 567 788 524 742 q 636 908 615 840 l 638 922 q 601 964 638 964 q 535 940 572 964 q 482 892 499 917 q 344 642 389 782 q 332 606 342 631 q 312 548 322 581 q 301 493 301 515 q 315 468 301 472 q 457 328 435 449 q 459 323 457 326 q 461 314 461 319 q 456 307 461 307 q 446 316 450 307 q 438 338 442 325 q 429 357 433 350 q 390 404 424 382 q 326 426 356 426 q 294 400 300 426 q 293 376 293 393 q 292 340 293 360 q 288 305 292 319 q 274 290 283 290 q 240 339 256 290 q 228 370 235 357 q 213 383 222 383 q 204 381 208 383 q 126 292 151 339 q 101 203 101 246 q 156 90 101 138 q 314 43 211 43 l 338 43 z "},"C":{"ha":728,"x_min":42,"x_max":697,"o":"m 325 -1 q 124 100 207 -1 q 42 343 42 201 l 43 376 q 70 585 43 476 q 144 788 97 694 q 253 941 192 882 q 383 1000 314 1000 q 514 933 458 1000 q 569 779 569 867 q 540 663 569 721 q 521 642 533 642 q 510 647 515 642 q 506 661 506 653 q 510 676 506 668 q 528 774 528 722 q 502 887 528 835 q 425 939 476 939 q 347 908 392 939 q 200 639 243 804 q 157 319 157 474 q 163 207 157 260 q 228 81 179 121 q 338 40 276 40 q 452 71 394 40 q 557 158 510 101 q 682 413 649 271 q 688 421 683 421 q 694 418 692 421 q 697 411 697 415 l 696 407 q 514 74 660 210 q 325 -1 415 -1 z "},"D":{"ha":686,"x_min":42,"x_max":672,"o":"m 215 -1 q 91 38 140 -1 q 42 144 42 78 q 99 294 42 210 q 85 538 85 413 q 158 931 85 768 l 163 938 q 178 964 169 951 q 203 976 188 976 q 234 957 226 971 q 242 921 242 943 q 233 860 242 892 q 224 804 224 829 l 224 800 q 283 888 249 846 q 358 958 317 929 q 446 986 399 986 q 551 942 496 986 q 672 604 672 825 q 600 257 672 418 q 436 72 554 144 q 215 -1 318 -1 m 215 51 q 282 63 244 51 q 423 178 369 92 q 499 382 476 265 q 522 611 522 499 q 496 842 522 744 q 426 940 469 940 q 354 901 396 940 q 210 644 250 786 q 161 354 169 501 q 287 427 222 406 q 393 449 351 449 q 442 425 442 449 q 171 296 269 422 q 169 286 169 293 q 172 254 169 275 q 175 201 175 226 q 160 157 175 160 q 137 183 153 157 q 115 210 121 210 l 113 208 q 99 161 99 189 q 126 88 99 124 q 215 51 153 51 z "},"E":{"ha":636,"x_min":42,"x_max":607,"o":"m 260 4 q 143 58 186 4 q 82 187 100 111 q 64 329 64 263 l 65 399 q 58 440 65 417 l 51 439 q 42 457 42 439 q 50 490 42 472 q 75 507 58 507 q 131 674 111 589 q 214 890 154 785 q 167 878 192 890 q 126 865 143 865 q 111 872 117 865 q 106 888 106 879 q 133 922 106 910 q 347 974 236 974 q 511 939 431 974 q 521 922 521 932 q 516 908 521 914 q 504 901 511 901 q 394 911 464 911 q 319 894 333 911 q 261 724 292 808 l 228 625 q 218 592 226 614 q 201 532 201 546 q 215 515 201 517 q 313 514 278 515 q 400 488 400 510 q 367 469 397 472 q 315 467 344 467 l 296 467 q 217 463 251 467 q 182 436 182 458 q 161 222 161 311 q 178 106 161 156 q 243 57 194 57 q 361 110 286 57 q 517 271 449 179 q 592 353 578 353 q 603 345 599 353 q 607 328 607 338 q 599 306 607 315 q 499 161 533 208 q 388 49 447 94 q 260 4 329 4 z "},"F":{"ha":433,"x_min":42,"x_max":613,"o":"m 218 -1 l 207 1 q 164 69 175 28 q 149 154 153 111 q 142 201 146 179 q 132 358 132 281 q 139 482 132 413 q 133 492 139 492 q 115 488 126 492 q 90 480 103 483 q 65 476 78 476 q 42 494 44 476 q 47 503 42 500 l 57 507 q 92 520 72 515 q 126 533 111 525 q 147 557 142 540 q 231 893 158 728 q 149 864 208 890 q 65 836 83 836 q 57 839 58 836 q 129 906 63 876 q 280 954 196 936 q 411 972 364 972 l 456 969 q 613 918 596 965 q 607 914 610 914 q 597 917 603 914 q 588 922 592 921 q 475 935 543 935 q 336 906 368 935 q 238 567 267 743 l 238 561 q 244 553 238 553 q 308 558 281 558 q 468 526 390 558 q 482 510 482 518 q 472 500 482 501 q 460 504 467 500 q 321 517 367 517 q 225 489 240 517 q 207 286 207 386 q 213 168 207 229 q 226 14 219 63 q 218 -1 226 -1 z "},"G":{"ha":633,"x_min":42,"x_max":568,"o":"m 272 -199 q 214 -168 232 -199 q 196 -97 196 -137 q 266 47 196 -14 q 424 108 336 108 l 436 108 q 464 194 464 108 q 460 286 464 240 q 457 335 457 318 l 457 342 q 250 188 361 188 q 103 278 164 188 q 42 500 42 368 q 62 642 42 568 q 127 791 82 717 q 250 919 172 865 q 399 974 328 974 q 486 934 446 974 q 526 815 526 894 q 475 678 526 744 q 358 613 424 613 q 286 640 322 613 q 346 626 318 626 q 424 656 392 626 q 472 731 456 686 q 489 819 489 775 q 469 898 489 864 q 410 932 450 932 q 357 918 388 932 q 213 704 258 838 q 168 440 168 571 q 175 338 168 386 q 268 228 206 228 q 372 290 321 228 q 449 421 424 353 q 457 511 457 463 q 466 597 457 560 q 514 635 475 635 q 542 608 542 635 l 542 601 l 547 557 q 568 301 568 406 q 511 8 568 125 q 428 -128 482 -69 q 272 -199 368 -192 m 296 -164 q 332 -151 313 -164 q 410 -51 383 -112 q 450 79 440 22 q 440 89 450 89 l 438 89 q 342 66 388 85 q 267 13 296 47 q 238 -76 238 -22 q 296 -164 238 -164 z "},"H":{"ha":639,"x_min":42,"x_max":629,"o":"m 542 -1 q 504 25 517 -1 q 451 188 461 104 q 440 358 440 271 l 440 408 q 418 429 440 422 q 373 440 396 436 q 338 449 350 444 l 326 451 q 317 436 317 451 l 317 392 q 299 231 317 318 q 240 80 281 143 q 133 17 199 17 q 69 61 94 17 q 42 224 42 140 q 124 456 42 367 q 192 511 169 500 q 212 526 206 519 q 218 547 218 532 q 200 797 218 674 q 193 850 200 815 q 182 939 182 899 q 214 993 182 993 q 278 976 257 992 q 315 753 315 951 l 315 661 q 326 492 315 575 l 333 489 q 406 469 379 469 q 443 507 443 469 q 451 601 447 538 q 464 768 454 678 q 564 990 488 990 q 588 986 575 990 q 600 969 600 982 l 583 844 q 549 507 558 685 q 615 603 599 556 q 624 613 618 613 l 628 611 l 629 603 q 600 523 629 572 q 544 454 571 474 q 536 357 536 447 q 540 219 536 296 q 549 86 543 143 q 559 20 554 29 q 564 8 564 11 q 561 2 564 4 q 542 -1 558 0 m 121 56 q 144 69 131 56 q 203 240 183 129 q 222 422 222 351 q 211 479 222 475 l 210 479 q 113 364 142 440 q 85 203 85 288 q 87 143 85 178 q 97 82 89 108 q 121 56 106 56 z "},"I":{"ha":251,"x_min":42,"x_max":265,"o":"m 86 3 q 69 10 76 3 q 61 28 61 18 q 71 44 61 38 q 88 76 88 58 q 83 101 88 88 q 51 415 51 257 q 111 918 51 644 q 85 908 99 915 q 60 900 71 900 q 47 907 51 900 q 42 924 42 914 q 68 956 42 940 q 131 981 94 971 q 199 992 168 992 q 265 958 254 992 q 257 942 264 946 q 239 938 250 939 q 218 931 228 938 q 207 904 208 925 q 153 400 153 675 l 154 331 l 151 211 q 178 93 151 93 l 188 94 q 213 88 199 94 q 238 73 228 82 q 249 56 249 64 q 234 42 249 46 q 206 36 219 38 q 96 6 149 29 q 86 3 90 3 z "},"J":{"ha":586,"x_min":42,"x_max":465,"o":"m 149 -132 q 94 -110 115 -132 q 72 -47 72 -87 q 134 107 72 18 q 311 231 196 196 q 335 257 332 233 q 353 535 353 396 q 317 939 353 739 q 300 958 313 958 q 285 954 293 958 q 156 826 204 906 q 75 660 108 746 q 74 654 75 658 q 72 646 74 650 q 64 642 71 642 l 63 642 q 42 689 42 660 q 77 798 42 736 q 156 911 113 860 q 231 981 200 963 q 304 1000 271 1000 q 401 947 365 1000 q 451 818 436 893 q 465 679 465 743 l 464 592 q 431 257 464 394 q 349 33 399 119 q 244 -92 299 -53 q 149 -132 190 -132 m 151 -101 q 201 -81 174 -101 q 240 -40 228 -61 q 313 149 296 46 q 329 215 319 182 q 178 115 239 186 q 118 -57 118 44 q 151 -101 118 -101 z "},"K":{"ha":483,"x_min":42,"x_max":519,"o":"m 463 -7 q 433 6 447 -7 l 431 7 q 291 180 340 78 q 208 392 242 282 l 183 464 q 143 371 153 419 q 133 271 133 322 l 135 143 q 133 83 133 132 q 93 19 133 22 q 67 47 72 19 q 42 326 42 161 q 44 459 42 393 q 46 590 46 525 l 49 646 q 61 775 51 700 q 142 978 83 961 q 181 949 181 978 l 181 936 q 146 532 157 733 q 179 586 156 546 q 276 742 218 651 q 392 903 333 832 q 489 975 451 975 q 509 966 499 975 q 519 949 519 957 q 516 939 519 943 q 510 931 513 935 q 506 926 507 928 q 447 856 483 897 q 316 690 381 778 q 243 544 251 603 l 265 482 q 358 242 307 361 q 483 19 408 122 q 489 10 489 14 q 484 2 489 6 q 474 -3 479 -1 q 463 -7 468 -6 z "},"L":{"ha":581,"x_min":83,"x_max":539,"o":"m 257 8 q 96 211 115 31 q 89 344 89 278 l 89 367 q 83 488 89 436 q 132 932 83 732 q 148 974 142 963 q 165 986 154 986 q 191 983 174 986 q 222 972 208 979 q 236 951 236 964 q 232 933 236 943 q 190 686 200 814 q 181 424 181 558 q 194 217 181 319 q 206 100 201 158 q 281 43 215 43 q 371 63 324 43 q 446 101 418 82 q 469 116 457 107 q 494 133 482 125 q 519 140 507 140 q 539 133 529 140 q 413 41 490 74 q 257 8 335 8 z "},"M":{"ha":1053,"x_min":64,"x_max":1008,"o":"m 933 1 q 853 46 882 1 q 825 182 825 90 q 836 340 825 251 q 860 518 847 428 q 884 689 874 608 q 894 831 894 769 q 882 921 894 894 q 840 947 869 947 q 688 728 746 947 q 624 315 640 551 q 617 121 617 215 q 597 81 614 93 q 557 68 579 68 q 515 80 533 68 q 494 111 496 92 l 494 122 l 496 158 q 497 221 497 185 q 488 444 497 319 q 457 660 479 568 q 396 765 435 753 q 305 647 360 765 q 211 308 250 529 q 194 125 194 217 q 199 44 194 86 q 164 1 199 7 l 161 3 q 138 19 151 6 q 76 219 96 69 q 64 457 64 318 q 85 871 64 622 q 139 911 104 911 q 203 867 176 911 q 183 649 188 758 q 178 347 178 539 q 189 407 178 356 q 221 530 200 458 q 271 672 242 601 q 336 791 300 743 q 414 839 372 839 q 456 825 435 839 q 540 703 515 778 q 575 554 564 629 l 583 510 q 684 863 617 731 q 871 1000 751 994 q 963 965 933 1000 q 1000 872 992 931 q 1008 743 1008 814 q 999 611 1008 686 q 975 454 989 536 q 951 292 961 372 q 940 146 940 211 q 974 10 940 54 q 933 1 953 1 z "},"N":{"ha":664,"x_min":42,"x_max":624,"o":"m 596 -11 q 473 67 506 -3 q 440 246 440 136 q 471 540 440 356 l 479 589 l 483 621 q 503 810 503 739 q 432 946 503 946 l 413 943 q 278 793 333 925 q 195 479 224 661 q 167 144 167 297 q 174 11 167 69 q 172 -7 174 -3 q 161 -11 171 -11 l 142 -11 q 82 53 104 -11 q 51 217 60 117 q 42 426 42 318 q 53 692 42 569 q 76 856 64 815 q 106 889 85 889 q 145 869 125 889 q 165 825 165 849 l 164 813 q 144 472 144 643 l 144 421 l 160 510 q 219 774 178 643 q 367 979 261 906 q 458 1003 415 1003 q 577 947 532 1003 q 622 799 622 890 l 624 778 q 576 347 624 682 l 574 331 q 560 175 560 242 q 596 10 560 71 q 608 -1 608 7 q 596 -11 608 -10 z "},"O":{"ha":558,"x_min":42,"x_max":528,"o":"m 268 -1 l 265 -1 q 157 56 197 -1 q 99 195 117 113 q 81 353 81 278 q 90 456 81 413 q 42 669 42 563 q 99 882 42 775 q 174 968 122 938 q 282 999 225 999 q 407 947 351 999 q 505 781 482 879 q 528 585 528 682 l 526 533 q 493 318 521 440 q 410 101 465 196 q 268 -1 356 7 m 288 46 q 367 102 332 46 q 428 244 403 158 q 468 426 454 331 q 482 601 482 522 q 478 681 482 646 q 406 879 454 818 q 304 940 357 940 q 186 865 239 940 q 133 665 133 789 q 142 574 133 622 l 149 589 q 180 649 161 619 q 226 679 199 679 q 290 629 253 679 l 292 611 q 263 521 292 578 q 233 436 240 478 q 231 422 231 429 q 256 389 231 400 q 306 378 281 378 q 328 381 318 378 q 421 442 383 397 q 431 449 426 449 q 436 446 436 447 q 436 442 436 444 q 415 406 436 426 q 306 350 358 350 q 256 360 281 350 q 224 368 236 368 q 202 341 206 368 q 199 279 199 314 q 218 133 199 208 q 276 47 238 57 l 288 46 z "},"P":{"ha":593,"x_min":42,"x_max":594,"o":"m 108 -11 q 87 -3 96 -11 q 78 22 78 6 q 53 217 64 94 q 42 476 42 340 q 151 986 42 876 q 190 1000 169 1000 q 234 986 214 1000 q 254 950 254 972 q 244 921 254 936 q 178 733 178 788 l 178 731 q 306 920 243 863 q 421 978 368 978 q 546 887 497 978 q 594 671 594 796 q 569 503 594 589 q 489 340 544 417 q 413 271 463 303 q 317 239 363 239 q 262 260 283 239 q 230 312 240 282 q 219 365 219 342 q 284 513 219 444 q 422 581 349 581 l 440 579 q 461 664 461 579 q 451 765 461 713 q 421 855 442 818 q 368 892 400 892 q 264 803 326 892 q 167 514 190 664 q 143 211 143 364 q 149 25 143 61 q 135 -1 149 8 q 108 -11 122 -11 m 306 279 q 372 326 339 279 q 425 430 404 372 q 446 525 446 488 q 428 558 446 556 l 419 557 q 306 498 367 557 q 246 369 246 439 q 263 309 246 339 q 306 279 281 279 z "},"Q":{"ha":603,"x_min":42,"x_max":588,"o":"m 306 0 l 289 0 q 180 48 226 0 q 103 173 133 96 q 57 341 72 250 q 42 515 42 432 q 47 613 42 567 q 157 887 75 797 q 374 997 239 976 l 397 999 q 484 981 440 999 q 558 930 528 964 q 588 846 588 896 q 580 824 586 832 q 567 817 574 817 q 550 835 556 817 q 516 909 544 883 q 451 935 488 935 q 394 917 422 935 q 241 689 292 856 q 190 358 190 522 q 211 167 190 250 q 307 50 240 50 q 382 113 353 50 l 383 118 q 381 124 383 122 q 378 128 379 126 q 375 131 376 129 q 353 178 364 147 q 342 235 342 208 q 372 281 342 274 q 399 260 394 275 q 403 228 403 244 l 403 219 q 415 164 403 181 q 508 558 508 374 q 404 843 508 736 q 390 858 390 850 q 403 871 390 871 q 417 865 410 871 q 518 735 486 829 q 550 524 550 640 q 526 305 550 414 q 458 115 501 196 l 456 108 q 474 84 456 96 q 515 64 492 72 q 556 56 539 56 q 564 56 561 56 q 569 58 567 57 q 575 60 571 58 q 584 56 581 60 q 588 46 588 51 q 575 33 588 38 q 549 28 563 28 q 467 56 518 28 q 429 71 442 71 q 422 68 425 71 q 361 10 389 21 q 306 0 333 0 z "},"R":{"ha":561,"x_min":42,"x_max":611,"o":"m 499 0 q 402 34 435 0 q 358 119 369 68 q 347 217 347 169 l 349 299 q 338 388 349 349 q 247 447 321 447 q 188 435 221 447 q 161 301 167 367 q 156 171 156 236 l 156 40 q 125 8 156 13 q 74 81 92 8 q 49 253 56 153 q 42 438 42 353 q 63 731 42 593 q 105 919 79 835 q 163 1003 131 1003 q 213 931 186 1003 q 169 544 188 739 q 262 810 210 710 q 370 953 314 910 q 476 996 426 996 q 572 948 533 996 q 611 828 611 900 q 552 653 611 747 q 354 476 493 560 q 451 414 425 460 q 476 310 476 368 q 471 229 476 260 q 463 154 465 199 q 519 35 463 35 l 539 36 q 557 25 554 36 q 499 0 536 0 m 206 483 q 238 490 221 483 q 264 496 256 496 q 382 593 339 532 q 454 725 425 654 l 461 743 q 504 894 504 843 q 457 947 504 947 q 388 919 414 943 q 340 858 361 896 q 189 510 244 694 l 188 499 q 206 483 188 483 z "},"S":{"ha":636,"x_min":42,"x_max":572,"o":"m 300 1 q 184 27 244 1 q 83 99 124 53 q 42 204 42 144 q 92 322 42 271 q 211 372 143 372 q 300 344 254 372 q 315 325 315 338 q 306 315 315 315 q 293 318 300 315 l 290 319 q 211 332 251 332 q 125 296 156 332 q 83 199 83 239 q 131 121 83 147 q 239 94 178 94 q 382 138 315 94 q 430 197 413 160 q 447 275 447 235 q 392 388 447 350 l 333 429 q 254 482 303 454 q 140 587 178 522 q 103 724 103 651 q 178 910 103 825 q 353 994 253 994 q 495 935 433 994 q 557 786 557 876 q 449 619 557 668 l 444 618 q 421 614 433 614 q 408 617 413 614 q 401 629 403 619 q 406 638 401 633 q 414 642 411 642 q 485 694 458 665 q 515 771 511 722 q 478 863 515 821 q 389 904 442 904 l 367 904 q 240 837 299 904 q 181 692 181 769 q 311 531 181 579 q 512 393 451 469 q 572 244 572 317 q 490 74 572 146 q 300 1 408 1 z "},"T":{"ha":394,"x_min":42,"x_max":606,"o":"m 271 7 q 233 53 256 7 q 201 290 201 169 q 278 876 208 597 q 67 776 165 838 q 57 774 61 774 q 45 783 49 774 q 42 801 42 792 q 57 845 42 825 q 93 876 72 865 q 465 996 296 996 q 588 974 529 996 q 606 954 606 965 q 592 943 606 943 q 579 946 586 943 q 547 949 564 949 q 375 913 489 949 q 350 904 363 908 q 338 896 338 900 q 342 890 338 893 q 378 826 378 868 q 349 624 378 804 q 312 387 328 506 q 296 150 296 268 l 299 83 q 292 31 299 56 q 271 7 285 7 z "},"U":{"ha":578,"x_min":42,"x_max":563,"o":"m 197 0 l 194 0 q 101 60 133 0 q 55 217 68 121 q 42 424 42 314 q 52 660 42 544 q 73 851 63 775 q 86 933 83 926 q 125 972 99 960 q 178 983 151 983 q 219 975 201 983 q 236 951 236 967 l 235 944 q 181 635 201 813 q 161 308 161 457 q 174 129 161 200 q 213 58 186 58 q 252 85 231 58 q 300 179 274 111 q 365 438 340 297 q 406 707 389 579 q 454 974 428 899 q 497 1003 471 1003 q 542 984 521 1003 q 563 938 563 965 l 563 929 q 513 603 533 799 q 493 253 493 408 q 515 49 493 103 q 521 26 521 38 q 511 11 521 18 q 443 72 469 15 q 405 206 417 128 q 393 350 393 285 l 393 378 q 352 235 381 322 q 284 76 324 147 q 197 0 244 6 z "},"V":{"ha":533,"x_min":42,"x_max":528,"o":"m 258 6 q 82 211 136 6 q 42 603 42 369 q 51 814 42 739 l 54 826 q 68 889 58 854 q 95 951 78 924 q 142 978 113 978 q 176 966 158 978 q 194 931 194 954 l 190 822 q 183 607 183 717 q 215 210 183 351 q 292 68 246 68 q 416 290 361 81 q 490 924 471 499 l 488 960 q 494 972 488 967 q 508 978 500 978 q 523 967 518 978 q 528 901 528 957 q 520 726 528 836 q 495 493 513 617 q 449 259 478 369 q 379 78 421 149 q 281 7 338 7 l 258 6 z "},"W":{"ha":943,"x_min":42,"x_max":918,"o":"m 225 0 q 83 101 124 3 q 42 368 42 200 q 64 633 42 500 q 116 852 86 765 q 174 943 146 939 l 194 944 q 239 935 228 944 q 250 913 250 926 q 246 884 250 899 q 240 854 242 869 q 191 612 207 753 q 175 342 175 471 q 188 139 175 222 q 226 49 201 56 l 232 47 q 292 119 257 47 q 360 286 326 190 q 415 463 393 382 q 440 571 438 544 q 450 635 447 590 q 463 733 451 686 q 510 786 474 781 q 528 789 519 789 q 567 753 558 789 q 576 668 576 717 l 574 556 q 578 501 574 524 q 626 246 588 399 q 724 61 676 61 q 838 231 797 72 q 878 594 878 389 q 862 791 878 706 q 811 901 846 876 q 806 913 806 907 q 813 924 806 919 q 829 928 821 928 q 843 924 838 928 q 918 608 918 836 q 894 344 918 475 q 839 133 871 213 q 703 17 785 17 q 628 43 665 17 q 511 219 547 110 q 457 431 475 328 q 225 0 347 0 z "},"X":{"ha":578,"x_min":42,"x_max":649,"o":"m 557 17 q 519 35 542 17 q 384 218 435 117 q 299 435 333 319 q 240 331 276 404 q 167 176 203 258 q 115 33 132 93 q 115 29 115 32 q 113 22 114 26 q 106 18 111 18 q 42 121 42 46 q 92 299 47 206 q 165 438 125 369 q 235 585 235 557 q 231 607 235 597 q 156 876 179 739 q 153 910 156 892 q 150 946 150 928 q 161 986 150 969 l 164 986 q 215 921 199 986 q 288 639 242 778 q 364 751 300 665 q 504 920 428 838 q 621 1003 581 1003 q 649 953 647 1003 l 647 926 q 540 786 597 857 q 358 532 438 661 q 356 515 356 525 q 404 357 356 465 q 506 155 453 249 q 579 43 558 61 q 583 36 583 40 q 576 23 583 29 q 557 17 569 17 z "},"Y":{"ha":653,"x_min":42,"x_max":650,"o":"m 271 -154 l 268 -154 q 204 -112 232 -154 q 176 -25 176 -69 q 231 102 176 43 q 365 161 286 161 q 435 147 399 161 q 492 362 475 199 q 510 679 510 525 q 503 856 510 783 q 486 928 497 928 l 485 926 q 407 640 439 808 q 362 451 386 538 q 306 322 338 364 q 276 298 299 307 q 222 289 253 289 q 137 311 178 289 q 69 396 96 333 q 42 582 42 458 q 119 904 42 779 q 163 924 138 924 q 216 905 190 924 q 242 857 242 886 q 238 836 242 847 q 210 731 221 814 q 199 556 199 647 q 212 402 199 469 q 257 335 225 335 q 278 343 267 335 q 315 425 297 356 q 350 590 332 494 q 411 851 376 729 q 521 999 453 999 q 619 913 589 999 q 650 700 650 828 q 602 331 650 529 q 469 -8 554 132 q 271 -154 383 -147 m 256 -108 q 312 -73 281 -108 q 369 6 343 -37 q 404 78 394 50 q 411 100 411 92 q 383 118 411 118 q 304 102 342 118 q 241 53 267 86 q 215 -29 215 21 q 256 -108 224 -108 z "},"Z":{"ha":624,"x_min":42,"x_max":668,"o":"m 78 19 q 53 31 64 19 q 42 60 42 43 q 78 153 42 96 q 263 396 128 233 q 358 519 333 479 l 379 547 q 579 893 579 800 q 565 930 579 921 q 524 939 551 939 q 154 817 342 939 q 140 810 147 810 q 126 818 132 810 q 121 836 121 826 q 126 851 121 844 q 499 1001 260 975 q 525 1004 513 1004 q 628 955 589 1004 q 668 850 668 906 q 663 813 668 831 q 541 569 624 683 q 364 349 458 456 q 183 122 263 236 q 335 131 236 131 q 610 40 610 131 q 601 26 610 26 q 479 47 539 47 l 471 47 q 386 56 428 49 q 290 58 339 58 q 94 24 171 58 q 78 19 86 19 z "},"[":{"ha":251,"x_min":42,"x_max":210,"o":"m 146 69 q 42 232 42 69 q 53 354 42 297 q 67 608 61 481 q 85 911 74 760 l 85 918 q 96 947 85 940 q 125 954 107 954 l 174 951 l 178 951 q 199 941 189 951 q 210 922 210 931 q 196 913 210 914 l 188 913 l 143 910 q 137 910 139 910 q 129 911 135 910 q 124 909 125 911 q 124 900 124 907 l 125 886 q 117 578 119 732 q 99 217 117 433 l 97 179 q 106 128 97 150 q 144 107 114 107 q 157 108 150 107 q 171 110 164 110 q 192 103 182 110 q 201 89 201 97 q 192 78 201 82 q 170 72 183 74 q 146 69 157 69 z "},"\\":{"ha":375,"x_min":42,"x_max":333,"o":"m 324 139 q 292 164 308 139 l 288 169 q 147 472 201 313 q 57 793 93 631 q 50 828 56 808 q 42 883 42 857 q 53 917 42 903 l 56 917 q 96 860 86 917 q 172 554 119 704 q 288 258 225 404 l 329 156 q 331 151 329 154 q 333 146 333 149 q 330 142 333 143 q 324 139 326 140 z "},"]":{"ha":232,"x_min":42,"x_max":190,"o":"m 82 65 l 79 65 q 47 94 51 65 q 58 113 47 107 q 83 125 69 119 q 99 132 92 128 q 135 210 135 144 q 131 277 135 242 q 126 338 126 313 q 128 361 126 351 l 128 442 q 153 876 128 660 l 153 882 q 142 897 153 897 q 100 888 124 897 q 61 879 76 879 q 46 885 49 879 q 42 901 43 890 q 67 932 42 926 q 122 938 93 938 q 158 940 143 938 q 190 888 190 938 l 189 846 l 190 831 q 181 614 182 722 q 179 397 179 506 q 178 367 178 383 q 181 297 178 336 q 185 218 185 258 q 177 142 185 176 q 147 87 169 108 q 82 65 125 65 z "},"_":{"ha":500,"x_min":42,"x_max":458,"o":"m 92 35 l 67 35 q 49 40 54 35 q 42 60 43 44 q 81 95 42 82 q 178 114 119 108 q 294 119 238 119 q 424 110 389 119 q 458 83 458 101 q 451 67 458 75 q 250 46 440 56 q 92 35 169 42 z "},"a":{"ha":447,"x_min":-3,"x_max":471,"o":"m 319 0 l 317 0 q 254 36 281 0 q 219 119 228 72 q 179 47 204 69 q 126 25 154 25 q 28 84 58 33 q -3 208 -3 135 q 22 344 -3 276 q 94 458 47 413 q 201 503 140 503 q 269 488 233 503 q 278 485 275 485 q 285 490 282 485 q 331 521 301 521 q 358 512 346 521 q 369 486 369 503 q 342 369 368 461 q 312 250 325 310 q 299 131 299 190 q 328 28 299 33 q 413 156 361 28 q 436 224 429 199 q 461 260 444 260 q 471 249 471 260 q 439 149 468 228 q 319 0 386 10 m 129 57 q 196 167 157 57 q 219 261 210 208 q 263 444 236 354 l 268 457 q 264 464 268 461 q 171 401 207 454 q 117 275 135 347 q 100 144 100 203 q 107 83 100 108 q 129 57 114 58 z "},"b":{"ha":464,"x_min":0,"x_max":485,"o":"m 188 -151 q 147 -137 167 -151 q 126 -90 126 -122 q 156 -8 126 -58 q 256 94 204 63 q 305 149 300 124 q 310 213 310 175 q 303 292 310 251 q 282 362 297 333 q 240 390 267 390 q 172 349 214 390 q 97 107 97 249 q 103 32 97 61 l 106 10 q 83 -11 106 -11 q 57 -3 71 -11 q 36 15 43 4 q 0 233 0 121 q 81 624 0 417 q 113 681 94 650 q 207 753 158 753 q 238 746 222 753 q 260 724 254 739 q 267 693 267 710 q 230 560 267 624 q 129 463 193 496 q 108 350 108 428 l 107 319 q 167 390 126 364 q 250 415 207 415 q 313 398 283 415 q 358 343 342 381 q 393 183 390 268 l 393 182 q 446 231 422 192 q 476 258 464 258 q 485 250 485 258 q 482 240 485 246 q 417 163 456 183 q 396 148 404 157 q 385 118 388 139 q 331 -44 374 36 q 204 -149 288 -124 l 188 -151 m 129 486 q 198 579 167 524 q 229 686 229 635 l 226 711 q 129 486 149 647 m 185 -111 q 231 -72 206 -111 q 275 16 257 -32 q 296 94 293 64 q 208 7 246 65 q 168 -93 171 -51 q 178 -110 168 -106 l 185 -111 z "},"c":{"ha":338,"x_min":0,"x_max":360,"o":"m 171 1 q 86 38 131 1 q 0 256 0 101 q 34 408 4 324 q 140 525 64 493 q 178 532 160 532 q 257 489 226 532 q 288 396 288 446 q 288 381 288 389 q 285 366 288 372 q 276 360 283 360 q 268 364 272 360 q 264 375 264 368 l 265 414 q 233 476 265 464 q 166 431 193 476 q 124 331 139 386 q 104 240 108 275 q 94 150 94 188 q 114 62 94 89 q 163 35 133 35 q 256 90 206 35 q 335 239 307 146 q 347 256 339 256 q 356 251 353 256 q 360 240 360 247 q 357 229 360 236 q 322 129 347 182 q 257 39 296 76 q 171 1 218 1 z "},"d":{"ha":497,"x_min":-3,"x_max":521,"o":"m 354 0 q 258 71 285 7 q 231 192 232 135 q 125 24 193 24 q 28 82 58 28 q -3 213 -3 136 q 19 342 -3 276 q 81 450 40 407 q 179 493 122 493 q 239 479 207 493 q 253 542 246 506 q 273 637 260 589 q 310 718 286 685 q 379 751 335 751 q 417 731 406 750 q 429 688 429 713 q 402 567 429 626 q 336 461 375 508 q 328 446 329 454 q 326 425 326 438 q 321 336 325 379 q 315 222 315 279 q 363 28 321 28 q 435 101 394 28 q 497 249 476 174 q 510 260 503 260 q 521 244 521 260 q 492 153 518 210 q 428 48 467 96 q 354 0 390 0 m 342 525 l 351 547 q 392 692 386 615 q 342 525 350 613 m 129 64 q 181 130 156 64 q 222 278 206 196 q 238 407 238 360 q 218 460 238 460 q 199 456 208 460 q 126 326 151 421 q 101 153 101 231 q 124 65 101 81 l 129 64 z "},"e":{"ha":338,"x_min":0,"x_max":360,"o":"m 171 6 q 86 42 132 6 q 0 260 0 106 q 138 508 13 460 q 199 518 163 518 q 263 504 232 518 q 293 433 293 475 q 245 340 293 396 q 108 267 197 285 q 96 153 96 196 q 115 66 96 93 q 163 39 135 39 q 257 94 207 39 q 335 243 307 150 q 349 260 340 260 q 356 256 353 260 q 360 246 360 253 q 357 233 360 238 q 322 134 347 186 q 257 44 296 82 q 171 6 218 6 m 114 297 q 214 365 181 313 q 247 450 247 418 q 232 481 247 479 q 181 450 204 481 q 140 378 157 419 q 114 297 124 336 z "},"f":{"ha":335,"x_min":-8,"x_max":350,"o":"m 147 -251 q 78 -205 114 -251 q 17 -72 42 -158 q -8 135 -8 14 q 85 594 -8 350 q 108 638 90 615 q 146 661 126 661 q 176 635 163 661 q 144 532 163 596 q 113 407 126 468 q 99 319 99 346 l 100 311 q 158 256 117 276 q 249 235 200 235 q 335 256 293 235 q 343 260 339 260 q 350 253 350 260 q 347 244 350 249 q 244 210 313 210 q 189 215 217 210 q 225 -64 225 42 q 202 -206 225 -161 q 147 -251 179 -251 m 136 -211 q 166 -169 153 -211 q 179 -49 179 -128 q 151 199 179 49 q 99 253 140 240 q 83 19 83 115 q 100 -154 83 -97 q 136 -211 117 -211 z "},"g":{"ha":490,"x_min":-1,"x_max":413,"o":"m 126 -454 q 63 -419 89 -454 q 38 -337 38 -383 q 104 -165 38 -253 q 261 -50 171 -76 q 297 185 297 -47 l 296 296 q 225 60 264 121 q 132 0 186 0 q 32 66 65 0 q -1 218 -1 132 q 43 400 -1 314 q 208 508 93 496 q 285 465 264 508 q 290 460 288 461 q 297 489 296 460 q 321 558 297 558 q 383 451 353 558 q 413 200 413 343 q 388 -68 413 68 q 313 -305 364 -204 q 185 -437 263 -406 q 126 -454 154 -454 m 133 39 q 193 97 168 46 q 263 340 232 176 l 274 399 q 240 431 274 428 q 133 322 165 415 q 101 142 101 229 q 109 68 101 97 q 132 39 117 39 l 133 39 m 114 -408 q 175 -365 138 -408 q 240 -240 219 -310 q 271 -99 260 -171 q 275 -78 274 -89 q 90 -339 126 -139 l 90 -356 q 113 -408 90 -408 l 114 -408 z "},"h":{"ha":551,"x_min":-1,"x_max":575,"o":"m 82 -1 q 22 65 40 -1 q -1 292 -1 144 q 36 600 -1 474 q 188 758 83 758 q 221 738 211 757 q 231 696 231 719 q 196 579 231 643 q 126 496 161 515 q 88 275 88 435 q 92 164 88 211 q 111 222 101 190 q 178 392 136 308 q 294 504 219 476 q 326 508 311 508 q 385 478 369 508 q 401 393 401 447 q 389 231 401 319 q 379 101 379 151 q 397 44 379 44 q 465 99 431 44 q 526 204 500 153 q 554 253 544 239 q 571 263 565 263 q 575 256 575 263 q 556 193 575 238 q 515 110 536 149 q 483 65 493 71 q 375 0 439 6 q 304 47 322 0 q 286 160 286 94 q 297 308 286 232 q 304 410 304 369 q 289 456 304 453 q 234 402 271 456 q 162 253 197 349 q 108 28 126 157 q 105 10 108 18 q 82 -1 101 1 m 119 524 q 197 688 186 593 q 188 718 194 718 q 147 633 174 718 q 119 525 119 549 l 119 524 z "},"i":{"ha":253,"x_min":0,"x_max":265,"o":"m 100 -3 q 40 35 61 -3 q 9 128 18 72 q 0 236 0 183 q 19 436 0 350 q 68 506 36 506 q 105 482 86 506 q 124 426 124 458 l 119 393 q 101 163 101 243 q 139 39 101 44 q 179 77 157 39 q 222 163 201 115 q 253 246 242 211 q 258 251 256 251 q 265 244 265 251 l 264 238 q 100 -3 219 14 m 99 558 q 63 580 79 558 q 47 632 47 601 q 58 679 47 654 q 100 708 76 708 q 133 693 118 708 q 147 650 147 678 q 129 579 143 600 q 99 558 115 558 z "},"j":{"ha":182,"x_min":-246,"x_max":104,"o":"m -149 -458 q -210 -440 -183 -458 q -246 -349 -246 -417 q -215 -231 -246 -283 q -144 -137 -185 -178 q -67 -69 -103 -97 q -15 -15 -19 -32 l -8 97 q 0 249 0 174 q -25 450 0 343 l -26 465 q -15 494 -26 485 q 13 504 -3 504 q 58 478 39 504 q 90 348 76 443 q 104 132 104 253 q 72 -172 104 -19 q -42 -410 40 -324 q -149 -458 -89 -458 m -171 -401 l -164 -400 q -60 -269 -89 -367 q -24 -78 -32 -171 q -149 -192 -96 -121 q -201 -344 -201 -264 q -171 -401 -201 -401 m 8 588 q -35 625 -19 588 q -50 694 -50 663 q -17 744 -50 744 q 12 723 0 744 q 24 676 24 701 l 21 633 l 22 607 q 8 588 22 592 z "},"k":{"ha":425,"x_min":-1,"x_max":438,"o":"m 51 3 q 17 25 28 3 q -1 232 -1 60 q 23 478 -1 356 q 121 703 47 600 q 168 742 139 726 q 226 757 197 757 q 288 690 288 757 q 135 456 261 540 q 106 422 113 443 q 100 378 100 401 l 100 317 q 191 463 142 417 q 278 508 240 508 q 325 454 319 508 q 278 340 325 413 q 219 290 251 311 q 214 287 218 289 q 210 282 210 285 q 214 275 210 279 q 243 237 236 257 q 250 194 250 217 q 247 151 250 174 q 243 106 243 128 q 258 56 246 76 q 293 36 271 36 q 325 56 308 36 q 413 218 385 128 q 428 256 425 253 q 436 260 431 260 q 438 244 438 253 q 414 154 438 208 q 371 69 390 100 q 278 8 339 8 q 202 44 238 8 q 167 158 167 81 q 163 238 167 224 q 144 254 158 251 q 122 246 133 254 q 107 228 111 238 q 94 126 94 178 l 94 107 q 90 29 94 68 q 76 8 90 14 q 51 3 63 3 m 114 469 q 246 678 213 524 q 231 725 244 725 q 185 672 213 725 q 135 559 157 619 q 114 475 114 499 l 114 469 m 125 278 q 194 322 161 297 q 249 379 226 347 q 271 453 271 411 l 271 457 q 268 473 269 468 q 257 478 267 478 q 208 435 239 478 q 153 344 178 392 q 125 278 129 297 z "},"l":{"ha":281,"x_min":-6,"x_max":296,"o":"m 151 0 q 64 43 99 0 q 12 157 29 86 q -6 311 -6 228 q 34 561 -6 438 q 150 744 74 685 q 207 763 185 763 q 253 697 253 763 q 227 583 253 644 q 168 494 201 521 q 140 475 154 482 q 117 458 126 468 q 107 425 107 449 q 97 244 97 343 q 112 92 97 147 q 165 31 126 36 q 217 65 196 31 q 251 144 238 99 q 274 226 265 189 l 281 253 q 288 257 283 257 q 294 255 292 257 q 296 249 296 253 q 151 0 249 7 m 118 486 q 188 567 167 515 q 218 674 208 619 l 221 690 q 217 713 221 701 q 208 724 214 724 q 196 713 203 724 q 133 549 146 639 l 118 486 z "},"m":{"ha":860,"x_min":-6,"x_max":882,"o":"m 113 0 q 23 122 51 14 q -6 332 -6 229 q 19 486 -6 442 q 72 531 44 531 q 114 508 96 531 q 132 444 132 486 l 122 374 q 101 179 101 253 q 114 58 101 121 l 122 103 q 219 432 161 324 q 322 507 260 504 q 372 470 356 507 q 394 376 389 433 q 400 256 400 318 l 399 81 l 403 99 q 486 350 438 232 q 643 535 563 535 q 726 426 726 535 q 690 226 726 357 l 685 204 q 676 133 676 175 q 687 67 676 100 q 724 32 697 35 q 777 78 751 32 q 824 176 803 125 q 850 235 838 211 q 872 260 863 260 q 882 246 882 260 l 881 239 q 818 92 861 169 q 693 1 769 4 q 558 192 558 1 q 567 306 558 249 q 585 402 576 363 q 594 454 594 442 l 593 458 l 590 457 q 513 324 540 394 q 464 179 485 254 q 425 57 447 118 q 388 29 413 29 q 363 35 376 29 q 299 155 311 69 q 286 317 286 240 l 286 375 q 285 415 286 403 q 282 431 285 428 q 274 436 279 435 q 239 390 257 436 q 167 147 211 322 q 143 54 154 94 l 140 42 q 113 0 133 4 z "},"n":{"ha":585,"x_min":-1,"x_max":610,"o":"m 433 0 q 319 139 319 0 q 328 221 319 182 q 340 358 340 267 q 310 461 340 460 q 256 419 278 461 q 219 314 235 376 q 191 190 203 251 q 169 85 179 128 q 138 21 158 42 q 100 0 118 0 q 40 33 63 0 q 8 119 18 65 q -1 232 -1 172 q 14 401 -1 319 q 51 517 29 483 q 78 528 65 528 q 119 503 101 528 q 136 453 136 479 q 128 424 136 438 q 103 306 111 376 q 96 172 96 236 q 101 78 96 117 q 117 39 107 39 q 136 122 125 44 q 192 365 158 272 q 335 507 243 507 q 424 453 400 504 q 447 328 447 403 q 432 151 447 239 q 422 58 422 92 q 432 31 422 33 q 497 73 468 36 q 545 155 525 110 q 575 228 565 200 l 582 246 q 599 260 590 260 q 610 247 607 260 q 544 93 599 188 q 433 0 503 21 z "},"o":{"ha":374,"x_min":-21,"x_max":392,"o":"m 132 0 q 49 46 85 0 q 13 165 13 92 q 17 208 13 186 q -21 350 -21 289 q 22 468 -21 426 q 118 510 65 510 l 143 507 q 238 434 197 497 q 278 256 278 371 q 272 208 278 232 q 269 179 269 190 q 271 170 269 174 q 275 167 272 167 q 279 167 278 167 q 320 191 297 167 q 363 239 343 215 l 376 257 q 383 260 379 260 q 392 253 392 260 q 353 192 388 228 q 267 136 318 156 q 244 104 258 132 q 200 35 228 71 q 132 0 172 0 m 138 31 q 165 47 149 31 q 195 86 182 64 q 213 126 208 108 l 199 126 q 145 132 174 126 q 101 146 117 138 l 99 119 q 109 60 99 89 q 138 31 119 32 m 200 144 q 226 165 219 144 q 242 281 242 229 q 206 423 242 375 q 119 475 169 471 q 49 439 82 475 q 17 340 17 403 q 29 268 17 308 q 39 301 35 283 q 56 349 44 328 q 93 376 67 371 q 132 314 132 365 q 119 250 132 281 q 110 194 110 215 q 128 159 110 168 q 200 144 146 150 z "},"p":{"ha":525,"x_min":-24,"x_max":549,"o":"m 56 -361 q 32 -343 42 -361 q -10 -181 3 -276 q -24 0 -24 -85 q 63 485 -24 247 q 104 529 81 529 q 136 510 122 529 q 153 458 150 490 q 144 410 151 435 l 139 385 l 160 407 q 225 469 189 439 q 307 499 261 499 q 371 479 336 499 q 424 342 424 446 q 414 247 424 293 q 410 232 410 238 q 428 217 410 217 q 478 229 450 217 q 515 251 506 242 q 517 253 517 251 q 533 261 529 261 q 544 256 539 261 q 549 246 549 251 q 546 240 549 243 q 540 234 543 236 q 535 231 536 232 q 428 189 485 189 q 394 169 408 189 q 364 119 379 150 q 318 45 346 83 q 244 -17 290 7 q 200 -29 224 -29 q 144 -3 167 -29 q 121 56 121 24 q 176 167 121 113 q 288 221 231 221 q 344 347 344 221 q 335 422 344 401 q 307 442 326 442 q 240 410 276 442 q 188 358 203 379 q 125 260 150 308 q 64 -139 64 140 q 68 -250 64 -207 q 79 -335 69 -276 q 72 -354 79 -347 q 56 -361 64 -361 m 181 24 q 231 58 203 24 q 281 132 260 93 q 301 183 301 171 q 206 138 253 183 q 160 54 160 92 q 165 33 160 42 q 181 24 171 24 z "},"q":{"ha":471,"x_min":-3,"x_max":486,"o":"m 343 -440 q 270 -368 297 -440 q 231 -198 243 -296 q 219 -22 219 -100 q 222 79 219 31 q 197 33 221 60 q 111 -1 172 6 q 26 62 56 -1 q -3 207 -3 125 q 18 347 -3 278 q 82 461 39 415 q 190 507 125 507 q 249 503 228 507 q 290 481 269 499 q 303 506 299 492 q 315 531 308 521 q 343 540 322 540 q 382 478 382 529 q 375 419 382 449 l 326 114 q 334 110 329 111 q 349 110 339 110 q 421 136 394 110 q 458 195 447 163 q 471 250 469 228 q 478 256 474 256 q 485 251 481 256 l 486 233 q 472 170 486 206 q 425 108 458 135 q 333 76 392 81 q 422 -221 422 -64 q 401 -374 422 -296 q 378 -424 393 -408 q 343 -440 363 -440 m 144 49 q 179 73 161 49 q 213 131 197 97 q 233 196 228 165 q 276 429 243 315 l 276 436 q 268 449 276 444 q 222 474 243 474 q 131 300 163 474 q 113 157 114 213 q 144 49 113 49 m 335 -407 q 366 -340 356 -390 q 376 -225 376 -289 q 362 -72 376 -147 q 318 39 347 3 l 313 -51 q 306 -201 306 -126 q 335 -407 306 -304 z "},"r":{"ha":408,"x_min":0,"x_max":394,"o":"m 56 0 q 13 71 26 8 q 0 214 0 133 q 10 363 0 290 q 41 478 21 436 q 89 521 61 521 q 123 499 107 521 q 139 446 139 476 q 133 418 139 432 q 113 314 118 368 q 101 246 108 281 q 225 492 135 379 q 258 508 243 508 q 311 464 290 508 q 332 388 332 419 l 329 356 q 369 313 329 313 l 386 313 q 394 300 394 307 q 376 273 394 286 q 333 260 357 260 q 281 288 306 260 q 257 396 257 317 l 258 435 q 181 343 224 414 q 111 174 139 272 q 104 136 104 158 q 106 101 104 119 q 107 65 107 83 q 97 19 107 39 q 56 0 88 0 z "},"s":{"ha":343,"x_min":-61,"x_max":371,"o":"m 53 -169 q -26 -137 3 -169 q -57 -50 -56 -104 q -22 58 -57 13 q 67 131 14 104 q 179 160 121 157 q 142 195 165 185 q 94 211 119 206 l 75 215 q -25 280 11 225 q -61 400 -61 335 q 38 588 -61 500 q 125 626 82 626 q 190 582 163 626 q 218 469 218 528 q 185 375 218 415 q 176 393 176 382 q 183 424 176 407 q 189 458 189 442 l 189 467 q 185 485 189 478 q 168 492 182 492 q 102 466 144 492 q 26 403 60 440 q -8 333 -8 367 q 21 290 -8 307 q 90 257 50 272 q 165 222 129 242 q 221 169 201 201 q 229 167 222 167 q 289 193 249 167 q 347 256 329 219 q 356 260 350 260 q 366 254 361 260 q 371 242 371 249 q 367 233 371 238 q 360 222 364 228 q 249 128 332 174 l 243 126 q 235 119 235 125 q 238 100 236 110 q 240 69 240 90 q 181 -95 240 -21 q 53 -169 121 -169 m -7 -96 q 19 -82 -1 -96 q 122 -7 75 -49 q 188 100 169 35 q 190 105 188 101 q 192 113 192 108 q 179 119 192 119 q 85 91 131 114 q 8 30 39 68 q -24 -57 -24 -8 q -19 -85 -22 -75 q -7 -96 -17 -96 z "},"t":{"ha":258,"x_min":-56,"x_max":289,"o":"m 150 -3 l 136 -1 q 52 55 82 4 q 10 178 22 106 q -3 317 -3 250 l -1 353 q 13 481 1 425 q 10 488 13 486 q 4 490 8 489 q -40 478 -25 490 l -47 475 q -56 499 -56 478 q -51 523 -56 510 q -28 536 -47 536 l 0 535 q 32 561 28 535 q 62 637 39 586 q 116 732 85 688 q 174 776 147 776 q 214 715 200 776 l 215 710 q 179 625 213 686 q 147 549 150 565 q 156 533 147 536 q 197 528 179 528 q 238 551 224 528 l 239 543 l 238 535 q 219 497 235 503 q 185 490 203 490 l 178 490 q 132 482 146 490 q 125 469 126 479 l 115 414 q 88 225 97 332 q 85 163 85 194 q 138 25 85 32 q 188 56 167 25 q 224 128 210 86 q 249 207 239 169 l 254 224 q 271 242 261 242 q 289 221 289 242 q 231 68 271 149 q 150 -3 199 4 z "},"u":{"ha":457,"x_min":-1,"x_max":476,"o":"m 319 3 l 313 3 q 224 122 240 3 q 131 24 185 24 q 46 89 83 24 q -1 283 -1 169 q 32 467 -1 376 q 71 508 46 508 q 115 486 94 508 q 136 438 136 464 q 122 289 131 363 q 106 108 110 199 q 125 56 108 56 q 150 72 136 56 q 176 109 164 88 q 193 147 188 131 q 211 212 206 168 q 219 310 217 256 q 236 458 224 392 q 286 532 249 525 q 330 507 313 528 q 347 463 347 486 q 328 289 344 389 q 310 108 310 179 q 316 57 310 72 q 338 39 322 42 q 389 89 365 39 q 432 190 413 139 q 465 260 457 260 q 476 247 476 260 q 415 90 458 168 q 319 3 372 13 z "},"v":{"ha":440,"x_min":-3,"x_max":458,"o":"m 174 0 q 73 43 113 0 q 15 155 33 86 q -3 299 -3 224 q 28 481 -3 401 q 67 499 44 499 q 103 488 86 499 q 121 460 121 476 q 118 446 121 451 q 108 303 108 403 q 123 129 108 215 q 176 32 138 43 l 182 32 q 215 65 201 32 q 240 147 229 99 q 258 241 250 196 q 271 317 265 286 q 276 390 276 347 l 276 413 q 280 475 276 444 q 306 506 283 506 q 325 500 314 506 q 343 444 343 481 q 338 388 343 418 q 333 329 333 357 q 345 278 333 299 q 393 258 357 258 q 414 260 404 258 q 438 261 424 261 q 458 250 454 261 q 455 240 458 243 q 444 232 451 236 l 443 232 q 393 219 417 219 q 311 264 350 219 q 286 140 303 208 q 174 0 249 0 z "},"w":{"ha":726,"x_min":0,"x_max":744,"o":"m 394 0 l 388 0 q 292 86 325 0 q 261 175 274 132 q 211 44 242 88 q 153 0 181 0 q 60 46 93 0 q 14 160 28 92 q 0 297 0 228 q 19 465 0 401 l 19 467 q 53 510 26 507 q 115 470 100 510 q 131 372 131 431 q 121 235 131 308 q 113 118 113 168 q 150 39 113 39 q 201 92 179 43 q 225 189 222 142 q 233 285 233 224 l 233 303 q 236 390 233 347 q 250 460 239 432 q 286 489 261 489 l 300 488 q 340 455 331 488 q 349 376 349 422 l 346 258 q 353 181 346 215 l 358 156 q 401 72 371 72 q 432 86 414 72 q 486 183 469 125 q 503 299 503 242 l 501 331 q 494 388 501 357 q 488 446 488 419 q 543 507 488 500 q 567 488 561 506 q 572 443 572 469 l 569 372 q 576 312 569 340 q 601 265 582 283 q 660 247 621 247 q 725 257 688 247 q 733 260 729 260 q 741 256 738 260 q 744 247 744 253 q 736 236 744 242 q 642 211 690 211 q 549 249 586 211 l 538 217 q 482 80 517 150 q 394 0 447 10 z "},"x":{"ha":317,"x_min":-46,"x_max":343,"o":"m 14 -28 q -46 51 -46 -4 q -34 112 -46 83 q -8 165 -22 140 q 11 217 11 197 q 7 235 11 226 q -31 399 -31 315 q -28 443 -29 422 q -15 488 -28 464 q 15 513 -3 513 q 46 490 29 513 q 40 407 40 444 q 48 310 40 346 q 57 274 56 274 q 93 328 68 289 q 172 446 128 385 q 249 507 215 507 q 273 491 264 507 q 282 458 282 475 q 261 415 282 436 q 126 236 182 335 l 93 182 l 93 179 q 108 129 93 161 q 148 71 122 97 q 206 44 174 44 q 271 113 242 49 q 318 254 300 176 q 328 258 321 260 q 343 249 343 258 q 274 64 317 126 q 183 1 232 1 q 61 108 122 1 l 60 104 q 19 -12 28 50 l 19 -19 q 14 -28 19 -26 z "},"y":{"ha":394,"x_min":-17,"x_max":328,"o":"m 79 -440 q 11 -414 39 -440 q -17 -344 -17 -387 q 42 -211 -17 -287 q 98 -165 65 -183 q 160 -135 131 -147 q 209 -112 190 -124 q 228 -86 228 -101 l 228 -78 q 239 144 239 33 q 238 213 239 179 q 191 69 224 117 q 121 22 158 22 q 53 65 86 22 q 3 190 21 107 l 1 213 q -3 311 -3 257 q 33 435 -3 422 q 69 402 61 426 q 78 349 78 378 l 76 300 l 79 258 q 122 53 85 53 q 164 97 142 53 q 203 208 186 142 q 219 336 219 274 q 207 454 219 396 l 207 464 q 235 504 207 504 q 277 483 256 504 q 299 433 299 461 l 299 428 q 328 71 328 246 q 287 -231 328 -118 q 188 -392 246 -343 q 79 -440 131 -440 m 75 -410 q 97 -401 85 -410 q 183 -280 157 -350 q 218 -133 210 -210 q 89 -215 143 -165 q 31 -344 35 -264 q 43 -387 31 -365 q 75 -410 56 -410 z "},"z":{"ha":406,"x_min":-33,"x_max":426,"o":"m 40 -439 q -33 -337 -33 -439 q -24 -257 -33 -297 q 174 32 22 -71 q 193 74 193 50 q 161 143 193 108 q 92 178 129 178 q 57 166 74 178 q 24 154 40 154 q -1 170 10 154 q -12 208 -12 186 q -1 249 -12 229 q 31 274 10 268 q 91 305 51 279 q 166 363 131 331 q 201 418 201 396 q 191 435 201 431 q 157 443 181 439 q 121 431 140 443 q 83 405 101 419 q 49 380 65 390 q 18 369 32 369 q -6 384 4 369 q -17 418 -17 399 q 31 485 -17 461 q 129 510 78 510 q 205 492 172 510 q 238 435 238 474 q 99 236 238 360 q 190 185 164 222 q 226 115 217 149 q 238 90 232 100 q 250 81 243 81 q 264 88 256 81 q 407 254 361 147 q 417 260 411 260 q 424 258 421 260 q 426 251 426 256 q 364 141 411 199 q 271 56 317 83 q 253 31 253 49 l 256 0 q 261 -67 261 -26 q 216 -279 261 -176 q 71 -435 171 -382 q 40 -439 54 -439 m 10 -399 q 101 -319 60 -389 q 170 -165 143 -249 q 200 -32 197 -82 l 203 -12 q 194 3 203 3 q 151 -25 179 3 q 70 -124 96 -82 q 20 -225 44 -165 q -4 -339 -4 -285 q 10 -399 -4 -372 z "},"{":{"ha":325,"x_min":42,"x_max":283,"o":"m 226 10 q 194 18 211 10 q 168 35 178 26 q 88 236 88 111 q 111 363 88 301 q 128 443 128 418 q 117 472 128 467 q 88 476 107 476 q 58 481 69 476 q 42 501 46 485 q 60 524 42 515 q 127 588 108 547 q 150 676 146 629 q 154 714 154 694 q 142 801 154 758 q 129 889 129 844 l 132 919 q 161 972 140 956 q 206 989 182 989 q 256 967 231 989 q 283 907 281 946 q 274 894 283 896 q 257 902 267 894 q 242 910 247 910 q 209 883 221 910 q 197 835 197 856 l 197 829 q 211 697 211 764 q 147 511 211 578 q 143 506 143 510 q 153 480 143 497 q 175 439 164 463 q 186 385 186 415 q 176 280 182 328 q 153 176 171 232 q 149 146 149 163 q 169 78 149 111 q 225 46 189 46 l 231 46 q 253 29 253 46 q 226 10 246 10 z "},"|":{"ha":169,"x_min":42,"x_max":128,"o":"m 96 7 q 76 21 86 7 q 65 46 65 35 q 48 194 54 63 q 42 489 42 325 q 53 835 42 674 q 90 996 64 996 q 122 940 104 996 q 118 865 118 903 q 123 757 118 811 q 128 639 128 703 q 119 343 119 486 q 108 19 119 181 q 96 7 104 7 z "},"}":{"ha":349,"x_min":42,"x_max":307,"o":"m 126 18 q 106 28 108 18 q 122 42 106 33 q 175 192 175 97 q 169 277 175 233 q 164 363 164 321 q 218 515 164 460 q 222 524 222 518 q 210 557 222 536 q 186 603 197 578 q 175 660 175 629 l 174 692 q 178 763 174 721 q 183 846 183 806 q 174 912 183 885 q 136 939 164 939 q 78 918 114 939 q 61 913 68 913 q 42 933 47 913 q 64 983 44 967 q 108 1000 83 1000 q 190 961 150 1000 q 231 847 231 922 l 228 815 l 229 796 q 225 732 229 769 q 221 657 221 694 q 232 584 221 615 q 278 546 243 553 l 286 546 q 303 540 300 546 q 307 518 306 535 q 296 496 307 506 q 238 425 253 465 q 224 339 224 385 q 228 265 224 303 q 232 190 232 228 q 201 68 232 117 q 165 29 188 40 q 126 18 143 18 z "},"":{"ha":229,"x_min":43,"x_max":188,"o":"m 92 17 q 82 19 86 17 q 51 118 57 65 q 43 268 43 182 q 47 353 46 285 q 56 525 50 428 q 78 697 63 622 q 128 771 94 771 q 147 764 138 771 q 160 697 160 735 q 139 551 160 631 q 119 422 119 478 q 110 313 115 367 q 94 74 94 193 l 96 24 q 92 17 96 17 m 144 854 q 114 932 118 854 l 113 944 q 144 1026 119 1026 q 174 998 160 1026 q 188 935 188 969 q 154 857 188 883 l 144 854 z "},"":{"ha":390,"x_min":42,"x_max":349,"o":"m 147 203 q 127 215 132 206 q 122 239 122 225 l 124 265 q 92 340 124 313 q 42 468 42 397 q 91 611 42 544 q 221 689 140 678 l 224 689 q 240 697 233 689 q 251 733 246 704 q 276 786 264 786 q 291 775 283 786 q 299 750 299 764 q 292 717 299 733 q 286 686 286 701 q 304 651 286 668 q 315 638 310 649 q 323 614 319 628 q 326 590 326 600 q 321 576 326 578 q 306 588 313 576 q 275 619 288 619 q 229 479 260 619 q 194 343 217 414 q 314 422 265 376 q 321 428 318 425 q 326 433 324 431 q 333 436 329 436 q 349 415 349 429 q 344 399 349 407 q 335 383 340 390 q 271 315 297 336 q 228 288 244 293 q 200 282 211 282 q 182 278 189 282 q 169 261 175 275 q 157 217 164 247 q 155 211 156 214 q 153 206 154 208 q 147 203 151 204 m 133 354 q 140 365 139 354 q 210 608 169 485 q 134 531 165 581 q 103 429 103 481 q 108 395 103 413 q 119 366 113 378 q 133 354 126 354 z "},"":{"ha":524,"x_min":42,"x_max":482,"o":"m 324 189 q 236 216 290 189 q 151 243 182 243 q 71 203 113 243 q 57 197 63 197 q 42 222 42 197 q 47 250 42 236 q 63 268 53 264 q 120 323 79 276 q 198 426 161 369 q 235 513 235 482 q 213 533 235 532 l 192 532 q 146 563 146 532 q 156 586 146 575 q 189 604 167 597 q 210 613 204 610 q 217 622 217 617 q 204 649 217 629 q 153 797 153 718 q 183 906 153 861 q 282 961 214 951 q 344 933 318 961 q 371 869 371 904 q 367 847 371 857 q 358 836 364 836 q 349 850 351 836 q 286 897 328 897 q 217 865 250 897 q 185 789 185 832 q 196 744 185 767 q 222 699 207 722 q 260 628 244 665 q 285 612 269 617 q 319 605 300 607 q 353 597 338 603 q 371 575 368 592 l 372 568 q 361 556 372 558 q 331 553 350 553 q 288 546 297 553 q 271 524 271 539 q 200 338 271 428 q 192 322 192 328 q 208 306 192 313 q 333 268 272 268 q 467 361 425 268 q 478 372 474 372 q 482 357 482 372 q 479 333 482 346 q 471 314 476 319 q 324 189 397 189 z "},"":{"ha":497,"x_min":42,"x_max":456,"o":"m 249 85 q 231 97 240 85 q 221 119 222 108 q 199 264 199 190 q 201 328 199 296 q 183 322 193 326 q 146 314 163 314 q 124 338 124 314 q 144 387 125 371 q 192 413 164 403 q 205 423 200 414 q 210 439 210 432 q 201 450 210 449 l 182 446 q 125 435 154 435 q 100 454 100 435 q 126 497 104 488 q 174 511 149 507 q 225 540 221 518 l 226 557 q 208 597 226 579 q 112 705 157 647 q 43 832 67 763 l 42 839 q 47 851 42 846 q 57 856 51 856 q 72 846 65 856 q 158 728 119 790 q 238 617 193 669 q 244 621 243 618 q 247 626 246 624 q 269 699 247 642 q 322 821 290 756 q 436 983 400 983 q 449 975 443 983 q 456 953 456 967 q 433 871 456 924 q 378 756 410 818 q 322 637 347 694 q 296 544 296 579 q 319 511 296 517 q 344 493 344 511 q 337 477 344 485 q 308 469 329 469 l 303 469 q 288 467 296 469 q 279 440 279 464 q 296 426 279 426 l 304 428 q 329 417 321 428 q 338 394 338 407 q 310 368 338 369 q 276 360 283 367 q 268 326 269 353 q 263 207 263 267 q 249 85 263 85 z "},"":{"ha":322,"x_min":42,"x_max":281,"o":"m 169 193 q 83 225 124 193 q 42 311 42 257 q 50 336 42 336 q 58 326 54 336 q 68 293 67 308 q 126 242 86 242 q 199 279 167 242 q 231 351 231 317 q 206 405 231 385 q 147 442 182 425 q 82 487 113 460 q 51 564 51 514 q 56 605 51 582 q 83 643 61 628 q 97 660 97 651 q 93 671 97 664 q 72 756 72 717 q 105 849 72 813 q 176 885 138 885 q 241 851 208 885 q 281 742 274 818 q 277 722 281 732 q 268 713 274 713 q 256 728 261 713 q 226 772 247 757 q 183 786 206 786 q 144 773 161 786 q 126 735 126 760 l 128 721 q 182 654 149 683 q 217 617 200 636 q 249 540 249 579 q 241 501 249 517 q 228 465 233 486 q 244 419 228 446 q 274 319 274 364 q 269 286 274 304 q 234 215 263 238 q 169 193 206 193 m 197 482 q 203 488 201 482 q 218 532 218 510 q 203 571 218 554 q 157 588 188 588 q 119 577 131 586 q 107 560 107 568 q 131 525 107 543 q 197 482 171 496 z "},"":{"ha":581,"x_min":42,"x_max":539,"o":"m 271 182 q 123 249 189 182 q 42 454 57 317 q 69 578 43 515 q 141 687 94 642 q 251 732 188 732 q 286 728 271 732 l 303 724 q 317 731 308 724 q 379 747 350 747 q 466 707 431 747 q 520 609 501 667 q 539 497 539 551 q 535 449 539 471 q 430 250 506 318 q 271 182 354 182 m 257 251 q 438 353 378 268 q 499 531 499 438 q 473 628 499 588 q 394 669 447 669 q 243 603 335 669 q 226 635 226 611 l 226 643 q 126 547 158 611 q 93 411 93 482 q 145 299 96 346 q 257 251 194 251 m 278 306 q 213 353 235 306 q 192 458 192 401 q 206 547 192 506 q 251 607 221 589 q 294 615 276 615 q 344 590 331 615 q 357 538 357 564 q 353 507 357 519 q 343 494 349 494 q 332 514 338 494 q 319 542 332 542 q 296 532 313 542 q 254 485 272 519 q 236 421 236 451 q 278 374 236 374 q 328 392 306 376 q 367 408 350 408 q 380 401 375 408 q 385 386 385 393 q 369 356 385 369 q 339 331 354 342 l 329 324 q 278 306 300 306 z "},"":{"ha":289,"x_min":42,"x_max":247,"o":"m 115 656 q 78 676 90 656 q 67 726 67 697 q 89 809 67 768 q 150 850 111 850 q 207 828 175 850 q 183 881 201 864 q 142 897 165 897 q 68 856 103 897 q 63 847 65 853 q 57 840 61 840 q 42 865 42 844 q 76 922 42 897 q 143 950 110 946 q 204 921 182 950 q 244 778 244 869 q 247 728 247 750 q 235 679 247 679 q 221 692 229 679 q 210 703 217 703 q 180 685 200 703 q 151 665 160 667 q 115 656 131 656 m 104 721 q 136 728 117 722 q 172 742 156 733 q 192 760 188 750 q 167 774 181 774 q 130 758 149 774 q 104 721 111 742 z "},"":{"ha":378,"x_min":42,"x_max":336,"o":"m 206 333 q 185 346 197 333 q 124 385 160 368 q 69 418 93 400 q 42 467 44 436 q 112 569 44 486 q 199 651 179 651 q 210 632 210 644 q 185 588 210 615 q 143 543 179 579 q 92 475 92 496 q 126 436 92 458 q 204 371 156 417 q 217 346 217 357 q 206 333 217 335 m 324 351 q 308 361 317 351 q 250 406 285 386 q 202 440 224 422 q 176 485 181 458 q 203 536 178 499 q 256 607 228 574 q 297 643 285 640 q 307 624 307 635 q 290 585 307 604 q 239 521 253 539 q 225 492 225 503 q 232 478 225 485 q 251 460 239 471 q 328 382 279 440 q 336 365 336 374 q 333 356 336 360 q 324 351 329 351 z "},"":{"ha":532,"x_min":42,"x_max":490,"o":"m 213 200 q 119 234 163 200 q 50 346 76 268 q 42 413 42 376 q 68 547 42 478 q 141 665 94 617 q 250 714 188 714 q 296 706 272 714 q 308 701 301 701 q 331 706 321 703 q 354 708 340 708 q 427 680 397 708 q 472 610 457 651 q 489 529 488 569 l 490 510 q 400 299 490 397 q 213 200 310 200 m 204 267 q 375 363 288 267 l 340 369 q 246 400 289 378 q 238 354 239 379 q 225 301 238 324 q 206 343 206 308 l 206 372 q 199 412 206 397 q 192 443 192 426 q 196 489 192 461 q 206 539 200 517 q 219 561 213 561 l 224 560 q 254 579 233 560 q 303 606 283 606 q 338 581 318 606 q 357 526 357 557 q 331 463 357 499 q 317 435 317 446 q 343 415 317 425 q 392 383 379 404 q 450 536 450 472 q 422 610 450 582 q 342 638 393 638 q 206 597 285 638 q 192 590 197 590 q 185 592 189 590 q 178 593 182 593 q 161 582 171 593 q 82 404 82 496 q 116 306 82 346 q 204 267 150 267 m 247 449 l 267 472 q 311 539 294 501 q 246 468 246 531 l 247 449 z "},"":{"ha":232,"x_min":42,"x_max":190,"o":"m 97 713 q 43 819 49 713 l 42 835 q 69 908 42 871 q 131 944 97 944 q 174 921 153 944 q 190 856 190 889 q 160 757 190 801 q 97 713 129 713 m 99 771 q 136 798 117 771 q 156 847 156 825 q 151 875 154 867 q 138 883 147 883 q 97 856 119 883 q 75 807 75 829 q 83 780 75 789 q 99 771 92 771 z "},"":{"ha":260,"x_min":42,"x_max":218,"o":"m 64 693 q 47 703 53 693 q 42 725 42 713 q 57 763 42 751 q 121 867 100 808 l 124 878 q 111 890 124 890 q 84 880 99 890 q 65 857 69 869 q 58 850 63 850 q 50 860 50 850 q 77 917 58 899 q 117 936 96 936 q 147 922 133 936 q 160 879 160 907 q 126 778 160 840 l 135 778 q 162 781 147 778 q 188 783 176 783 q 209 779 201 783 q 218 761 217 775 q 203 738 218 746 q 131 713 168 718 q 72 694 100 707 l 64 693 z "},"":{"ha":218,"x_min":42,"x_max":176,"o":"m 101 690 q 63 719 65 690 q 69 734 63 731 q 85 740 76 738 q 100 746 93 743 q 132 769 132 761 q 118 783 132 775 q 92 802 104 792 q 81 832 81 813 q 111 899 81 857 l 99 900 q 63 888 78 900 q 57 884 60 886 q 51 882 54 882 q 42 899 42 886 q 66 935 42 921 q 117 951 90 950 q 142 937 133 951 q 150 904 150 922 q 135 854 150 876 q 129 844 129 849 q 140 833 129 838 q 176 776 176 817 q 155 718 176 746 q 101 690 133 690 z "},"":{"ha":186,"x_min":42,"x_max":144,"o":"m 75 174 q 63 177 68 174 q 57 188 57 181 q 78 219 57 197 q 107 271 107 250 l 107 275 q 83 267 96 275 q 60 260 69 260 q 42 326 42 260 q 57 372 42 372 q 72 363 64 372 q 83 343 81 354 q 88 325 85 332 q 106 315 92 318 q 128 306 121 313 q 144 257 144 285 q 125 206 144 228 l 117 197 q 75 174 90 174 z "},"":{"ha":203,"x_min":42,"x_max":161,"o":"m 126 689 q 99 779 99 703 l 100 831 l 99 850 q 81 838 90 846 q 63 831 72 831 q 49 840 56 831 q 42 858 42 849 q 50 878 42 868 q 92 915 68 900 q 117 936 106 925 q 136 947 128 947 q 154 930 147 947 q 161 897 161 913 q 160 885 161 890 q 139 753 142 819 l 136 703 q 126 689 136 689 z "},"":{"ha":254,"x_min":42,"x_max":213,"o":"m 111 678 q 42 819 50 678 q 63 901 42 860 q 121 942 85 942 q 171 919 143 942 q 213 817 213 868 q 180 720 213 763 q 111 678 147 678 m 106 735 q 150 769 125 735 q 175 843 175 804 q 170 867 175 854 q 158 890 165 881 q 147 899 151 899 q 142 897 144 899 q 139 894 140 896 q 99 840 107 871 q 90 772 90 810 l 89 764 q 103 735 89 735 l 106 735 z "},"":{"ha":286,"x_min":42,"x_max":244,"o":"m 151 321 q 142 333 142 321 q 172 408 149 372 q 196 454 196 444 q 169 497 196 468 q 139 546 142 525 q 133 571 133 554 q 143 596 133 596 q 156 588 149 596 q 202 515 169 546 q 244 449 235 485 q 190 361 231 399 l 161 328 q 151 321 157 321 m 53 318 q 49 333 49 325 q 85 404 49 358 q 110 451 110 439 q 81 485 110 464 q 49 525 53 507 l 47 531 q 42 556 42 543 q 54 574 42 569 q 68 561 60 574 q 157 457 157 492 q 147 430 157 443 q 119 400 136 417 q 53 318 90 372 z "},"":{"ha":632,"x_min":42,"x_max":590,"o":"m 481 6 q 397 126 415 33 q 379 294 379 218 q 378 312 378 304 q 376 325 378 319 q 364 331 375 331 l 350 329 q 295 335 329 329 q 229 340 261 340 q 168 306 171 340 q 124 29 147 157 q 122 14 124 21 q 110 7 119 7 q 99 42 99 7 q 108 124 99 74 q 125 224 117 175 q 142 325 142 301 q 89 293 117 321 q 63 275 74 275 q 48 284 54 275 q 42 300 42 293 q 54 328 42 314 q 115 364 83 357 q 139 372 128 367 q 154 390 150 376 q 218 677 178 535 q 339 943 258 819 q 406 976 371 976 q 475 938 443 976 q 514 750 514 865 q 501 575 514 664 q 488 393 488 486 q 568 458 526 417 q 578 467 571 467 q 586 463 582 467 q 590 454 590 458 q 586 442 590 447 q 556 397 575 413 q 520 373 538 382 q 493 356 503 364 q 482 333 483 347 l 478 247 q 472 150 472 199 q 492 22 472 85 l 493 15 q 481 6 493 6 m 363 365 q 379 378 379 365 l 379 382 q 397 697 382 540 q 411 890 411 854 q 393 939 411 939 q 356 916 376 939 q 319 858 336 893 q 235 634 265 750 q 185 400 204 518 q 183 393 185 397 q 182 385 182 389 q 363 365 182 374 m 521 1060 q 511 1064 515 1060 q 501 1072 507 1068 q 480 1078 494 1075 q 447 1083 465 1082 q 408 1092 425 1088 q 390 1107 390 1096 q 399 1129 392 1119 q 418 1140 407 1139 l 426 1140 q 493 1122 456 1140 q 531 1075 531 1104 l 529 1065 q 521 1060 525 1060 z "},"":{"ha":632,"x_min":42,"x_max":590,"o":"m 481 6 q 397 126 415 33 q 379 294 379 218 q 378 312 378 304 q 376 325 378 319 q 364 331 375 331 l 350 329 q 295 335 329 329 q 229 340 261 340 q 168 306 171 340 q 124 29 147 157 q 122 14 124 21 q 110 7 119 7 q 99 42 99 7 q 108 124 99 74 q 125 224 117 175 q 142 325 142 301 q 89 293 117 321 q 63 275 74 275 q 48 284 54 275 q 42 300 42 293 q 54 328 42 314 q 115 364 83 357 q 139 372 128 367 q 154 390 150 376 q 218 677 178 535 q 339 943 258 819 q 406 976 371 976 q 475 938 443 976 q 514 750 514 865 q 501 575 514 664 q 488 393 488 486 q 568 458 526 417 q 578 467 571 467 q 586 463 582 467 q 590 454 590 458 q 586 442 590 447 q 556 397 575 413 q 520 373 538 382 q 493 356 503 364 q 482 333 483 347 l 478 247 q 472 150 472 199 q 492 22 472 85 l 493 15 q 481 6 493 6 m 363 365 q 379 378 379 365 l 379 382 q 397 697 382 540 q 411 890 411 854 q 393 939 411 939 q 356 916 376 939 q 319 858 336 893 q 235 634 265 750 q 185 400 204 518 q 183 393 185 397 q 182 385 182 389 q 363 365 182 374 m 376 1060 q 386 1064 382 1060 q 397 1072 390 1068 q 417 1078 403 1075 q 450 1083 432 1082 q 490 1092 472 1088 q 507 1107 507 1096 q 471 1140 504 1139 q 405 1122 443 1140 q 367 1075 367 1104 l 368 1065 q 376 1060 372 1060 z "},"":{"ha":632,"x_min":42,"x_max":590,"o":"m 481 6 q 397 126 415 33 q 379 294 379 218 q 378 312 378 304 q 376 325 378 319 q 364 331 375 331 l 350 329 q 295 335 329 329 q 229 340 261 340 q 168 306 171 340 q 124 29 147 157 q 122 14 124 21 q 110 7 119 7 q 99 42 99 7 q 108 124 99 74 q 125 224 117 175 q 142 325 142 301 q 89 293 117 321 q 63 275 74 275 q 48 284 54 275 q 42 300 42 293 q 54 328 42 314 q 115 364 83 357 q 139 372 128 367 q 154 390 150 376 q 218 677 178 535 q 339 943 258 819 q 406 976 371 976 q 475 938 443 976 q 514 750 514 865 q 501 575 514 664 q 488 393 488 486 q 568 458 526 417 q 578 467 571 467 q 586 463 582 467 q 590 454 590 458 q 586 442 590 447 q 556 397 575 413 q 520 373 538 382 q 493 356 503 364 q 482 333 483 347 l 478 247 q 472 150 472 199 q 492 22 472 85 l 493 15 q 481 6 493 6 m 363 365 q 379 378 379 365 l 379 382 q 397 697 382 540 q 411 890 411 854 q 393 939 411 939 q 356 916 376 939 q 319 858 336 893 q 235 634 265 750 q 185 400 204 518 q 183 393 185 397 q 182 385 182 389 q 363 365 182 374 m 497 1065 l 494 1067 q 447 1094 472 1092 q 434 1092 444 1094 q 410 1084 424 1090 q 385 1067 397 1078 q 378 1069 382 1067 q 372 1074 375 1071 q 369 1082 369 1078 q 401 1119 375 1104 q 447 1135 426 1133 q 486 1121 461 1135 q 521 1088 517 1104 q 512 1072 521 1079 q 497 1065 503 1065 z "},"":{"ha":632,"x_min":42,"x_max":590,"o":"m 481 6 q 397 126 415 33 q 379 294 379 218 q 378 312 378 304 q 376 325 378 319 q 364 331 375 331 l 350 329 q 295 335 329 329 q 229 340 261 340 q 168 306 171 340 q 124 29 147 157 q 122 14 124 21 q 110 7 119 7 q 99 42 99 7 q 108 124 99 74 q 125 224 117 175 q 142 325 142 301 q 89 293 117 321 q 63 275 74 275 q 48 284 54 275 q 42 300 42 293 q 54 328 42 314 q 115 364 83 357 q 139 372 128 367 q 154 390 150 376 q 218 677 178 535 q 339 943 258 819 q 406 976 371 976 q 475 938 443 976 q 514 750 514 865 q 501 575 514 664 q 488 393 488 486 q 568 458 526 417 q 578 467 571 467 q 586 463 582 467 q 590 454 590 458 q 586 442 590 447 q 556 397 575 413 q 520 373 538 382 q 493 356 503 364 q 482 333 483 347 l 478 247 q 472 150 472 199 q 492 22 472 85 l 493 15 q 481 6 493 6 m 363 365 q 379 378 379 365 l 379 382 q 397 697 382 540 q 411 890 411 854 q 393 939 411 939 q 356 916 376 939 q 319 858 336 893 q 235 634 265 750 q 185 400 204 518 q 183 393 185 397 q 182 385 182 389 q 363 365 182 374 m 401 1067 q 438 1081 418 1067 q 467 1094 458 1094 q 474 1090 471 1094 q 480 1081 478 1086 q 486 1076 482 1076 q 494 1081 490 1076 q 499 1096 499 1086 l 499 1101 q 460 1133 486 1133 q 431 1124 446 1133 q 394 1108 408 1108 q 375 1126 381 1108 q 367 1133 372 1133 q 356 1117 356 1133 q 371 1081 358 1094 q 401 1067 383 1067 z "},"":{"ha":632,"x_min":42,"x_max":590,"o":"m 481 6 q 397 126 415 33 q 379 294 379 218 q 378 312 378 304 q 376 325 378 319 q 364 331 375 331 l 350 329 q 295 335 329 329 q 229 340 261 340 q 168 306 171 340 q 124 29 147 157 q 122 14 124 21 q 110 7 119 7 q 99 42 99 7 q 108 124 99 74 q 125 224 117 175 q 142 325 142 301 q 89 293 117 321 q 63 275 74 275 q 48 284 54 275 q 42 300 42 293 q 54 328 42 314 q 115 364 83 357 q 139 372 128 367 q 154 390 150 376 q 218 677 178 535 q 339 943 258 819 q 406 976 371 976 q 475 938 443 976 q 514 750 514 865 q 501 575 514 664 q 488 393 488 486 q 568 458 526 417 q 578 467 571 467 q 586 463 582 467 q 590 454 590 458 q 586 442 590 447 q 556 397 575 413 q 520 373 538 382 q 493 356 503 364 q 482 333 483 347 l 478 247 q 472 150 472 199 q 492 22 472 85 l 493 15 q 481 6 493 6 m 363 365 q 379 378 379 365 l 379 382 q 397 697 382 540 q 411 890 411 854 q 393 939 411 939 q 356 916 376 939 q 319 858 336 893 q 235 634 265 750 q 185 400 204 518 q 183 393 185 397 q 182 385 182 389 q 363 365 182 374 m 407 1064 q 387 1077 394 1064 q 379 1101 379 1090 q 403 1136 386 1136 q 426 1124 415 1136 q 438 1097 438 1113 q 424 1071 438 1083 q 407 1064 415 1064 m 482 1064 q 461 1078 469 1064 q 453 1103 453 1092 q 476 1136 460 1136 q 500 1124 489 1136 q 511 1097 511 1113 q 497 1071 511 1083 q 482 1064 489 1064 z "},"":{"ha":632,"x_min":42,"x_max":590,"o":"m 481 6 q 397 126 415 33 q 379 294 379 218 q 378 312 378 304 q 376 325 378 319 q 364 331 375 331 l 350 329 q 295 335 329 329 q 229 340 261 340 q 168 306 171 340 q 124 29 147 157 q 122 14 124 21 q 110 7 119 7 q 99 42 99 7 q 108 124 99 74 q 125 224 117 175 q 142 325 142 301 q 89 293 117 321 q 63 275 74 275 q 48 284 54 275 q 42 300 42 293 q 54 328 42 314 q 115 364 83 357 q 139 372 128 367 q 154 390 150 376 q 218 677 178 535 q 339 943 258 819 q 406 976 371 976 q 475 938 443 976 q 514 750 514 865 q 501 575 514 664 q 488 393 488 486 q 568 458 526 417 q 578 467 571 467 q 586 463 582 467 q 590 454 590 458 q 586 442 590 447 q 556 397 575 413 q 520 373 538 382 q 493 356 503 364 q 482 333 483 347 l 478 247 q 472 150 472 199 q 492 22 472 85 l 493 15 q 481 6 493 6 m 363 365 q 379 378 379 365 l 379 382 q 397 697 382 540 q 411 890 411 854 q 393 939 411 939 q 356 916 376 939 q 319 858 336 893 q 235 634 265 750 q 185 400 204 518 q 183 393 185 397 q 182 385 182 389 q 363 365 182 374 m 432 1044 q 391 1065 407 1044 q 375 1103 375 1085 q 422 1156 382 1156 q 469 1137 447 1156 q 490 1096 490 1118 q 463 1054 490 1074 q 432 1044 446 1044 m 433 1068 q 446 1074 439 1068 q 457 1097 457 1085 q 448 1119 457 1110 q 429 1129 439 1129 q 408 1100 414 1129 q 415 1079 408 1090 q 433 1068 422 1068 z "},"":{"ha":993,"x_min":42,"x_max":953,"o":"m 363 365 q 379 378 379 365 l 379 382 q 397 697 382 540 q 411 890 411 854 q 393 939 411 939 q 356 916 376 939 q 319 858 336 893 q 185 400 231 682 q 183 393 185 397 q 182 385 182 389 q 185 377 182 382 q 363 365 189 372 m 606 4 q 489 58 532 4 l 479 69 l 493 15 q 481 6 493 6 q 397 126 415 33 q 379 294 379 218 q 378 312 378 304 q 376 325 378 319 q 364 331 375 331 l 350 329 q 295 335 329 329 q 229 340 261 340 q 168 306 171 340 q 135 92 153 199 l 124 26 q 121 13 122 18 q 110 7 119 7 q 99 42 99 7 q 108 125 99 74 q 142 325 142 315 q 89 293 117 321 q 63 275 74 275 q 48 284 54 275 q 42 300 42 293 q 54 328 42 314 q 116 364 83 357 q 154 390 149 371 q 218 677 178 535 q 339 943 258 819 q 406 976 371 976 q 475 938 443 976 l 482 924 q 693 974 583 974 q 857 939 776 974 q 867 922 867 932 q 850 901 867 901 q 740 911 810 911 q 665 894 679 911 q 607 724 638 808 l 574 625 q 564 592 572 614 q 547 532 547 546 q 561 515 547 517 q 658 514 624 515 q 746 488 746 510 q 661 467 742 467 l 642 467 q 563 463 597 467 q 528 438 528 458 q 507 222 507 308 q 589 57 507 57 q 707 110 632 57 q 863 271 794 179 q 938 353 924 353 q 953 328 953 353 q 944 306 953 315 q 844 161 879 208 q 606 4 725 4 m 513 792 q 560 890 532 842 q 513 878 538 890 l 500 872 q 513 792 510 833 z "},"":{"ha":728,"x_min":42,"x_max":697,"o":"m 299 0 q 125 100 197 10 q 42 343 42 201 l 43 376 q 70 585 43 476 q 144 788 97 694 q 253 941 192 882 q 383 1000 314 1000 q 514 933 458 1000 q 569 779 569 867 q 540 663 569 721 q 521 642 533 642 q 510 647 515 642 q 506 661 506 653 q 510 676 506 668 q 528 774 528 722 q 502 887 528 835 q 425 939 476 939 q 347 908 392 939 q 200 639 243 804 q 157 319 157 474 q 163 207 157 260 q 228 81 179 121 q 338 40 276 40 q 452 71 394 40 q 557 158 510 101 q 682 413 649 271 q 688 421 683 421 q 694 418 692 421 q 697 411 697 415 l 696 407 q 514 74 660 210 q 338 -1 422 4 q 339 -7 339 -4 q 344 -24 340 -15 q 351 -29 347 -28 q 361 -32 356 -31 q 374 -35 368 -33 q 383 -42 379 -37 q 400 -90 400 -62 q 381 -142 400 -119 q 372 -150 376 -144 q 352 -166 363 -158 q 331 -174 342 -174 q 318 -170 324 -174 q 313 -160 313 -167 q 319 -144 313 -153 q 333 -128 325 -136 q 353 -103 344 -117 q 363 -76 363 -90 l 363 -72 q 338 -81 351 -72 q 315 -87 325 -87 q 302 -74 307 -87 q 297 -21 297 -61 q 299 0 297 -10 z "},"":{"ha":636,"x_min":42,"x_max":607,"o":"m 260 4 q 143 58 186 4 q 82 187 100 111 q 64 329 64 263 l 65 399 q 58 440 65 417 l 51 439 q 42 457 42 439 q 50 490 42 472 q 75 507 58 507 q 131 674 111 589 q 214 890 154 785 q 167 878 192 890 q 126 865 143 865 q 111 872 117 865 q 106 888 106 879 q 133 922 106 910 q 347 974 236 974 q 511 939 431 974 q 521 922 521 932 q 516 908 521 914 q 504 901 511 901 q 394 911 464 911 q 319 894 333 911 q 261 724 292 808 l 228 625 q 218 592 226 614 q 201 532 201 546 q 215 515 201 517 q 313 514 278 515 q 400 488 400 510 q 367 469 397 472 q 315 467 344 467 l 296 467 q 217 463 251 467 q 182 436 182 458 q 161 222 161 311 q 178 106 161 156 q 243 57 194 57 q 361 110 286 57 q 517 271 449 179 q 592 353 578 353 q 603 345 599 353 q 607 328 607 338 q 599 306 607 315 q 499 161 533 208 q 388 49 447 94 q 260 4 329 4 m 442 1060 q 432 1064 436 1060 q 422 1072 428 1068 q 401 1078 415 1075 q 368 1083 386 1082 q 328 1092 346 1088 q 311 1107 311 1096 q 320 1129 313 1119 q 339 1140 328 1139 l 347 1140 q 414 1122 376 1140 q 451 1075 451 1104 l 450 1065 q 442 1060 446 1060 z "},"":{"ha":636,"x_min":42,"x_max":607,"o":"m 260 4 q 143 58 186 4 q 82 187 100 111 q 64 329 64 263 l 65 399 q 58 440 65 417 l 51 439 q 42 457 42 439 q 50 490 42 472 q 75 507 58 507 q 131 674 111 589 q 214 890 154 785 q 167 878 192 890 q 126 865 143 865 q 111 872 117 865 q 106 888 106 879 q 133 922 106 910 q 347 974 236 974 q 511 939 431 974 q 521 922 521 932 q 516 908 521 914 q 504 901 511 901 q 394 911 464 911 q 319 894 333 911 q 261 724 292 808 l 228 625 q 218 592 226 614 q 201 532 201 546 q 215 515 201 517 q 313 514 278 515 q 400 488 400 510 q 367 469 397 472 q 315 467 344 467 l 296 467 q 217 463 251 467 q 182 436 182 458 q 161 222 161 311 q 178 106 161 156 q 243 57 194 57 q 361 110 286 57 q 517 271 449 179 q 592 353 578 353 q 603 345 599 353 q 607 328 607 338 q 599 306 607 315 q 499 161 533 208 q 388 49 447 94 q 260 4 329 4 m 325 1060 q 335 1064 331 1060 q 345 1072 339 1068 q 366 1078 351 1075 q 399 1083 381 1082 q 438 1092 421 1088 q 456 1107 456 1096 q 419 1140 453 1139 q 353 1122 392 1140 q 315 1075 315 1104 l 317 1065 q 325 1060 321 1060 z "},"":{"ha":636,"x_min":42,"x_max":607,"o":"m 260 4 q 143 58 186 4 q 82 187 100 111 q 64 329 64 263 l 65 399 q 58 440 65 417 l 51 439 q 42 457 42 439 q 50 490 42 472 q 75 507 58 507 q 131 674 111 589 q 214 890 154 785 q 167 878 192 890 q 126 865 143 865 q 111 872 117 865 q 106 888 106 879 q 133 922 106 910 q 347 974 236 974 q 511 939 431 974 q 521 922 521 932 q 516 908 521 914 q 504 901 511 901 q 394 911 464 911 q 319 894 333 911 q 261 724 292 808 l 228 625 q 218 592 226 614 q 201 532 201 546 q 215 515 201 517 q 313 514 278 515 q 400 488 400 510 q 367 469 397 472 q 315 467 344 467 l 296 467 q 217 463 251 467 q 182 436 182 458 q 161 222 161 311 q 178 106 161 156 q 243 57 194 57 q 361 110 286 57 q 517 271 449 179 q 592 353 578 353 q 603 345 599 353 q 607 328 607 338 q 599 306 607 315 q 499 161 533 208 q 388 49 447 94 q 260 4 329 4 m 433 1065 l 431 1067 q 383 1094 408 1092 q 370 1092 381 1094 q 347 1084 360 1090 q 321 1067 333 1078 q 315 1069 318 1067 q 308 1074 311 1071 q 306 1082 306 1078 q 337 1119 311 1104 q 383 1135 363 1133 q 422 1121 397 1135 q 457 1088 453 1104 q 448 1072 457 1079 q 433 1065 439 1065 z "},"":{"ha":636,"x_min":42,"x_max":607,"o":"m 260 4 q 143 58 186 4 q 82 187 100 111 q 64 329 64 263 l 65 399 q 58 440 65 417 l 51 439 q 42 457 42 439 q 50 490 42 472 q 75 507 58 507 q 131 674 111 589 q 214 890 154 785 q 167 878 192 890 q 126 865 143 865 q 111 872 117 865 q 106 888 106 879 q 133 922 106 910 q 347 974 236 974 q 511 939 431 974 q 521 922 521 932 q 516 908 521 914 q 504 901 511 901 q 394 911 464 911 q 319 894 333 911 q 261 724 292 808 l 228 625 q 218 592 226 614 q 201 532 201 546 q 215 515 201 517 q 313 514 278 515 q 400 488 400 510 q 367 469 397 472 q 315 467 344 467 l 296 467 q 217 463 251 467 q 182 436 182 458 q 161 222 161 311 q 178 106 161 156 q 243 57 194 57 q 361 110 286 57 q 517 271 449 179 q 592 353 578 353 q 603 345 599 353 q 607 328 607 338 q 599 306 607 315 q 499 161 533 208 q 388 49 447 94 q 260 4 329 4 m 332 1064 q 312 1077 319 1064 q 304 1101 304 1090 q 328 1136 311 1136 q 351 1124 340 1136 q 363 1097 363 1113 q 349 1071 363 1083 q 332 1064 340 1064 m 407 1064 q 386 1078 394 1064 q 378 1103 378 1092 q 401 1136 385 1136 q 425 1124 414 1136 q 436 1097 436 1113 q 422 1071 436 1083 q 407 1064 414 1064 z "},"":{"ha":251,"x_min":42,"x_max":265,"o":"m 86 3 q 69 10 76 3 q 61 28 61 18 q 71 44 61 38 q 88 76 88 58 q 83 101 88 88 q 51 415 51 257 q 111 918 51 644 q 85 908 99 915 q 60 900 71 900 q 47 907 51 900 q 42 924 42 914 q 68 956 42 940 q 131 981 94 971 q 199 992 168 992 q 265 958 254 992 q 257 942 264 946 q 239 938 250 939 q 218 931 228 938 q 207 904 208 925 q 153 400 153 675 l 154 331 l 151 211 q 178 93 151 93 l 188 94 q 213 88 199 94 q 238 73 228 82 q 249 56 249 64 q 234 42 249 46 q 206 36 219 38 q 96 6 149 29 q 86 3 90 3 m 254 1060 q 244 1064 249 1060 q 234 1072 240 1068 q 213 1078 228 1075 q 181 1083 199 1082 q 141 1092 158 1088 q 124 1107 124 1096 q 133 1129 125 1119 q 151 1140 140 1139 l 160 1140 q 226 1122 189 1140 q 264 1075 264 1104 l 263 1065 q 254 1060 258 1060 z "},"":{"ha":251,"x_min":42,"x_max":265,"o":"m 86 3 q 69 10 76 3 q 61 28 61 18 q 71 44 61 38 q 88 76 88 58 q 83 101 88 88 q 51 415 51 257 q 111 918 51 644 q 85 908 99 915 q 60 900 71 900 q 47 907 51 900 q 42 924 42 914 q 68 956 42 940 q 131 981 94 971 q 199 992 168 992 q 265 958 254 992 q 257 942 264 946 q 239 938 250 939 q 218 931 228 938 q 207 904 208 925 q 153 400 153 675 l 154 331 l 151 211 q 178 93 151 93 l 188 94 q 213 88 199 94 q 238 73 228 82 q 249 56 249 64 q 234 42 249 46 q 206 36 219 38 q 96 6 149 29 q 86 3 90 3 m 132 1060 q 142 1064 138 1060 q 152 1072 146 1068 q 173 1078 158 1075 q 206 1083 188 1082 q 245 1092 228 1088 q 263 1107 263 1096 q 226 1140 260 1139 q 160 1122 199 1140 q 122 1075 122 1104 l 124 1065 q 132 1060 128 1060 z "},"":{"ha":251,"x_min":42,"x_max":276,"o":"m 86 3 q 69 10 76 3 q 61 28 61 18 q 71 44 61 38 q 88 76 88 58 q 83 101 88 88 q 51 415 51 257 q 111 918 51 644 q 85 908 99 915 q 60 900 71 900 q 47 907 51 900 q 42 924 42 914 q 68 956 42 940 q 131 981 94 971 q 199 992 168 992 q 265 958 254 992 q 257 942 264 946 q 239 938 250 939 q 218 931 228 938 q 207 904 208 925 q 153 400 153 675 l 154 331 l 151 211 q 178 93 151 93 l 188 94 q 213 88 199 94 q 238 73 228 82 q 249 56 249 64 q 234 42 249 46 q 206 36 219 38 q 96 6 149 29 q 86 3 90 3 m 253 1065 l 250 1067 q 203 1094 228 1092 q 190 1092 200 1094 q 166 1084 179 1090 q 140 1067 153 1078 q 134 1069 138 1067 q 128 1074 131 1071 q 125 1082 125 1078 q 156 1119 131 1104 q 203 1135 182 1133 q 242 1121 217 1135 q 276 1088 272 1104 q 267 1072 276 1079 q 253 1065 258 1065 z "},"":{"ha":251,"x_min":42,"x_max":265,"o":"m 86 3 q 69 10 76 3 q 61 28 61 18 q 71 44 61 38 q 88 76 88 58 q 83 101 88 88 q 51 415 51 257 q 111 918 51 644 q 85 908 99 915 q 60 900 71 900 q 47 907 51 900 q 42 924 42 914 q 68 956 42 940 q 131 981 94 971 q 199 992 168 992 q 265 958 254 992 q 257 942 264 946 q 239 938 250 939 q 218 931 228 938 q 207 904 208 925 q 153 400 153 675 l 154 331 l 151 211 q 178 93 151 93 l 188 94 q 213 88 199 94 q 238 73 228 82 q 249 56 249 64 q 234 42 249 46 q 206 36 219 38 q 96 6 149 29 q 86 3 90 3 m 226 1064 q 206 1078 214 1064 q 197 1103 197 1092 q 221 1136 204 1136 q 244 1124 233 1136 q 256 1097 256 1113 q 242 1071 256 1083 q 226 1064 233 1064 m 151 1064 q 131 1077 139 1064 q 124 1101 124 1090 q 147 1136 131 1136 q 171 1124 160 1136 q 182 1097 182 1113 q 168 1071 182 1083 q 151 1064 160 1064 z "},"":{"ha":675,"x_min":42,"x_max":640,"o":"m 596 -11 q 473 66 506 -4 q 440 246 440 136 q 471 538 440 354 l 485 626 q 503 810 503 742 q 432 946 503 946 l 413 943 q 278 793 333 925 q 195 479 224 661 q 167 144 167 297 q 174 11 167 69 q 172 -7 174 -3 q 161 -11 171 -11 l 142 -11 q 82 53 104 -11 q 51 217 60 117 q 42 426 42 317 q 53 692 42 569 q 76 856 64 815 q 106 889 85 889 q 145 869 125 889 q 165 825 165 849 q 164 813 165 818 q 144 472 144 643 l 144 421 l 160 510 q 219 774 178 643 q 367 979 261 906 q 458 1003 414 1003 q 586 947 532 1003 q 640 799 640 890 l 639 778 l 639 746 q 628 584 639 661 q 601 432 617 507 q 565 153 571 296 q 568 93 565 126 q 578 35 571 60 q 594 10 585 11 q 606 5 603 8 q 608 -1 608 1 q 596 -11 608 -11 m 431 1067 q 467 1081 447 1067 q 496 1094 488 1094 q 503 1090 500 1094 q 509 1081 507 1086 q 515 1076 511 1076 q 524 1081 519 1076 q 528 1096 528 1086 l 528 1101 q 489 1133 515 1133 q 460 1124 475 1133 q 424 1108 438 1108 q 404 1126 410 1108 q 396 1133 401 1133 q 385 1117 385 1133 q 400 1081 388 1094 q 431 1067 413 1067 z "},"":{"ha":558,"x_min":42,"x_max":528,"o":"m 268 -1 l 265 -1 q 157 56 197 -1 q 99 195 117 113 q 81 353 81 278 q 90 456 81 413 q 42 669 42 563 q 99 882 42 775 q 174 968 122 938 q 282 999 225 999 q 407 947 351 999 q 505 781 482 879 q 528 585 528 682 l 526 533 q 493 318 521 440 q 410 101 465 196 q 268 -1 356 7 m 288 46 q 367 102 332 46 q 428 244 403 158 q 468 426 454 331 q 482 601 482 522 q 478 681 482 646 q 406 879 454 818 q 304 940 357 940 q 186 865 239 940 q 133 665 133 789 q 142 574 133 622 l 149 589 q 180 649 161 619 q 226 679 199 679 q 290 629 253 679 l 292 611 q 263 521 292 578 q 233 436 240 478 q 231 422 231 429 q 256 389 231 400 q 306 378 281 378 q 328 381 318 378 q 421 442 383 397 q 431 449 426 449 q 436 446 436 447 q 436 442 436 444 q 415 406 436 426 q 306 350 358 350 q 256 360 281 350 q 224 368 236 368 q 202 341 206 368 q 199 279 199 314 q 218 133 199 208 q 276 47 238 57 l 288 46 m 343 1060 q 333 1064 338 1060 q 323 1072 329 1068 q 302 1078 317 1075 q 269 1083 288 1082 q 230 1092 247 1088 q 213 1107 213 1096 q 222 1129 214 1119 q 240 1140 229 1139 l 249 1140 q 315 1122 278 1140 q 353 1075 353 1104 l 351 1065 q 343 1060 347 1060 z "},"":{"ha":558,"x_min":42,"x_max":528,"o":"m 268 -1 l 265 -1 q 157 56 197 -1 q 99 195 117 113 q 81 353 81 278 q 90 456 81 413 q 42 669 42 563 q 99 882 42 775 q 174 968 122 938 q 282 999 225 999 q 407 947 351 999 q 505 781 482 879 q 528 585 528 682 l 526 533 q 493 318 521 440 q 410 101 465 196 q 268 -1 356 7 m 288 46 q 367 102 332 46 q 428 244 403 158 q 468 426 454 331 q 482 601 482 522 q 478 681 482 646 q 406 879 454 818 q 304 940 357 940 q 186 865 239 940 q 133 665 133 789 q 142 574 133 622 l 149 589 q 180 649 161 619 q 226 679 199 679 q 290 629 253 679 l 292 611 q 263 521 292 578 q 233 436 240 478 q 231 422 231 429 q 256 389 231 400 q 306 378 281 378 q 328 381 318 378 q 421 442 383 397 q 431 449 426 449 q 436 446 436 447 q 436 442 436 444 q 415 406 436 426 q 306 350 358 350 q 256 360 281 350 q 224 368 236 368 q 202 341 206 368 q 199 279 199 314 q 218 133 199 208 q 276 47 238 57 l 288 46 m 242 1060 q 251 1064 247 1060 q 262 1072 256 1068 q 283 1078 268 1075 q 315 1083 297 1082 q 355 1092 338 1088 q 372 1107 372 1096 q 336 1140 369 1139 q 270 1122 308 1140 q 232 1075 232 1104 l 233 1065 q 242 1060 238 1060 z "},"":{"ha":558,"x_min":42,"x_max":528,"o":"m 268 -1 l 265 -1 q 157 56 197 -1 q 99 195 117 113 q 81 353 81 278 q 90 456 81 413 q 42 669 42 563 q 99 882 42 775 q 174 968 122 938 q 282 999 225 999 q 407 947 351 999 q 505 781 482 879 q 528 585 528 682 l 526 533 q 493 318 521 440 q 410 101 465 196 q 268 -1 356 7 m 288 46 q 367 102 332 46 q 428 244 403 158 q 468 426 454 331 q 482 601 482 522 q 478 681 482 646 q 406 879 454 818 q 304 940 357 940 q 186 865 239 940 q 133 665 133 789 q 142 574 133 622 l 149 589 q 180 649 161 619 q 226 679 199 679 q 290 629 253 679 l 292 611 q 263 521 292 578 q 233 436 240 478 q 231 422 231 429 q 256 389 231 400 q 306 378 281 378 q 328 381 318 378 q 421 442 383 397 q 431 449 426 449 q 436 446 436 447 q 436 442 436 444 q 415 406 436 426 q 306 350 358 350 q 256 360 281 350 q 224 368 236 368 q 202 341 206 368 q 199 279 199 314 q 218 133 199 208 q 276 47 238 57 l 288 46 m 358 1065 l 356 1067 q 308 1094 333 1092 q 295 1092 306 1094 q 272 1084 285 1090 q 246 1067 258 1078 q 240 1069 243 1067 q 233 1074 236 1071 q 231 1082 231 1078 q 262 1119 236 1104 q 308 1135 288 1133 q 347 1121 322 1135 q 382 1088 378 1104 q 373 1072 382 1079 q 358 1065 364 1065 z "},"":{"ha":558,"x_min":42,"x_max":528,"o":"m 268 -1 l 265 -1 q 157 56 197 -1 q 99 195 117 113 q 81 353 81 278 q 90 456 81 413 q 42 669 42 563 q 99 882 42 775 q 174 968 122 938 q 282 999 225 999 q 407 947 351 999 q 505 781 482 879 q 528 585 528 682 l 526 533 q 493 318 521 440 q 410 101 465 196 q 268 -1 356 7 m 288 46 q 367 102 332 46 q 428 244 403 158 q 468 426 454 331 q 482 601 482 522 q 478 681 482 646 q 406 879 454 818 q 304 940 357 940 q 186 865 239 940 q 133 665 133 789 q 142 574 133 622 l 149 589 q 180 649 161 619 q 226 679 199 679 q 290 629 253 679 l 292 611 q 263 521 292 578 q 233 436 240 478 q 231 422 231 429 q 256 389 231 400 q 306 378 281 378 q 328 381 318 378 q 421 442 383 397 q 431 449 426 449 q 436 446 436 447 q 436 442 436 444 q 415 406 436 426 q 306 350 358 350 q 256 360 281 350 q 224 368 236 368 q 202 341 206 368 q 199 279 199 314 q 218 133 199 208 q 276 47 238 57 l 288 46 m 281 1067 q 317 1081 297 1067 q 346 1094 338 1094 q 353 1090 350 1094 q 359 1081 357 1086 q 365 1076 361 1076 q 374 1081 369 1076 q 378 1096 378 1086 l 378 1101 q 339 1133 365 1133 q 310 1124 325 1133 q 274 1108 288 1108 q 254 1126 260 1108 q 246 1133 251 1133 q 235 1117 235 1133 q 250 1081 238 1094 q 281 1067 263 1067 z "},"":{"ha":558,"x_min":42,"x_max":528,"o":"m 268 -1 l 265 -1 q 157 56 197 -1 q 99 195 117 113 q 81 353 81 278 q 90 456 81 413 q 42 669 42 563 q 99 882 42 775 q 174 968 122 938 q 282 999 225 999 q 407 947 351 999 q 505 781 482 879 q 528 585 528 682 l 526 533 q 493 318 521 440 q 410 101 465 196 q 268 -1 356 7 m 288 46 q 367 102 332 46 q 428 244 403 158 q 468 426 454 331 q 482 601 482 522 q 478 681 482 646 q 406 879 454 818 q 304 940 357 940 q 186 865 239 940 q 133 665 133 789 q 142 574 133 622 l 149 589 q 180 649 161 619 q 226 679 199 679 q 290 629 253 679 l 292 611 q 263 521 292 578 q 233 436 240 478 q 231 422 231 429 q 256 389 231 400 q 306 378 281 378 q 328 381 318 378 q 421 442 383 397 q 431 449 426 449 q 436 446 436 447 q 436 442 436 444 q 415 406 436 426 q 306 350 358 350 q 256 360 281 350 q 224 368 236 368 q 202 341 206 368 q 199 279 199 314 q 218 133 199 208 q 276 47 238 57 l 288 46 m 336 1064 q 315 1078 324 1064 q 307 1103 307 1092 q 331 1136 314 1136 q 354 1124 343 1136 q 365 1097 365 1113 q 351 1071 365 1083 q 336 1064 343 1064 m 261 1064 q 241 1077 249 1064 q 233 1101 233 1090 q 257 1136 240 1136 q 281 1124 269 1136 q 292 1097 292 1113 q 278 1071 292 1083 q 261 1064 269 1064 z "},"":{"ha":265,"x_min":42,"x_max":224,"o":"m 74 365 q 58 390 61 365 q 64 412 58 403 q 77 431 69 421 q 85 449 85 440 q 72 464 85 457 q 50 487 58 471 q 42 518 42 503 q 44 535 42 529 q 56 543 46 542 q 90 524 68 543 q 121 504 111 504 q 151 526 131 504 q 194 557 178 557 q 213 532 211 557 q 186 488 213 510 q 171 465 171 474 q 201 433 171 453 q 224 407 224 418 q 220 396 224 401 q 211 390 217 390 q 178 406 204 390 q 138 422 151 422 q 116 412 126 422 q 85 375 106 401 q 74 365 79 365 z "},"":{"ha":558,"x_min":42,"x_max":540,"o":"m 240 365 q 224 368 231 368 q 202 341 206 368 q 199 279 199 314 q 200 235 199 257 q 240 365 218 301 m 493 819 q 506 781 500 801 q 528 585 528 682 l 526 533 q 493 318 521 440 q 410 101 465 196 q 268 -1 356 7 l 265 -1 q 193 19 224 -1 q 182 -18 188 0 q 167 -50 178 -50 q 153 -39 160 -50 q 147 -10 147 -28 l 147 -6 q 158 54 153 25 q 157 56 157 54 q 99 195 117 113 q 81 353 81 278 q 90 456 81 413 q 42 669 42 563 q 99 882 42 775 q 174 968 122 938 q 282 999 225 999 q 407 947 351 999 q 457 890 436 921 q 492 963 474 926 q 497 972 494 968 q 499 978 499 975 q 505 992 501 986 q 515 999 508 999 q 532 984 524 999 q 540 954 540 969 q 531 910 540 933 q 511 864 522 886 q 496 825 501 842 l 493 819 m 224 115 q 276 47 242 56 l 288 46 q 367 102 332 46 q 428 244 403 158 q 468 426 454 331 q 482 601 482 522 q 478 681 482 646 q 463 751 471 719 q 311 378 382 569 q 328 381 321 378 q 421 442 383 397 q 426 447 424 444 q 431 449 428 449 l 432 449 q 434 447 433 447 q 435 447 435 447 q 436 444 436 446 l 436 442 q 415 406 436 426 q 368 369 394 385 q 326 353 342 353 l 325 353 q 306 350 315 350 l 301 350 q 297 340 299 346 q 224 115 258 228 m 249 393 q 289 499 267 446 q 432 836 357 671 q 406 879 419 861 q 304 940 357 940 q 186 865 239 940 q 133 665 133 789 q 142 574 133 622 q 149 589 144 581 q 180 649 161 619 q 226 679 199 679 q 290 629 253 679 q 292 611 292 619 q 283 566 292 589 q 263 521 275 543 q 233 436 240 478 q 231 422 231 429 q 249 393 231 403 z "},"":{"ha":578,"x_min":42,"x_max":563,"o":"m 197 0 l 194 0 q 101 60 133 0 q 55 217 68 121 q 42 424 42 314 q 52 660 42 544 q 73 851 63 775 q 86 933 83 926 q 125 972 99 960 q 178 983 151 983 q 219 975 201 983 q 236 951 236 967 l 235 944 q 181 635 201 813 q 161 308 161 457 q 174 129 161 200 q 213 58 186 58 q 252 85 231 58 q 300 179 274 111 q 365 438 340 297 q 406 707 389 579 q 454 974 428 899 q 497 1003 471 1003 q 542 984 521 1003 q 563 938 563 965 l 563 929 q 513 603 533 799 q 493 253 493 408 q 515 49 493 103 q 521 26 521 38 q 511 11 521 18 q 443 72 469 15 q 405 206 417 128 q 393 350 393 285 l 393 378 q 352 235 381 322 q 284 76 324 147 q 197 0 244 6 m 410 1060 q 400 1064 404 1060 q 390 1072 396 1068 q 369 1078 383 1075 q 336 1083 354 1082 q 297 1092 314 1088 q 279 1107 279 1096 q 288 1129 281 1119 q 307 1140 296 1139 l 315 1140 q 382 1122 344 1140 q 419 1075 419 1104 l 418 1065 q 410 1060 414 1060 z "},"":{"ha":578,"x_min":42,"x_max":563,"o":"m 197 0 l 194 0 q 101 60 133 0 q 55 217 68 121 q 42 424 42 314 q 52 660 42 544 q 73 851 63 775 q 86 933 83 926 q 125 972 99 960 q 178 983 151 983 q 219 975 201 983 q 236 951 236 967 l 235 944 q 181 635 201 813 q 161 308 161 457 q 174 129 161 200 q 213 58 186 58 q 252 85 231 58 q 300 179 274 111 q 365 438 340 297 q 406 707 389 579 q 454 974 428 899 q 497 1003 471 1003 q 542 984 521 1003 q 563 938 563 965 l 563 929 q 513 603 533 799 q 493 253 493 408 q 515 49 493 103 q 521 26 521 38 q 511 11 521 18 q 443 72 469 15 q 405 206 417 128 q 393 350 393 285 l 393 378 q 352 235 381 322 q 284 76 324 147 q 197 0 244 6 m 290 1060 q 300 1064 296 1060 q 310 1072 304 1068 q 331 1078 317 1075 q 364 1083 346 1082 q 403 1092 386 1088 q 421 1107 421 1096 q 385 1140 418 1139 q 319 1122 357 1140 q 281 1075 281 1104 l 282 1065 q 290 1060 286 1060 z "},"":{"ha":578,"x_min":42,"x_max":563,"o":"m 197 0 l 194 0 q 101 60 133 0 q 55 217 68 121 q 42 424 42 314 q 52 660 42 544 q 73 851 63 775 q 86 933 83 926 q 125 972 99 960 q 178 983 151 983 q 219 975 201 983 q 236 951 236 967 l 235 944 q 181 635 201 813 q 161 308 161 457 q 174 129 161 200 q 213 58 186 58 q 252 85 231 58 q 300 179 274 111 q 365 438 340 297 q 406 707 389 579 q 454 974 428 899 q 497 1003 471 1003 q 542 984 521 1003 q 563 938 563 965 l 563 929 q 513 603 533 799 q 493 253 493 408 q 515 49 493 103 q 521 26 521 38 q 511 11 521 18 q 443 72 469 15 q 405 206 417 128 q 393 350 393 285 l 393 378 q 352 235 381 322 q 284 76 324 147 q 197 0 244 6 m 408 1065 l 406 1067 q 358 1094 383 1092 q 345 1092 356 1094 q 322 1084 335 1090 q 296 1067 308 1078 q 290 1069 293 1067 q 283 1074 286 1071 q 281 1082 281 1078 q 312 1119 286 1104 q 358 1135 338 1133 q 397 1121 372 1135 q 432 1088 428 1104 q 423 1072 432 1079 q 408 1065 414 1065 z "},"":{"ha":578,"x_min":42,"x_max":563,"o":"m 197 0 l 194 0 q 101 60 133 0 q 55 217 68 121 q 42 424 42 314 q 52 660 42 544 q 73 851 63 775 q 86 933 83 926 q 125 972 99 960 q 178 983 151 983 q 219 975 201 983 q 236 951 236 967 l 235 944 q 181 635 201 813 q 161 308 161 457 q 174 129 161 200 q 213 58 186 58 q 252 85 231 58 q 300 179 274 111 q 365 438 340 297 q 406 707 389 579 q 454 974 428 899 q 497 1003 471 1003 q 542 984 521 1003 q 563 938 563 965 l 563 929 q 513 603 533 799 q 493 253 493 408 q 515 49 493 103 q 521 26 521 38 q 511 11 521 18 q 443 72 469 15 q 405 206 417 128 q 393 350 393 285 l 393 378 q 352 235 381 322 q 284 76 324 147 q 197 0 244 6 m 397 1064 q 376 1078 385 1064 q 368 1103 368 1092 q 392 1136 375 1136 q 415 1124 404 1136 q 426 1097 426 1113 q 413 1071 426 1083 q 397 1064 404 1064 m 322 1064 q 302 1077 310 1064 q 294 1101 294 1090 q 318 1136 301 1136 q 342 1124 331 1136 q 353 1097 353 1113 q 339 1071 353 1083 q 322 1064 331 1064 z "},"":{"ha":653,"x_min":42,"x_max":650,"o":"m 271 -154 l 268 -154 q 204 -112 232 -154 q 176 -25 176 -69 q 231 102 176 43 q 365 161 286 161 q 435 147 399 161 q 492 362 475 199 q 510 679 510 525 q 503 856 510 783 q 486 928 497 928 l 485 926 q 407 640 439 808 q 362 451 386 538 q 306 322 338 364 q 276 298 299 307 q 222 289 253 289 q 137 311 178 289 q 69 396 96 333 q 42 582 42 458 q 119 904 42 779 q 163 924 138 924 q 216 905 190 924 q 242 857 242 886 q 238 836 242 847 q 210 731 221 814 q 199 556 199 647 q 212 402 199 469 q 257 335 225 335 q 278 343 267 335 q 315 425 297 356 q 350 590 332 494 q 411 851 376 729 q 521 999 453 999 q 619 913 589 999 q 650 700 650 828 q 602 331 650 529 q 469 -8 554 132 q 271 -154 383 -147 m 256 -108 q 312 -73 281 -108 q 369 6 343 -37 q 404 78 394 50 q 411 100 411 92 q 383 118 411 118 q 304 102 342 118 q 241 53 267 86 q 215 -29 215 21 q 256 -108 224 -108 m 294 1060 q 304 1064 300 1060 q 315 1072 308 1068 q 335 1078 321 1075 q 368 1083 350 1082 q 408 1092 390 1088 q 425 1107 425 1096 q 389 1140 422 1139 q 323 1122 361 1140 q 285 1075 285 1104 l 286 1065 q 294 1060 290 1060 z "},"":{"ha":653,"x_min":42,"x_max":650,"o":"m 271 -154 l 268 -154 q 204 -112 232 -154 q 176 -25 176 -69 q 231 102 176 43 q 365 161 286 161 q 435 147 399 161 q 492 362 475 199 q 510 679 510 525 q 503 856 510 783 q 486 928 497 928 l 485 926 q 407 640 439 808 q 362 451 386 538 q 306 322 338 364 q 276 298 299 307 q 222 289 253 289 q 137 311 178 289 q 69 396 96 333 q 42 582 42 458 q 119 904 42 779 q 163 924 138 924 q 216 905 190 924 q 242 857 242 886 q 238 836 242 847 q 210 731 221 814 q 199 556 199 647 q 212 402 199 469 q 257 335 225 335 q 278 343 267 335 q 315 425 297 356 q 350 590 332 494 q 411 851 376 729 q 521 999 453 999 q 619 913 589 999 q 650 700 650 828 q 602 331 650 529 q 469 -8 554 132 q 271 -154 383 -147 m 256 -108 q 312 -73 281 -108 q 369 6 343 -37 q 404 78 394 50 q 411 100 411 92 q 383 118 411 118 q 304 102 342 118 q 241 53 267 86 q 215 -29 215 21 q 256 -108 224 -108 m 382 1064 q 361 1078 369 1064 q 353 1103 353 1092 q 376 1136 360 1136 q 400 1124 389 1136 q 411 1097 411 1113 q 397 1071 411 1083 q 382 1064 389 1064 m 307 1064 q 287 1077 294 1064 q 279 1101 279 1090 q 303 1136 286 1136 q 326 1124 315 1136 q 338 1097 338 1113 q 324 1071 338 1083 q 307 1064 315 1064 z "},"":{"ha":450,"x_min":42,"x_max":408,"o":"m 88 89 q 42 254 42 104 q 56 460 42 354 q 81 607 71 565 q 162 756 113 711 q 258 801 211 801 q 338 767 304 801 q 371 681 371 733 q 303 538 371 608 q 383 466 358 514 q 408 363 408 418 q 372 231 408 292 q 275 171 335 171 q 156 239 221 171 q 154 240 156 240 q 147 260 147 251 q 151 267 147 264 q 158 271 154 271 q 165 268 163 271 q 233 233 194 233 q 282 250 261 233 q 349 401 349 307 l 347 425 q 310 460 338 450 q 240 469 283 469 q 204 511 210 469 q 215 535 204 524 q 240 558 225 546 q 293 609 268 576 q 321 701 318 642 q 310 728 321 719 q 285 736 299 736 q 226 713 250 736 q 122 528 142 635 q 106 336 106 436 l 106 271 q 88 89 106 174 z "},"":{"ha":447,"x_min":-3,"x_max":471,"o":"m 319 0 l 317 0 q 254 36 281 0 q 219 119 228 72 q 179 47 204 69 q 126 25 154 25 q 28 84 58 33 q -3 208 -3 135 q 22 344 -3 276 q 94 458 47 413 q 201 503 140 503 q 269 488 233 503 q 278 485 275 485 q 285 490 282 485 q 331 521 301 521 q 358 512 346 521 q 369 486 369 503 q 342 369 368 461 q 312 250 325 310 q 299 131 299 190 q 328 28 299 33 q 413 156 361 28 q 436 224 429 199 q 461 260 444 260 q 471 249 471 260 q 439 149 468 228 q 319 0 386 10 m 129 57 q 196 167 157 57 q 219 261 210 208 q 263 444 236 354 l 268 457 q 264 464 268 461 q 171 401 207 454 q 117 275 135 347 q 100 144 100 203 q 107 83 100 108 q 129 57 114 58 m 293 618 q 283 622 288 618 q 273 630 279 626 q 252 637 267 633 q 219 642 238 640 q 180 650 197 646 q 163 665 163 654 q 172 688 164 678 q 190 699 179 697 l 199 699 q 265 681 228 699 q 303 633 303 663 l 301 624 q 293 618 297 618 z "},"":{"ha":447,"x_min":-3,"x_max":471,"o":"m 319 0 l 317 0 q 254 36 281 0 q 219 119 228 72 q 179 47 204 69 q 126 25 154 25 q 28 84 58 33 q -3 208 -3 135 q 22 344 -3 276 q 94 458 47 413 q 201 503 140 503 q 269 488 233 503 q 278 485 275 485 q 285 490 282 485 q 331 521 301 521 q 358 512 346 521 q 369 486 369 503 q 342 369 368 461 q 312 250 325 310 q 299 131 299 190 q 328 28 299 33 q 413 156 361 28 q 436 224 429 199 q 461 260 444 260 q 471 249 471 260 q 439 149 468 228 q 319 0 386 10 m 129 57 q 196 167 157 57 q 219 261 210 208 q 263 444 236 354 l 268 457 q 264 464 268 461 q 171 401 207 454 q 117 275 135 347 q 100 144 100 203 q 107 83 100 108 q 129 57 114 58 m 189 618 q 199 622 194 618 q 209 630 203 626 q 230 637 215 633 q 263 642 244 640 q 302 650 285 646 q 319 665 319 654 q 283 699 317 697 q 217 681 256 699 q 179 633 179 663 l 181 624 q 189 618 185 618 z "},"":{"ha":447,"x_min":-3,"x_max":471,"o":"m 319 0 l 317 0 q 254 36 281 0 q 219 119 228 72 q 179 47 204 69 q 126 25 154 25 q 28 84 58 33 q -3 208 -3 135 q 22 344 -3 276 q 94 458 47 413 q 201 503 140 503 q 269 488 233 503 q 278 485 275 485 q 285 490 282 485 q 331 521 301 521 q 358 512 346 521 q 369 486 369 503 q 342 369 368 461 q 312 250 325 310 q 299 131 299 190 q 328 28 299 33 q 413 156 361 28 q 436 224 429 199 q 461 260 444 260 q 471 249 471 260 q 439 149 468 228 q 319 0 386 10 m 129 57 q 196 167 157 57 q 219 261 210 208 q 263 444 236 354 l 268 457 q 264 464 268 461 q 171 401 207 454 q 117 275 135 347 q 100 144 100 203 q 107 83 100 108 q 129 57 114 58 m 300 624 l 297 625 q 250 653 275 650 q 237 651 247 653 q 213 642 226 649 q 188 625 200 636 q 181 627 185 625 q 175 633 178 629 q 172 640 172 636 q 203 677 178 663 q 250 693 229 692 q 289 679 264 693 q 324 646 319 663 q 315 631 324 638 q 300 624 306 624 z "},"":{"ha":447,"x_min":-3,"x_max":471,"o":"m 319 0 l 317 0 q 254 36 281 0 q 219 119 228 72 q 179 47 204 69 q 126 25 154 25 q 28 84 58 33 q -3 208 -3 135 q 22 344 -3 276 q 94 458 47 413 q 201 503 140 503 q 269 488 233 503 q 278 485 275 485 q 285 490 282 485 q 331 521 301 521 q 358 512 346 521 q 369 486 369 503 q 342 369 368 461 q 312 250 325 310 q 299 131 299 190 q 328 28 299 33 q 413 156 361 28 q 436 224 429 199 q 461 260 444 260 q 471 249 471 260 q 439 149 468 228 q 319 0 386 10 m 129 57 q 196 167 157 57 q 219 261 210 208 q 263 444 236 354 l 268 457 q 264 464 268 461 q 171 401 207 454 q 117 275 135 347 q 100 144 100 203 q 107 83 100 108 q 129 57 114 58 m 207 625 q 244 639 224 625 q 272 653 264 653 q 280 649 276 653 q 285 640 283 644 q 292 635 288 635 q 300 640 296 635 q 304 654 304 644 l 304 660 q 265 692 292 692 q 236 682 251 692 q 200 667 214 667 q 181 685 186 667 q 172 692 178 692 q 161 675 161 692 q 176 639 164 653 q 207 625 189 625 z "},"":{"ha":447,"x_min":-3,"x_max":471,"o":"m 319 0 l 317 0 q 254 36 281 0 q 219 119 228 72 q 179 47 204 69 q 126 25 154 25 q 28 84 58 33 q -3 208 -3 135 q 22 344 -3 276 q 94 458 47 413 q 201 503 140 503 q 269 488 233 503 q 278 485 275 485 q 285 490 282 485 q 331 521 301 521 q 358 512 346 521 q 369 486 369 503 q 342 369 368 461 q 312 250 325 310 q 299 131 299 190 q 328 28 299 33 q 413 156 361 28 q 436 224 429 199 q 461 260 444 260 q 471 249 471 260 q 439 149 468 228 q 319 0 386 10 m 129 57 q 196 167 157 57 q 219 261 210 208 q 263 444 236 354 l 268 457 q 264 464 268 461 q 171 401 207 454 q 117 275 135 347 q 100 144 100 203 q 107 83 100 108 q 129 57 114 58 m 275 622 q 254 636 263 622 q 246 661 246 650 q 269 694 253 694 q 293 683 282 694 q 304 656 304 671 q 290 629 304 642 q 275 622 282 622 m 200 622 q 180 635 188 622 q 172 660 172 649 q 196 694 179 694 q 219 683 208 694 q 231 656 231 671 q 217 629 231 642 q 200 622 208 622 z "},"":{"ha":447,"x_min":-3,"x_max":471,"o":"m 319 0 l 317 0 q 254 36 281 0 q 219 119 228 72 q 179 47 204 69 q 126 25 154 25 q 28 84 58 33 q -3 208 -3 135 q 22 344 -3 276 q 94 458 47 413 q 201 503 140 503 q 269 488 233 503 q 278 485 275 485 q 285 490 282 485 q 331 521 301 521 q 358 512 346 521 q 369 486 369 503 q 342 369 368 461 q 312 250 325 310 q 299 131 299 190 q 328 28 299 33 q 413 156 361 28 q 436 224 429 199 q 461 260 444 260 q 471 249 471 260 q 439 149 468 228 q 319 0 386 10 m 129 57 q 196 167 157 57 q 219 261 210 208 q 263 444 236 354 l 268 457 q 264 464 268 461 q 171 401 207 454 q 117 275 135 347 q 100 144 100 203 q 107 83 100 108 q 129 57 114 58 m 231 626 q 243 632 236 626 q 254 656 254 643 q 245 678 254 668 q 226 688 236 688 q 206 658 211 688 q 213 638 206 649 q 231 626 219 626 m 229 603 q 188 623 204 603 q 172 661 172 643 q 219 714 179 714 q 266 695 244 714 q 288 654 288 676 q 260 613 288 632 q 229 603 243 603 z "},"":{"ha":544,"x_min":-3,"x_max":567,"o":"m 356 4 q 262 43 301 4 q 219 119 222 82 q 126 25 190 25 q -3 208 -3 40 q 22 344 -3 276 q 94 458 47 413 q 201 503 140 503 q 269 488 233 503 q 278 485 275 485 q 282 487 281 485 q 285 491 283 489 q 289 496 288 493 q 331 521 306 521 q 357 513 346 521 q 406 518 378 518 q 469 504 439 518 q 500 433 500 475 q 452 340 500 396 q 315 267 404 285 l 314 261 q 303 153 303 194 q 322 66 303 93 q 369 39 342 39 q 464 94 414 39 q 542 243 514 150 q 556 260 547 260 q 567 246 567 260 l 567 240 q 529 135 556 190 q 378 6 465 6 l 356 4 m 322 297 q 421 366 388 314 q 454 450 454 418 q 439 481 454 481 q 347 378 389 481 q 322 297 335 347 m 129 57 q 163 92 144 57 q 210 211 190 144 q 207 260 207 235 q 240 403 211 326 q 267 453 249 425 q 268 457 268 454 q 264 464 268 461 q 171 401 207 454 q 117 275 135 347 q 100 144 100 203 q 108 83 100 108 q 129 57 115 57 z "},"":{"ha":338,"x_min":0,"x_max":360,"o":"m 151 4 q 86 38 119 10 q 0 256 0 101 q 34 408 4 324 q 140 525 64 493 q 178 532 160 532 q 257 489 226 532 q 288 396 288 446 l 288 383 q 285 366 288 372 q 276 360 283 360 q 268 364 272 360 q 264 375 264 368 l 265 414 q 259 451 265 433 q 233 476 253 469 l 232 476 q 166 431 193 476 q 124 331 139 386 q 104 240 108 275 q 94 150 94 188 q 114 62 94 89 q 163 35 133 35 q 256 90 206 35 q 335 239 307 146 q 347 256 339 256 q 356 251 353 256 q 360 240 360 247 q 357 229 360 236 q 322 129 347 182 q 257 39 296 76 q 190 3 226 10 q 192 -1 192 1 q 197 -18 193 -10 q 204 -24 200 -22 q 214 -26 208 -25 q 226 -30 221 -28 q 236 -36 232 -32 q 253 -85 253 -57 q 233 -136 253 -114 q 225 -144 229 -139 q 205 -160 215 -153 q 183 -168 194 -168 q 171 -165 176 -168 q 165 -154 165 -161 q 172 -139 165 -147 q 186 -122 178 -131 q 206 -98 197 -111 q 215 -71 215 -85 l 215 -67 q 190 -75 204 -67 q 168 -82 178 -82 q 155 -69 160 -82 q 150 -15 150 -56 q 151 4 150 -6 z "},"":{"ha":338,"x_min":0,"x_max":360,"o":"m 171 6 q 86 42 132 6 q 0 260 0 106 q 138 508 13 460 q 199 518 163 518 q 263 504 232 518 q 293 433 293 475 q 245 340 293 396 q 108 267 197 285 q 96 153 96 196 q 115 66 96 93 q 163 39 135 39 q 257 94 207 39 q 335 243 307 150 q 349 260 340 260 q 356 256 353 260 q 360 246 360 253 q 357 233 360 238 q 322 134 347 186 q 257 44 296 82 q 171 6 218 6 m 114 297 q 214 365 181 313 q 247 450 247 418 q 232 481 247 479 q 181 450 204 481 q 140 378 157 419 q 114 297 124 336 m 257 618 q 247 622 251 618 q 237 630 243 626 q 216 637 231 633 q 183 642 201 640 q 144 650 161 646 q 126 665 126 654 q 135 688 128 678 q 154 699 143 697 l 163 699 q 229 681 192 699 q 267 633 267 663 l 265 624 q 257 618 261 618 z "},"":{"ha":338,"x_min":0,"x_max":360,"o":"m 171 6 q 86 42 132 6 q 0 260 0 106 q 138 508 13 460 q 199 518 163 518 q 263 504 232 518 q 293 433 293 475 q 245 340 293 396 q 108 267 197 285 q 96 153 96 196 q 115 66 96 93 q 163 39 135 39 q 257 94 207 39 q 335 243 307 150 q 349 260 340 260 q 356 256 353 260 q 360 246 360 253 q 357 233 360 238 q 322 134 347 186 q 257 44 296 82 q 171 6 218 6 m 114 297 q 214 365 181 313 q 247 450 247 418 q 232 481 247 479 q 181 450 204 481 q 140 378 157 419 q 114 297 124 336 m 131 618 q 140 622 136 618 q 151 630 144 626 q 172 637 157 633 q 204 642 186 640 q 244 650 226 646 q 261 665 261 654 q 225 699 258 697 q 159 681 197 699 q 121 633 121 663 l 122 624 q 131 618 126 618 z "},"":{"ha":338,"x_min":0,"x_max":360,"o":"m 171 6 q 86 42 132 6 q 0 260 0 106 q 138 508 13 460 q 199 518 163 518 q 263 504 232 518 q 293 433 293 475 q 245 340 293 396 q 108 267 197 285 q 96 153 96 196 q 115 66 96 93 q 163 39 135 39 q 257 94 207 39 q 335 243 307 150 q 349 260 340 260 q 356 256 353 260 q 360 246 360 253 q 357 233 360 238 q 322 134 347 186 q 257 44 296 82 q 171 6 218 6 m 114 297 q 214 365 181 313 q 247 450 247 418 q 232 481 247 479 q 181 450 204 481 q 140 378 157 419 q 114 297 124 336 m 251 624 l 249 625 q 201 653 226 650 q 188 651 199 653 q 165 642 178 649 q 139 625 151 636 q 133 627 136 625 q 126 633 129 629 q 124 640 124 636 q 155 677 129 663 q 201 693 181 692 q 240 679 215 693 q 275 646 271 663 q 266 631 275 638 q 251 624 257 624 z "},"":{"ha":338,"x_min":0,"x_max":360,"o":"m 171 6 q 86 42 132 6 q 0 260 0 106 q 138 508 13 460 q 199 518 163 518 q 263 504 232 518 q 293 433 293 475 q 245 340 293 396 q 108 267 197 285 q 96 153 96 196 q 115 66 96 93 q 163 39 135 39 q 257 94 207 39 q 335 243 307 150 q 349 260 340 260 q 356 256 353 260 q 360 246 360 253 q 357 233 360 238 q 322 134 347 186 q 257 44 296 82 q 171 6 218 6 m 114 297 q 214 365 181 313 q 247 450 247 418 q 232 481 247 479 q 181 450 204 481 q 140 378 157 419 q 114 297 124 336 m 228 622 q 207 636 215 622 q 199 661 199 650 q 222 694 206 694 q 246 683 235 694 q 257 656 257 671 q 243 629 257 642 q 228 622 235 622 m 153 622 q 133 635 140 622 q 125 660 125 649 q 149 694 132 694 q 172 683 161 694 q 183 656 183 671 q 169 629 183 642 q 153 622 161 622 z "},"":{"ha":253,"x_min":0,"x_max":265,"o":"m 100 -3 q 40 35 61 -3 q 9 128 18 72 q 0 236 0 183 q 19 436 0 350 q 68 506 36 506 q 105 482 86 506 q 124 426 124 458 l 119 393 q 101 163 101 243 q 139 39 101 44 q 179 77 157 39 q 222 163 201 115 q 253 246 242 211 q 258 251 256 251 q 265 244 265 251 l 264 238 q 100 -3 219 14 m 150 618 q 140 622 144 618 q 130 630 136 626 q 109 637 124 633 q 76 642 94 640 q 37 650 54 646 q 19 665 19 654 q 28 688 21 678 q 47 699 36 697 l 56 699 q 122 681 85 699 q 160 633 160 663 l 158 624 q 150 618 154 618 z "},"":{"ha":253,"x_min":0,"x_max":265,"o":"m 100 -3 q 40 35 61 -3 q 9 128 18 72 q 0 236 0 183 q 19 436 0 350 q 68 506 36 506 q 105 482 86 506 q 124 426 124 458 l 119 393 q 101 163 101 243 q 139 39 101 44 q 179 77 157 39 q 222 163 201 115 q 253 246 242 211 q 258 251 256 251 q 265 244 265 251 l 264 238 q 100 -3 219 14 m 15 618 q 25 622 21 618 q 35 630 29 626 q 56 637 42 633 q 89 642 71 640 q 128 650 111 646 q 146 665 146 654 q 110 699 143 697 q 44 681 82 699 q 6 633 6 663 l 7 624 q 15 618 11 618 z "},"":{"ha":253,"x_min":0,"x_max":265,"o":"m 100 -3 q 40 35 61 -3 q 9 128 18 72 q 0 236 0 183 q 19 436 0 350 q 68 506 36 506 q 105 482 86 506 q 124 426 124 458 l 119 393 q 101 163 101 243 q 139 39 101 44 q 179 77 157 39 q 222 163 201 115 q 253 246 242 211 q 258 251 256 251 q 265 244 265 251 l 264 238 q 100 -3 219 14 m 139 624 l 136 625 q 89 653 114 650 q 76 651 86 653 q 52 642 65 649 q 26 625 39 636 q 20 627 24 625 q 14 633 17 629 q 11 640 11 636 q 42 677 17 663 q 89 693 68 692 q 128 679 103 693 q 163 646 158 663 q 153 631 163 638 q 139 624 144 624 z "},"":{"ha":253,"x_min":0,"x_max":265,"o":"m 100 -3 q 40 35 61 -3 q 9 128 18 72 q 0 236 0 183 q 19 436 0 350 q 68 506 36 506 q 105 482 86 506 q 124 426 124 458 l 119 393 q 101 163 101 243 q 139 39 101 44 q 179 77 157 39 q 222 163 201 115 q 253 246 242 211 q 258 251 256 251 q 265 244 265 251 l 264 238 q 100 -3 219 14 m 49 622 q 28 635 36 622 q 21 660 21 649 q 44 694 28 694 q 68 683 57 694 q 79 656 79 671 q 65 629 79 642 q 49 622 57 622 m 124 622 q 103 636 111 622 q 94 661 94 650 q 118 694 101 694 q 142 683 131 694 q 153 656 153 671 q 139 629 153 642 q 124 622 131 622 z "},"":{"ha":585,"x_min":-1,"x_max":610,"o":"m 433 0 q 319 139 319 0 q 328 221 319 182 q 340 358 340 267 q 310 461 340 460 q 256 419 278 461 q 219 314 235 376 q 191 190 203 251 q 169 85 179 128 q 138 21 158 42 q 100 0 118 0 q 40 33 63 0 q 8 119 18 65 q -1 232 -1 172 q 14 401 -1 319 q 51 517 29 483 q 78 528 65 528 q 119 503 101 528 q 136 453 136 479 q 128 424 136 438 q 103 306 111 376 q 96 172 96 236 q 101 78 96 117 q 117 39 107 39 q 136 122 125 44 q 192 365 158 272 q 335 507 243 507 q 424 453 400 504 q 447 328 447 403 q 432 151 447 239 q 422 58 422 92 q 432 31 422 33 q 497 73 468 36 q 545 155 525 110 q 575 228 565 200 l 582 246 q 599 260 590 260 q 610 247 607 260 q 544 93 599 188 q 433 0 503 21 m 296 625 q 333 639 313 625 q 361 653 353 653 q 369 649 365 653 q 374 640 372 644 q 381 635 376 635 q 389 640 385 635 q 393 654 393 644 l 393 660 q 354 692 381 692 q 325 682 340 692 q 289 667 303 667 q 269 685 275 667 q 261 692 267 692 q 250 675 250 692 q 265 639 253 653 q 296 625 278 625 z "},"":{"ha":374,"x_min":-21,"x_max":392,"o":"m 132 0 q 49 46 85 0 q 13 165 13 92 q 17 208 13 186 q -21 350 -21 289 q 22 468 -21 426 q 118 510 65 510 l 143 507 q 238 434 197 497 q 278 256 278 371 q 272 208 278 232 q 269 179 269 190 q 271 170 269 174 q 275 167 272 167 q 279 167 278 167 q 320 191 297 167 q 363 239 343 215 l 376 257 q 383 260 379 260 q 392 253 392 260 q 353 192 388 228 q 267 136 318 156 q 244 104 258 132 q 200 35 228 71 q 132 0 172 0 m 138 31 q 165 47 149 31 q 195 86 182 64 q 213 126 208 108 l 199 126 q 145 132 174 126 q 101 146 117 138 l 99 119 q 109 60 99 89 q 138 31 119 32 m 200 144 q 226 165 219 144 q 242 281 242 229 q 206 423 242 375 q 119 475 169 471 q 49 439 82 475 q 17 340 17 403 q 29 268 17 308 q 39 301 35 283 q 56 349 44 328 q 93 376 67 371 q 132 314 132 365 q 119 250 132 281 q 110 194 110 215 q 128 159 110 168 q 200 144 146 150 m 218 618 q 208 622 213 618 q 198 630 204 626 q 177 637 192 633 q 144 642 163 640 q 105 650 122 646 q 88 665 88 654 q 97 688 89 678 q 115 699 104 697 l 124 699 q 190 681 153 699 q 228 633 228 663 l 226 624 q 218 618 222 618 z "},"":{"ha":374,"x_min":-21,"x_max":392,"o":"m 132 0 q 49 46 85 0 q 13 165 13 92 q 17 208 13 186 q -21 350 -21 289 q 22 468 -21 426 q 118 510 65 510 l 143 507 q 238 434 197 497 q 278 256 278 371 q 272 208 278 232 q 269 179 269 190 q 271 170 269 174 q 275 167 272 167 q 279 167 278 167 q 320 191 297 167 q 363 239 343 215 l 376 257 q 383 260 379 260 q 392 253 392 260 q 353 192 388 228 q 267 136 318 156 q 244 104 258 132 q 200 35 228 71 q 132 0 172 0 m 138 31 q 165 47 149 31 q 195 86 182 64 q 213 126 208 108 l 199 126 q 145 132 174 126 q 101 146 117 138 l 99 119 q 109 60 99 89 q 138 31 119 32 m 200 144 q 226 165 219 144 q 242 281 242 229 q 206 423 242 375 q 119 475 169 471 q 49 439 82 475 q 17 340 17 403 q 29 268 17 308 q 39 301 35 283 q 56 349 44 328 q 93 376 67 371 q 132 314 132 365 q 119 250 132 281 q 110 194 110 215 q 128 159 110 168 q 200 144 146 150 m 93 618 q 103 622 99 618 q 113 630 107 626 q 134 637 119 633 q 167 642 149 640 q 206 650 189 646 q 224 665 224 654 q 188 699 221 697 q 122 681 160 699 q 83 633 83 663 l 85 624 q 93 618 89 618 z "},"":{"ha":374,"x_min":-21,"x_max":392,"o":"m 132 0 q 49 46 85 0 q 13 165 13 92 q 17 208 13 186 q -21 350 -21 289 q 22 468 -21 426 q 118 510 65 510 l 143 507 q 238 434 197 497 q 278 256 278 371 q 272 208 278 232 q 269 179 269 190 q 271 170 269 174 q 275 167 272 167 q 279 167 278 167 q 320 191 297 167 q 363 239 343 215 l 376 257 q 383 260 379 260 q 392 253 392 260 q 353 192 388 228 q 267 136 318 156 q 244 104 258 132 q 200 35 228 71 q 132 0 172 0 m 138 31 q 165 47 149 31 q 195 86 182 64 q 213 126 208 108 l 199 126 q 145 132 174 126 q 101 146 117 138 l 99 119 q 109 60 99 89 q 138 31 119 32 m 200 144 q 226 165 219 144 q 242 281 242 229 q 206 423 242 375 q 119 475 169 471 q 49 439 82 475 q 17 340 17 403 q 29 268 17 308 q 39 301 35 283 q 56 349 44 328 q 93 376 67 371 q 132 314 132 365 q 119 250 132 281 q 110 194 110 215 q 128 159 110 168 q 200 144 146 150 m 197 624 l 194 625 q 147 653 172 650 q 134 651 144 653 q 110 642 124 649 q 85 625 97 636 q 78 627 82 625 q 72 633 75 629 q 69 640 69 636 q 101 677 75 663 q 147 693 126 692 q 186 679 161 693 q 221 646 217 663 q 212 631 221 638 q 197 624 203 624 z "},"":{"ha":374,"x_min":-21,"x_max":392,"o":"m 132 0 q 49 46 85 0 q 13 165 13 92 q 17 208 13 186 q -21 350 -21 289 q 22 468 -21 426 q 118 510 65 510 l 143 507 q 238 434 197 497 q 278 256 278 371 q 272 208 278 232 q 269 179 269 190 q 271 170 269 174 q 275 167 272 167 q 279 167 278 167 q 320 191 297 167 q 363 239 343 215 l 376 257 q 383 260 379 260 q 392 253 392 260 q 353 192 388 228 q 267 136 318 156 q 244 104 258 132 q 200 35 228 71 q 132 0 172 0 m 138 31 q 165 47 149 31 q 195 86 182 64 q 213 126 208 108 l 199 126 q 145 132 174 126 q 101 146 117 138 l 99 119 q 109 60 99 89 q 138 31 119 32 m 200 144 q 226 165 219 144 q 242 281 242 229 q 206 423 242 375 q 119 475 169 471 q 49 439 82 475 q 17 340 17 403 q 29 268 17 308 q 39 301 35 283 q 56 349 44 328 q 93 376 67 371 q 132 314 132 365 q 119 250 132 281 q 110 194 110 215 q 128 159 110 168 q 200 144 146 150 m 107 625 q 144 639 124 625 q 172 653 164 653 q 180 649 176 653 q 185 640 183 644 q 192 635 188 635 q 200 640 196 635 q 204 654 204 644 l 204 660 q 165 692 192 692 q 136 682 151 692 q 100 667 114 667 q 81 685 86 667 q 72 692 78 692 q 61 675 61 692 q 76 639 64 653 q 107 625 89 625 z "},"":{"ha":374,"x_min":-21,"x_max":392,"o":"m 132 0 q 49 46 85 0 q 13 165 13 92 q 17 208 13 186 q -21 350 -21 289 q 22 468 -21 426 q 118 510 65 510 l 143 507 q 238 434 197 497 q 278 256 278 371 q 272 208 278 232 q 269 179 269 190 q 271 170 269 174 q 275 167 272 167 q 279 167 278 167 q 320 191 297 167 q 363 239 343 215 l 376 257 q 383 260 379 260 q 392 253 392 260 q 353 192 388 228 q 267 136 318 156 q 244 104 258 132 q 200 35 228 71 q 132 0 172 0 m 138 31 q 165 47 149 31 q 195 86 182 64 q 213 126 208 108 l 199 126 q 145 132 174 126 q 101 146 117 138 l 99 119 q 109 60 99 89 q 138 31 119 32 m 200 144 q 226 165 219 144 q 242 281 242 229 q 206 423 242 375 q 119 475 169 471 q 49 439 82 475 q 17 340 17 403 q 29 268 17 308 q 39 301 35 283 q 56 349 44 328 q 93 376 67 371 q 132 314 132 365 q 119 250 132 281 q 110 194 110 215 q 128 159 110 168 q 200 144 146 150 m 92 622 q 72 635 79 622 q 64 660 64 649 q 88 694 71 694 q 111 683 100 694 q 122 656 122 671 q 108 629 122 642 q 92 622 100 622 m 167 622 q 146 636 154 622 q 138 661 138 650 q 161 694 144 694 q 185 683 174 694 q 196 656 196 671 q 182 629 196 642 q 167 622 174 622 z "},"":{"ha":285,"x_min":42,"x_max":243,"o":"m 74 403 l 58 403 q 42 417 44 403 q 135 461 44 461 q 243 442 233 461 q 211 424 243 432 q 142 412 179 417 q 85 404 106 407 l 74 403 m 133 301 q 115 338 119 301 q 119 360 115 347 q 128 383 122 372 q 143 393 135 393 q 161 381 151 393 q 171 354 171 369 q 158 319 171 336 q 133 301 146 301 m 128 481 q 113 489 117 481 q 108 515 110 497 q 117 552 108 538 q 136 567 126 567 q 158 513 156 567 q 148 490 158 499 q 128 481 138 481 z "},"":{"ha":374,"x_min":-21,"x_max":392,"o":"m 138 31 q 165 47 149 31 q 195 86 182 64 q 213 126 208 108 q 139 133 171 126 l 115 47 q 138 31 125 33 m 110 185 q 203 426 139 283 q 119 475 168 471 q 49 439 82 475 q 17 340 17 403 q 29 268 17 308 q 39 301 35 283 q 93 376 53 368 q 132 314 132 367 q 119 250 132 281 q 110 194 110 215 l 110 185 m 200 144 q 226 165 219 144 q 242 281 242 229 q 228 381 242 340 q 144 153 179 269 q 192 146 163 147 l 200 144 m 90 -43 q 74 -24 79 -43 l 78 18 q 13 165 13 65 q 17 208 13 186 q -21 350 -21 289 q 22 468 -21 426 q 118 510 65 510 l 143 507 q 218 460 185 500 q 228 481 224 471 q 235 497 232 490 q 244 503 238 503 q 256 496 249 503 q 263 479 263 489 q 244 422 263 468 q 278 256 278 360 q 272 208 278 232 q 269 179 269 190 q 270 170 269 174 q 279 167 271 167 q 363 239 303 167 q 383 260 375 260 q 392 253 392 260 q 353 192 388 228 q 267 136 318 156 q 244 104 258 132 q 132 0 193 0 q 106 4 118 0 l 99 -25 q 90 -43 99 -42 z "},"":{"ha":457,"x_min":-1,"x_max":476,"o":"m 319 3 l 313 3 q 224 122 240 3 q 131 24 185 24 q 46 89 83 24 q -1 283 -1 169 q 32 467 -1 376 q 71 508 46 508 q 115 486 94 508 q 136 438 136 464 q 122 289 131 363 q 106 108 110 199 q 125 56 108 56 q 150 72 136 56 q 176 109 164 88 q 193 147 188 131 q 211 212 206 168 q 219 310 217 256 q 236 458 224 392 q 286 532 249 525 q 330 507 313 528 q 347 463 347 486 q 328 289 344 389 q 310 108 310 179 q 316 57 310 72 q 338 39 322 42 q 389 89 365 39 q 432 190 413 139 q 465 260 457 260 q 476 247 476 260 q 415 90 458 168 q 319 3 372 13 m 251 618 q 242 622 246 618 q 231 630 238 626 q 210 637 225 633 q 178 642 196 640 q 138 650 156 646 q 121 665 121 654 q 130 688 122 678 q 149 699 138 697 l 157 699 q 224 681 186 699 q 261 633 261 663 l 260 624 q 251 618 256 618 z "},"":{"ha":457,"x_min":-1,"x_max":476,"o":"m 319 3 l 313 3 q 224 122 240 3 q 131 24 185 24 q 46 89 83 24 q -1 283 -1 169 q 32 467 -1 376 q 71 508 46 508 q 115 486 94 508 q 136 438 136 464 q 122 289 131 363 q 106 108 110 199 q 125 56 108 56 q 150 72 136 56 q 176 109 164 88 q 193 147 188 131 q 211 212 206 168 q 219 310 217 256 q 236 458 224 392 q 286 532 249 525 q 330 507 313 528 q 347 463 347 486 q 328 289 344 389 q 310 108 310 179 q 316 57 310 72 q 338 39 322 42 q 389 89 365 39 q 432 190 413 139 q 465 260 457 260 q 476 247 476 260 q 415 90 458 168 q 319 3 372 13 m 142 618 q 151 622 147 618 q 162 630 156 626 q 183 637 168 633 q 215 642 197 640 q 255 650 238 646 q 272 665 272 654 q 236 699 269 697 q 170 681 208 699 q 132 633 132 663 l 133 624 q 142 618 138 618 z "},"":{"ha":457,"x_min":-1,"x_max":476,"o":"m 319 3 l 313 3 q 224 122 240 3 q 131 24 185 24 q 46 89 83 24 q -1 283 -1 169 q 32 467 -1 376 q 71 508 46 508 q 115 486 94 508 q 136 438 136 464 q 122 289 131 363 q 106 108 110 199 q 125 56 108 56 q 150 72 136 56 q 176 109 164 88 q 193 147 188 131 q 211 212 206 168 q 219 310 217 256 q 236 458 224 392 q 286 532 249 525 q 330 507 313 528 q 347 463 347 486 q 328 289 344 389 q 310 108 310 179 q 316 57 310 72 q 338 39 322 42 q 389 89 365 39 q 432 190 413 139 q 465 260 457 260 q 476 247 476 260 q 415 90 458 168 q 319 3 372 13 m 250 624 l 247 625 q 200 653 225 650 q 187 651 197 653 q 163 642 176 649 q 138 625 150 636 q 131 627 135 625 q 125 633 128 629 q 122 640 122 636 q 153 677 128 663 q 200 693 179 692 q 239 679 214 693 q 274 646 269 663 q 265 631 274 638 q 250 624 256 624 z "},"":{"ha":457,"x_min":-1,"x_max":476,"o":"m 319 3 l 313 3 q 224 122 240 3 q 131 24 185 24 q 46 89 83 24 q -1 283 -1 169 q 32 467 -1 376 q 71 508 46 508 q 115 486 94 508 q 136 438 136 464 q 122 289 131 363 q 106 108 110 199 q 125 56 108 56 q 150 72 136 56 q 176 109 164 88 q 193 147 188 131 q 211 212 206 168 q 219 310 217 256 q 236 458 224 392 q 286 532 249 525 q 330 507 313 528 q 347 463 347 486 q 328 289 344 389 q 310 108 310 179 q 316 57 310 72 q 338 39 322 42 q 389 89 365 39 q 432 190 413 139 q 465 260 457 260 q 476 247 476 260 q 415 90 458 168 q 319 3 372 13 m 149 622 q 128 635 136 622 q 121 660 121 649 q 144 694 128 694 q 168 683 157 694 q 179 656 179 671 q 165 629 179 642 q 149 622 157 622 m 224 622 q 203 636 211 622 q 194 661 194 650 q 218 694 201 694 q 242 683 231 694 q 253 656 253 671 q 239 629 253 642 q 224 622 231 622 z "},"":{"ha":379,"x_min":-17,"x_max":328,"o":"m 79 -440 q 11 -414 39 -440 q -17 -344 -17 -387 q 42 -211 -17 -287 q 98 -165 65 -183 q 160 -135 131 -147 q 209 -112 190 -124 q 228 -86 228 -101 l 228 -78 q 239 144 239 33 q 238 213 239 179 q 191 69 224 117 q 121 22 158 22 q 53 65 86 22 q 3 190 21 107 l 1 213 q -3 311 -3 257 q 33 435 -3 422 q 69 402 61 426 q 78 349 78 378 l 76 300 l 79 258 q 122 53 85 53 q 164 97 142 53 q 203 208 186 142 q 219 336 219 274 q 207 454 219 396 l 207 464 q 235 504 207 504 q 277 483 256 504 q 299 433 299 461 l 299 428 q 328 71 328 246 q 287 -231 328 -118 q 188 -392 246 -343 q 79 -440 131 -440 m 75 -410 q 97 -401 85 -410 q 183 -280 157 -350 q 218 -133 210 -210 q 89 -215 143 -165 q 31 -344 35 -264 q 43 -387 31 -365 q 75 -410 56 -410 m 64 618 q 74 622 69 618 q 84 630 78 626 q 105 637 90 633 q 138 642 119 640 q 177 650 160 646 q 194 665 194 654 q 158 699 192 697 q 92 681 131 699 q 54 633 54 663 l 56 624 q 64 618 60 618 z "},"":{"ha":379,"x_min":-17,"x_max":328,"o":"m 79 -440 q 11 -414 39 -440 q -17 -344 -17 -387 q 42 -211 -17 -287 q 98 -165 65 -183 q 160 -135 131 -147 q 209 -112 190 -124 q 228 -86 228 -101 l 228 -78 q 239 144 239 33 q 238 213 239 179 q 191 69 224 117 q 121 22 158 22 q 53 65 86 22 q 3 190 21 107 l 1 213 q -3 311 -3 257 q 33 435 -3 422 q 69 402 61 426 q 78 349 78 378 l 76 300 l 79 258 q 122 53 85 53 q 164 97 142 53 q 203 208 186 142 q 219 336 219 274 q 207 454 219 396 l 207 464 q 235 504 207 504 q 277 483 256 504 q 299 433 299 461 l 299 428 q 328 71 328 246 q 287 -231 328 -118 q 188 -392 246 -343 q 79 -440 131 -440 m 75 -410 q 97 -401 85 -410 q 183 -280 157 -350 q 218 -133 210 -210 q 89 -215 143 -165 q 31 -344 35 -264 q 43 -387 31 -365 q 75 -410 56 -410 m 76 622 q 56 635 64 622 q 49 660 49 649 q 72 694 56 694 q 96 683 85 694 q 107 656 107 671 q 93 629 107 642 q 76 622 85 622 m 151 622 q 131 636 139 622 q 122 661 122 650 q 146 694 129 694 q 169 683 158 694 q 181 656 181 671 q 167 629 181 642 q 151 622 158 622 z "},"":{"ha":232,"x_min":42,"x_max":190,"o":"m 94 724 q 58 740 74 724 q 42 796 42 757 l 42 811 q 69 886 42 847 q 125 925 96 925 q 171 871 153 925 q 190 818 190 844 q 159 752 190 781 q 94 724 128 724 m 94 767 q 136 783 117 767 q 156 818 156 799 q 147 845 156 832 q 124 861 138 858 q 87 837 101 861 q 71 790 72 813 q 94 767 71 767 z "},"":{"ha":349,"x_min":42,"x_max":307,"o":"m 69 422 l 63 424 l 54 422 q 42 435 44 422 q 74 462 42 450 q 152 481 107 474 q 236 488 197 488 q 307 467 307 488 q 253 441 297 447 q 160 432 210 435 q 69 422 99 431 z "},"":{"ha":415,"x_min":42,"x_max":374,"o":"m 76 426 q 42 440 42 426 q 57 465 42 458 q 228 481 142 481 l 304 481 q 327 476 313 478 q 357 471 342 475 q 374 456 372 467 q 281 433 351 433 l 200 436 l 176 435 l 176 433 q 126 430 151 433 q 76 426 100 426 z "},"":{"ha":146,"x_min":42,"x_max":104,"o":"m 69 618 q 42 676 53 618 q 46 707 43 688 q 56 743 49 726 q 72 760 63 760 q 93 741 82 760 q 104 697 104 722 q 93 643 104 668 q 69 618 82 618 z "},"":{"ha":146,"x_min":42,"x_max":104,"o":"m 74 618 q 53 636 64 618 q 42 679 42 654 q 53 735 42 710 q 76 760 64 760 q 104 700 93 760 q 101 669 104 689 q 91 634 97 650 q 74 618 85 618 z "},"":{"ha":146,"x_min":42,"x_max":104,"o":"m 74 1 q 53 19 64 1 q 42 63 42 38 q 53 118 42 93 q 76 143 64 143 q 104 83 93 143 q 101 53 104 72 q 91 17 97 33 q 74 1 85 1 z "},"":{"ha":232,"x_min":42,"x_max":190,"o":"m 156 618 q 128 676 139 618 q 132 707 129 688 q 142 743 135 726 q 158 760 149 760 q 179 741 168 760 q 190 697 190 722 q 179 643 190 668 q 156 618 168 618 m 69 618 q 42 676 53 618 q 46 707 43 688 q 56 743 49 726 q 72 760 63 760 q 93 741 82 760 q 104 697 104 722 q 93 643 104 668 q 69 618 82 618 z "},"":{"ha":232,"x_min":42,"x_max":190,"o":"m 74 618 q 53 636 64 618 q 42 679 42 654 q 53 735 42 710 q 76 760 64 760 q 104 700 93 760 q 101 669 104 689 q 91 634 97 650 q 74 618 85 618 m 160 618 q 139 636 150 618 q 128 679 128 654 q 139 735 128 710 q 163 760 150 760 q 190 700 179 760 q 187 669 190 689 q 177 634 183 650 q 160 618 171 618 z "},"":{"ha":232,"x_min":42,"x_max":190,"o":"m 74 1 q 53 19 64 1 q 42 63 42 38 q 53 118 42 93 q 76 143 64 143 q 104 83 93 143 q 101 53 104 72 q 91 17 97 33 q 74 1 85 1 m 160 1 q 139 19 150 1 q 128 63 128 38 q 139 118 128 93 q 163 143 150 143 q 190 83 179 143 q 187 53 190 72 q 177 17 183 33 q 160 1 171 1 z "},"":{"ha":200,"x_min":42,"x_max":158,"o":"m 100 151 q 58 185 75 151 q 42 243 42 219 q 90 326 50 326 q 137 298 115 326 q 158 232 158 269 q 140 178 158 204 q 100 151 121 151 z "},"":{"ha":315,"x_min":42,"x_max":274,"o":"m 71 14 q 50 31 58 14 q 42 60 42 47 q 67 101 49 101 q 89 87 78 101 q 100 54 100 72 q 91 27 100 40 q 71 14 82 14 m 156 14 q 135 31 143 14 q 126 60 126 47 q 151 101 133 101 q 174 87 163 101 q 185 54 185 72 q 176 27 185 40 q 156 14 167 14 m 244 14 q 224 31 232 14 q 215 60 215 47 q 240 101 222 101 q 263 87 251 101 q 274 54 274 72 q 265 27 274 40 q 244 14 256 14 z "},"":{"ha":175,"x_min":42,"x_max":133,"o":"m 133 379 l 100 400 q 58 426 75 413 q 42 456 42 439 q 86 517 42 478 q 100 528 94 528 q 111 520 106 528 q 117 507 117 513 q 101 478 117 496 q 85 450 85 460 q 103 426 85 442 q 133 379 129 404 z "},"":{"ha":171,"x_min":42,"x_max":129,"o":"m 65 376 q 56 384 60 376 q 51 397 51 392 q 67 431 51 411 q 83 460 83 451 q 68 478 83 467 q 42 511 43 492 q 51 528 42 526 q 61 524 56 528 q 75 514 67 519 q 129 454 121 483 q 119 427 128 439 q 97 405 110 415 q 74 382 83 394 q 65 376 69 376 z "},"":{"ha":506,"x_min":42,"x_max":464,"o":"m 81 65 q 55 79 68 65 q 42 104 42 93 q 60 135 42 118 q 176 293 131 204 l 181 303 q 167 313 181 308 q 144 331 154 317 q 135 361 135 346 q 178 393 135 390 q 199 396 190 393 q 208 410 208 399 q 200 426 206 426 l 172 421 q 142 433 153 421 q 132 458 132 444 q 143 479 132 469 q 176 489 154 489 l 183 489 q 196 497 196 489 q 178 560 196 526 q 151 667 151 618 q 172 749 151 711 q 238 800 192 788 q 274 806 257 806 q 367 757 331 806 q 403 653 403 708 q 399 619 403 638 q 388 588 394 600 q 375 575 382 575 q 363 586 368 575 q 357 608 357 597 q 360 622 357 617 q 367 669 367 649 q 346 728 367 710 q 297 747 325 747 q 225 717 260 747 q 190 639 190 688 q 213 561 190 613 q 233 503 225 532 q 249 489 238 489 l 265 492 q 289 490 276 490 q 313 486 301 490 q 326 467 324 482 q 311 451 326 456 l 308 451 q 288 447 301 449 q 253 429 253 443 l 253 422 q 261 400 253 404 q 281 395 269 396 q 307 390 293 394 q 326 357 321 385 q 319 344 326 347 q 300 339 311 340 q 265 326 282 336 q 247 281 249 315 q 228 226 242 249 q 201 187 215 203 q 188 160 188 171 q 308 132 188 136 q 378 147 347 132 q 443 194 408 163 q 453 200 447 199 q 460 195 457 200 q 464 185 464 190 q 447 154 464 174 l 438 142 q 304 79 376 79 q 233 88 267 79 q 169 97 200 97 q 106 78 136 97 q 81 65 92 65 z "},"":{"ha":501,"x_min":42,"x_max":460,"o":"m 351 68 l 344 68 q 242 100 286 68 q 168 181 197 132 q 128 282 139 229 q 114 299 126 299 q 99 294 106 297 q 86 292 93 292 q 57 306 69 292 q 44 336 44 321 q 76 363 44 360 l 96 361 q 113 369 107 361 l 115 422 q 107 447 115 447 q 97 445 103 447 q 81 443 92 443 q 61 447 72 443 q 42 481 42 465 q 93 517 42 510 q 122 528 117 517 q 128 554 126 539 q 242 814 156 725 q 322 850 278 850 q 410 806 360 850 q 460 713 460 763 q 453 685 460 697 q 434 707 443 685 q 410 749 425 729 q 364 769 396 769 q 331 764 350 769 q 240 664 269 728 q 196 533 210 600 q 233 518 196 518 l 283 519 q 328 494 328 519 q 240 474 328 474 q 192 459 200 474 q 183 397 183 444 l 183 383 q 194 365 183 368 q 224 361 204 361 q 256 358 244 361 q 274 347 268 356 q 281 332 281 338 q 263 315 281 318 q 228 313 246 313 q 200 310 211 313 q 189 292 189 307 q 195 259 189 278 q 208 223 201 240 q 215 197 214 206 q 276 135 233 160 q 365 111 319 111 q 384 113 376 111 q 398 115 392 114 q 414 118 404 117 q 432 101 432 118 q 351 68 432 68 z "},"":{"ha":306,"x_min":42,"x_max":264,"o":"m 96 399 l 71 399 q 50 403 57 399 q 42 425 43 408 q 68 458 42 451 q 150 465 94 465 q 264 438 249 465 q 214 409 254 415 q 133 401 174 403 l 96 399 z "},"":{"ha":331,"x_min":42,"x_max":289,"o":"m 90 379 q 42 429 42 379 q 64 456 42 450 q 104 478 81 456 q 152 529 128 501 q 197 577 176 557 q 231 597 218 597 q 240 592 239 597 q 243 578 242 588 l 244 568 q 226 524 244 543 q 183 488 208 506 q 142 449 158 471 q 224 433 168 447 q 289 406 289 418 q 274 390 286 393 q 194 386 261 388 l 178 388 q 135 383 158 388 q 90 379 111 379 m 86 281 q 60 308 61 281 q 94 345 60 338 q 167 353 129 353 q 206 357 190 354 l 215 356 l 243 357 q 274 338 271 357 q 149 293 267 313 l 100 282 l 86 281 z "},"":{"ha":350,"x_min":42,"x_max":308,"o":"m 61 350 q 54 354 54 350 l 54 357 q 95 398 54 375 q 176 440 136 421 q 219 463 206 454 q 163 485 199 475 q 99 510 128 496 q 69 551 69 525 l 71 564 q 94 575 79 575 q 179 539 119 575 q 228 515 210 521 q 288 468 288 493 q 258 428 288 449 q 193 393 229 408 q 131 369 157 378 q 108 363 122 368 q 81 354 93 358 q 61 350 68 350 m 68 264 q 47 268 51 264 q 42 282 42 272 q 68 317 42 304 q 129 336 94 329 q 193 346 164 343 l 217 349 q 242 346 228 346 l 253 346 q 308 329 299 346 q 283 303 306 311 q 233 292 260 296 q 192 283 207 289 q 146 275 178 283 q 68 264 100 264 z "},"":{"ha":872,"x_min":0,"x_max":894,"o":"m 129 486 q 198 579 167 524 q 229 686 229 635 l 226 711 q 158 610 179 672 q 129 486 136 547 m 628 -81 q 669 -45 646 -81 q 708 33 692 -10 q 726 103 725 76 q 648 26 681 78 q 613 -60 615 -25 l 613 -64 q 621 -79 613 -75 l 628 -81 m 578 453 q 639 535 611 486 q 667 631 667 585 l 664 653 q 603 563 622 618 q 578 453 585 507 m 185 -111 q 231 -72 206 -111 q 275 16 257 -32 q 296 94 293 64 q 209 8 246 65 q 168 -89 172 -49 l 168 -93 q 178 -110 168 -106 l 185 -111 m 463 206 q 447 188 456 194 q 417 163 431 171 q 396 148 404 157 q 385 118 388 139 q 331 -44 374 36 q 204 -149 288 -124 l 188 -151 q 147 -137 167 -151 q 126 -90 126 -122 q 156 -8 126 -58 q 256 94 204 63 q 306 150 300 124 q 310 213 310 175 q 303 292 310 251 q 282 362 297 333 q 240 390 267 390 q 172 349 214 390 q 115 234 133 296 q 97 107 97 172 q 103 32 97 61 l 106 10 q 99 -6 106 -1 q 83 -11 93 -11 q 57 -3 71 -11 q 36 15 43 4 q 0 233 0 121 q 23 433 0 333 q 81 624 46 533 q 82 628 82 625 q 113 681 96 653 q 154 731 131 710 q 207 753 178 753 q 238 746 222 753 q 260 724 254 739 q 267 693 267 710 q 230 560 267 624 q 129 463 193 496 q 112 410 115 440 q 108 350 108 381 q 107 319 108 333 q 167 390 126 364 q 250 415 207 415 q 313 398 283 415 q 358 343 342 381 q 393 183 390 268 l 393 182 q 425 203 413 189 q 446 231 438 217 q 461 251 454 243 q 463 253 463 251 q 483 406 465 329 q 535 575 503 494 q 536 579 535 576 q 563 627 547 601 q 600 672 579 653 q 647 690 621 690 q 675 685 660 690 q 694 665 689 678 q 700 638 700 651 q 667 518 700 575 q 578 432 635 461 q 563 385 565 411 q 558 331 560 358 l 558 304 q 610 366 575 343 q 686 389 646 389 q 741 374 715 389 q 782 325 767 358 q 813 183 810 257 l 813 181 q 842 200 831 188 q 861 225 853 213 q 873 242 867 235 q 888 250 879 250 q 894 242 894 250 q 894 238 894 240 q 892 233 893 235 q 861 185 876 200 q 833 164 846 171 q 816 150 824 158 q 806 124 808 142 q 756 -20 794 51 q 644 -114 718 -92 l 631 -115 q 593 -103 611 -115 q 575 -61 575 -90 q 601 11 575 -33 q 692 104 644 75 q 735 153 731 129 q 739 208 739 175 q 726 314 739 261 q 676 367 713 367 q 617 329 653 367 q 565 228 581 283 q 549 114 549 172 q 554 47 549 74 l 557 28 q 551 14 557 18 q 538 10 546 10 q 513 16 525 10 q 494 32 501 22 q 463 206 465 117 z "},"":{"ha":947,"x_min":-3,"x_max":969,"o":"m 342 525 q 392 692 386 614 q 342 525 350 613 m 615 81 q 662 140 639 81 q 699 274 685 200 q 714 390 714 347 q 696 438 714 438 q 678 435 688 438 q 613 317 635 403 q 590 161 590 231 q 610 82 590 96 l 615 81 m 808 497 l 817 518 q 853 647 847 579 q 808 497 815 576 m 129 64 q 181 130 156 64 q 222 278 206 196 q 238 407 238 360 q 218 460 238 460 q 199 456 208 460 q 126 326 151 421 q 101 153 101 231 q 124 65 101 81 l 129 64 m 354 0 q 258 71 285 7 q 231 192 232 135 q 125 24 193 24 q 28 82 58 28 q -3 213 -3 136 q 19 342 -3 276 q 81 450 40 407 q 179 493 122 493 q 239 479 207 493 q 253 542 246 506 q 273 637 260 589 q 310 718 286 685 q 379 751 335 751 q 429 688 429 749 q 336 461 429 574 q 326 425 326 451 q 321 336 325 379 q 315 222 315 279 q 363 28 321 28 q 435 101 394 28 q 497 250 476 174 q 572 429 508 363 q 660 468 608 468 q 714 456 686 468 q 726 513 721 479 q 745 598 733 554 q 779 672 757 642 q 842 703 801 703 q 886 644 886 697 q 803 439 886 542 q 793 407 793 431 q 789 326 792 365 q 783 222 783 275 q 828 47 789 47 q 892 113 854 47 q 949 247 929 179 q 960 257 953 257 q 969 244 969 257 q 944 160 968 213 q 885 65 919 108 q 818 22 851 22 q 731 86 756 29 q 707 196 707 143 q 611 43 674 43 q 499 168 519 50 l 493 153 q 428 48 467 96 q 354 0 390 0 z "},"":{"ha":629,"x_min":-8,"x_max":644,"o":"m 136 -211 q 166 -169 153 -211 q 179 -49 179 -128 q 151 199 179 49 q 99 253 140 240 q 83 19 83 115 q 100 -154 83 -97 q 136 -211 117 -211 m 451 -168 q 477 -131 465 -168 q 489 -21 489 -93 q 465 201 489 67 q 417 250 456 239 q 403 40 403 126 q 418 -117 403 -65 q 451 -168 433 -168 m 325 228 q 301 218 314 221 q 244 210 274 210 q 189 215 217 210 q 225 -64 225 42 q 202 -206 225 -161 q 147 -251 179 -251 q 78 -205 114 -251 q 17 -72 42 -158 q -8 135 -8 14 q 13 347 -8 231 q 85 594 35 463 q 108 638 90 615 q 146 661 126 661 q 176 635 163 661 q 144 532 163 596 q 113 407 126 468 q 99 319 99 346 l 100 311 q 158 256 117 276 q 249 235 200 235 q 328 253 289 235 q 340 335 332 292 q 404 558 360 439 q 426 597 410 576 q 460 618 442 618 q 488 594 475 618 q 458 501 475 558 q 430 389 442 444 q 418 311 418 333 l 418 303 q 471 252 433 271 q 553 233 508 233 q 631 253 593 233 q 638 256 633 256 q 642 254 640 256 q 644 250 644 253 q 642 243 644 246 q 599 218 624 225 q 549 211 575 211 q 499 217 524 211 q 531 -36 531 60 q 510 -164 531 -124 q 461 -204 490 -204 q 398 -162 431 -204 q 343 -43 365 -121 q 321 143 321 35 q 325 228 321 183 z "},"":{"ha":936,"x_min":-1,"x_max":853,"o":"m 126 -454 q 63 -419 89 -454 q 38 -337 38 -383 q 104 -165 38 -253 q 261 -50 171 -76 q 297 185 297 -47 l 296 296 q 225 60 264 121 q 132 0 186 0 q 32 66 65 0 q -1 218 -1 132 q 43 400 -1 314 q 208 508 93 496 q 285 465 264 508 q 290 460 288 461 q 297 489 296 460 q 321 558 297 558 q 383 451 353 558 q 413 200 413 343 q 388 -68 413 68 q 313 -305 364 -204 q 185 -437 263 -406 q 126 -454 154 -454 m 133 39 q 193 97 168 46 q 263 340 232 176 l 274 399 q 240 431 274 428 q 133 322 165 415 q 101 142 101 229 q 109 68 101 97 q 132 39 117 39 l 133 39 m 114 -408 q 175 -365 138 -408 q 240 -240 219 -310 q 271 -99 260 -171 q 275 -78 274 -89 q 90 -339 126 -139 l 90 -356 q 113 -408 90 -408 l 114 -408 m 590 -411 q 533 -378 557 -411 q 510 -304 510 -346 q 570 -145 510 -226 q 714 -40 631 -64 q 747 174 747 -37 l 746 276 q 681 61 717 117 q 597 6 646 6 q 504 66 535 6 q 474 204 474 126 q 515 372 474 293 q 642 468 556 451 l 665 471 q 714 458 699 471 q 736 431 729 444 l 740 426 q 747 453 746 426 q 768 517 747 517 q 826 418 799 517 q 853 189 853 319 q 801 -169 853 8 q 644 -396 750 -346 q 590 -411 617 -411 m 597 40 q 653 94 629 47 q 715 317 688 167 l 725 369 q 694 400 725 397 q 597 301 626 386 q 568 135 568 215 q 575 67 568 94 q 596 40 582 40 l 597 40 m 581 -369 q 635 -329 600 -369 q 696 -214 676 -278 q 726 -67 717 -142 q 557 -306 590 -122 l 557 -321 q 579 -369 557 -369 l 581 -369 z "},"":{"ha":522,"x_min":-6,"x_max":539,"o":"m 118 486 q 188 567 167 515 q 218 674 208 619 q 219 679 219 676 l 221 690 q 217 713 221 701 q 208 724 214 724 q 196 713 203 724 q 133 549 146 639 q 118 486 126 518 m 382 454 q 443 526 425 481 q 471 621 461 572 l 471 625 l 472 635 q 469 654 472 644 q 461 664 467 664 q 450 654 457 664 q 394 510 407 589 q 382 454 389 482 m 282 190 q 272 156 278 174 q 226 51 256 99 q 153 0 197 4 l 151 0 q 64 43 99 0 q 12 157 29 86 q -6 311 -6 228 q 34 561 -6 438 q 150 744 74 685 q 207 763 185 763 q 242 744 232 763 q 253 697 253 725 q 227 583 253 644 q 168 494 201 521 q 140 475 154 482 q 117 458 126 468 q 107 425 107 449 q 97 244 97 343 q 112 92 97 147 q 165 31 126 36 q 217 65 196 31 q 251 144 238 99 q 274 226 265 189 q 275 233 275 231 q 272 300 272 265 q 307 520 272 411 q 410 683 342 629 q 460 699 440 699 q 491 682 482 699 q 500 640 500 665 q 477 540 500 594 q 426 461 454 485 q 401 444 414 451 q 381 430 389 439 q 372 400 372 421 q 364 240 364 328 q 376 106 364 154 q 424 51 389 57 q 469 81 450 51 q 499 151 488 111 q 519 225 511 192 q 525 249 522 238 q 532 253 528 253 q 537 251 535 253 q 539 246 539 249 l 539 243 q 518 162 533 213 q 477 69 503 111 q 413 25 451 28 l 411 25 q 333 63 364 25 q 288 164 303 101 q 282 190 285 176 z "},"":{"ha":671,"x_min":-21,"x_max":688,"o":"m 138 31 q 165 47 149 31 q 195 86 182 64 q 213 126 208 108 l 199 126 q 145 132 174 126 q 101 146 117 138 l 99 119 q 109 62 99 89 q 136 31 119 35 l 138 31 m 514 153 q 538 172 531 153 q 551 275 551 229 q 519 406 551 363 q 442 451 486 449 q 378 419 407 451 q 349 331 349 388 q 360 265 349 300 q 368 294 364 278 q 383 338 374 318 q 417 363 393 358 q 444 341 436 357 q 451 306 451 325 q 440 249 451 275 q 432 199 432 217 q 449 165 432 174 q 506 154 467 157 l 514 153 m 458 50 q 483 65 468 50 q 509 101 497 81 q 525 136 521 121 l 513 136 q 464 141 489 136 q 425 154 439 146 l 422 131 q 431 78 422 103 q 456 50 440 54 l 458 50 m 200 144 q 226 165 219 144 q 242 281 242 229 q 206 423 242 375 q 119 475 169 471 q 49 439 82 475 q 17 340 17 403 q 29 268 17 308 q 39 301 35 283 q 56 349 44 328 q 93 376 67 371 q 123 353 114 371 q 132 314 132 335 q 119 250 132 281 q 110 194 110 215 q 128 158 110 168 q 192 146 147 149 l 200 144 m 344 183 q 267 136 313 153 q 244 104 258 132 q 200 35 228 71 q 132 0 172 0 q 49 46 85 0 q 13 165 13 92 q 17 208 13 186 q -21 350 -21 289 q 22 468 -21 426 q 118 510 65 510 l 143 507 q 238 434 197 497 q 278 256 278 371 q 272 208 278 232 q 269 179 269 190 q 270 172 269 174 q 273 169 271 169 q 278 168 275 168 q 279 167 278 167 q 321 192 297 167 q 344 218 333 204 q 314 339 314 288 q 353 446 314 408 q 440 483 392 483 l 463 481 q 548 415 511 471 q 585 253 585 358 q 579 210 585 232 q 576 185 576 194 q 577 177 576 179 q 579 174 578 175 q 583 174 581 174 l 586 174 q 622 195 601 174 q 660 239 643 217 q 674 254 668 249 q 679 257 675 257 q 685 256 682 257 q 688 250 688 254 q 652 196 683 228 q 574 146 621 164 q 554 117 567 142 q 514 54 539 86 q 453 22 489 22 q 377 64 410 22 q 344 171 344 106 l 344 183 z "},"":{"ha":629,"x_min":-61,"x_max":653,"o":"m -7 -96 q 11 -87 0 -96 l 19 -82 q 122 -7 75 -49 q 188 100 169 35 q 189 103 188 101 q 192 113 192 108 q 189 117 192 115 q 179 119 186 119 q 85 91 131 114 q 8 30 39 68 q -24 -57 -24 -8 q -19 -85 -22 -75 q -7 -96 -17 -96 m 326 -50 q 342 -43 332 -50 q 349 -39 344 -40 q 438 26 396 -10 q 494 119 479 63 l 494 122 q 497 129 497 126 q 495 134 497 132 q 486 136 493 136 q 367 88 422 128 q 313 -17 313 47 q 315 -41 313 -32 q 326 -50 318 -50 m 364 228 l 360 222 q 328 181 351 206 q 249 128 304 157 q 243 126 246 126 q 237 124 239 125 q 235 119 235 122 q 238 103 236 110 q 240 69 240 90 q 181 -95 240 -21 q 53 -169 121 -169 q -26 -137 3 -169 q -57 -50 -56 -104 q -22 58 -57 13 q 67 131 14 104 q 179 160 121 157 q 142 195 165 185 q 94 211 119 206 q 75 215 85 213 q -25 280 11 225 q -61 400 -61 335 q -28 510 -61 458 q 38 588 -6 550 q 125 626 82 626 q 190 582 163 626 q 218 469 218 528 q 185 375 218 415 q 176 393 176 382 q 183 424 176 407 q 189 458 189 442 l 189 467 q 185 485 189 478 q 168 492 182 492 q 102 466 144 492 q 26 403 60 440 q -8 333 -8 367 q 21 290 -8 307 q 90 257 50 272 q 165 222 129 242 q 221 169 201 201 q 229 167 222 167 q 289 193 249 167 q 339 242 321 214 q 311 274 324 254 q 279 378 279 321 q 308 472 279 429 q 365 540 328 507 q 440 574 403 574 q 496 535 472 574 q 519 438 519 489 q 492 357 519 392 q 485 372 485 363 q 490 399 485 385 q 496 428 496 414 q 494 435 494 432 q 492 451 494 446 q 478 457 490 457 q 420 435 457 457 q 354 381 383 413 q 325 321 325 350 q 350 283 325 297 q 410 254 375 268 q 474 224 443 242 q 522 179 506 206 q 529 176 524 176 q 582 199 547 176 q 632 253 617 222 q 635 256 633 256 q 639 257 638 257 q 649 252 644 257 q 653 242 653 247 q 650 235 653 238 q 643 224 647 229 q 615 189 635 210 q 547 143 594 168 q 542 142 544 142 q 537 140 539 140 q 535 135 535 139 l 538 121 q 539 93 539 111 q 488 -50 539 14 q 378 -114 436 -114 q 309 -86 335 -114 q 283 -11 283 -58 q 313 83 283 43 q 390 145 343 122 q 486 171 436 168 q 456 201 475 192 q 413 214 436 210 q 397 218 406 217 q 364 228 379 221 z "},"":{"ha":485,"x_min":-57,"x_max":510,"o":"m 149 -3 l 135 -1 q 51 55 81 4 q 8 178 21 106 q -4 317 -4 250 l -3 353 q 11 481 0 425 q 3 490 11 488 q -42 478 -26 490 l -49 475 q -57 499 -57 478 q -53 523 -57 510 q -17 536 -49 536 q -1 535 -14 535 q 31 561 26 535 q 61 638 38 586 q 172 776 124 776 q 214 710 197 776 q 178 625 211 686 q 146 549 149 565 q 147 539 146 543 q 210 531 149 535 l 226 531 q 272 550 271 531 q 299 620 278 574 q 349 708 321 667 q 403 749 378 749 q 440 692 428 749 l 442 688 q 409 608 439 667 q 379 539 379 550 q 425 519 379 519 q 461 542 450 519 l 463 533 l 461 526 q 444 490 458 496 q 414 485 431 485 l 407 485 q 376 482 392 485 q 358 464 360 479 q 349 415 356 449 q 321 183 321 276 q 369 56 321 63 q 417 85 397 56 q 472 224 444 125 q 493 256 483 256 q 510 236 510 256 q 503 215 506 226 q 456 97 485 156 q 381 31 426 38 l 368 32 q 263 146 296 40 q 229 68 249 107 q 149 -3 197 4 m 136 25 q 247 207 200 25 l 249 213 q 240 325 240 271 l 242 358 q 254 476 244 421 q 247 485 254 485 q 144 488 196 485 l 140 486 q 123 467 125 482 q 114 414 121 451 q 83 163 83 275 q 136 25 83 32 z "},"":{"ha":578,"x_min":-21,"x_max":601,"o":"m 138 31 q 165 47 149 31 q 195 86 182 64 q 213 126 208 108 l 199 126 q 145 132 174 126 q 101 146 117 138 l 99 119 q 109 62 99 89 q 136 31 119 35 l 138 31 m 356 297 q 456 365 422 313 q 489 450 489 418 q 485 472 489 463 q 474 481 482 481 q 422 450 446 481 q 382 378 399 419 q 356 297 365 336 m 200 144 q 226 165 219 144 q 242 281 242 229 q 206 423 242 375 q 119 475 169 471 q 49 439 82 475 q 17 340 17 403 q 29 268 17 308 q 39 301 35 283 q 56 349 44 328 q 93 376 67 371 q 123 353 114 371 q 132 314 132 335 q 119 250 132 281 q 110 194 110 215 q 128 158 110 168 q 192 146 147 149 l 200 144 m 261 132 q 244 104 254 125 q 200 35 228 71 q 132 0 172 0 q 49 46 85 0 q 13 165 13 92 q 17 208 13 186 q -21 350 -21 289 q 22 468 -21 426 q 118 510 65 510 l 143 507 q 238 435 197 497 q 264 372 254 407 l 275 403 q 379 508 304 479 q 440 518 404 518 q 504 504 474 518 q 535 433 535 475 q 487 340 535 396 q 350 267 439 285 q 338 153 338 196 q 357 66 338 93 q 404 39 376 39 q 499 94 449 39 q 576 243 549 150 q 590 260 582 260 q 598 256 594 260 q 601 246 601 253 q 601 240 601 243 q 599 233 600 236 q 563 134 589 186 q 499 44 538 82 q 413 6 460 6 q 328 42 374 6 q 261 132 283 75 z "},"":{"ha":325,"x_min":-68,"x_max":349,"o":"m 46 -154 q -33 -122 -4 -154 q -64 -35 -62 -89 q -28 74 -64 28 q 60 146 7 119 q 172 175 114 172 q 135 210 158 200 q 88 226 113 221 l 68 231 q -32 295 4 240 q -68 415 -68 350 q 31 603 -68 515 q 118 642 75 642 q 183 597 156 642 q 211 485 211 543 q 178 390 211 431 q 169 408 169 397 q 176 440 169 422 q 182 474 182 457 l 182 482 q 178 500 182 493 q 161 507 175 507 q 95 481 138 507 q 19 419 53 456 q -15 349 -15 382 q 14 305 -15 322 q 83 272 43 288 q 158 237 122 257 q 214 185 194 217 q 222 182 215 182 q 274 199 242 182 q 325 251 307 217 q 333 256 328 256 q 344 250 339 256 q 349 238 349 244 q 345 228 349 233 q 338 218 342 224 q 242 143 311 169 l 236 142 q 228 135 228 140 q 231 115 229 125 q 233 85 233 106 q 174 -80 233 -6 q 46 -154 114 -154 m -14 -81 q 13 -67 -8 -81 q 115 8 68 -33 q 181 115 163 50 q 183 120 181 117 q 185 128 185 124 q 172 135 185 135 q 78 106 124 129 q 1 45 32 83 q -31 -42 -31 7 q -26 -70 -29 -60 q -14 -81 -24 -81 m 89 664 q 42 681 68 665 q 11 717 15 696 q 14 725 11 721 q 19 731 17 729 q 25 732 22 732 l 26 732 q 52 715 39 721 q 76 707 65 710 q 89 704 86 704 q 136 732 115 707 l 139 733 q 153 726 144 733 q 163 713 163 719 q 128 678 158 696 q 89 664 103 664 z "},"":{"ha":406,"x_min":-33,"x_max":426,"o":"m 40 -439 q -33 -337 -33 -439 q -24 -257 -33 -297 q 174 32 22 -71 q 193 74 193 50 q 161 143 193 108 q 92 178 129 178 q 57 166 74 178 q 24 154 40 154 q -1 170 10 154 q -12 208 -12 186 q -1 249 -12 229 q 31 274 10 268 q 91 305 51 279 q 166 363 131 331 q 201 418 201 396 q 191 435 201 431 q 157 443 181 439 q 121 431 140 443 q 83 405 101 419 q 49 380 65 390 q 18 369 32 369 q -6 384 4 369 q -17 418 -17 399 q 31 485 -17 461 q 129 510 78 510 q 205 492 172 510 q 238 435 238 474 q 99 236 238 360 q 190 185 164 222 q 226 115 217 149 q 238 90 232 100 q 250 81 243 81 q 264 88 256 81 q 407 254 361 147 q 417 260 411 260 q 424 258 421 260 q 426 251 426 256 q 364 141 411 199 q 271 56 317 83 q 253 31 253 49 l 256 0 q 261 -67 261 -26 q 216 -279 261 -176 q 71 -435 171 -382 q 40 -439 54 -439 m 10 -399 q 101 -319 60 -389 q 170 -165 143 -249 q 200 -32 197 -82 l 203 -12 q 194 3 203 3 q 151 -25 179 3 q 70 -124 96 -82 q 20 -225 44 -165 q -4 -339 -4 -285 q 10 -399 -4 -372 m 119 610 q 72 626 99 611 q 42 663 46 642 q 44 671 42 667 q 50 676 47 675 q 56 678 53 678 l 57 678 q 83 661 69 667 q 106 653 96 656 q 119 650 117 650 q 167 678 146 653 l 169 679 q 184 672 175 679 q 193 658 193 665 q 158 624 189 642 q 119 610 133 610 z "},"":{"ha":636,"x_min":42,"x_max":572,"o":"m 300 1 q 184 27 244 1 q 83 99 124 53 q 42 204 42 144 q 92 322 42 271 q 211 372 143 372 q 300 344 254 372 q 315 325 315 338 q 306 315 315 315 q 293 318 300 315 l 290 319 q 211 332 251 332 q 125 296 156 332 q 83 199 83 239 q 131 121 83 147 q 239 94 178 94 q 382 138 315 94 q 430 197 413 160 q 447 275 447 235 q 392 388 447 350 l 333 429 q 254 482 303 454 q 140 587 178 522 q 103 724 103 651 q 178 910 103 825 q 353 994 253 994 q 495 935 433 994 q 557 786 557 876 q 449 619 557 668 l 444 618 q 421 614 433 614 q 408 617 413 614 q 401 629 403 619 q 406 638 401 633 q 414 642 411 642 q 485 694 458 665 q 515 771 511 722 q 478 863 515 821 q 389 904 442 904 l 367 904 q 240 837 299 904 q 181 692 181 769 q 311 531 181 579 q 512 393 451 469 q 572 244 572 317 q 490 74 572 146 q 300 1 408 1 m 358 1096 q 311 1113 338 1097 q 281 1149 285 1128 q 283 1157 281 1153 q 289 1163 286 1161 q 294 1164 292 1164 l 296 1164 q 322 1147 308 1153 q 345 1139 335 1142 q 358 1136 356 1136 q 406 1164 385 1139 l 408 1165 q 423 1158 414 1165 q 432 1144 432 1151 q 397 1110 428 1128 q 358 1096 372 1096 z "},"":{"ha":1043,"x_min":42,"x_max":1010,"o":"m 288 46 q 367 102 332 46 q 428 242 403 158 q 467 417 453 326 q 461 440 465 428 l 454 439 q 444 457 444 439 q 453 490 444 472 q 478 507 461 507 q 482 601 482 557 q 478 681 482 646 q 406 879 454 818 q 304 940 357 940 q 186 865 239 940 q 133 665 133 789 q 142 574 133 622 q 226 679 183 679 q 290 629 253 679 l 292 611 q 263 521 292 572 q 233 436 240 478 q 231 422 231 429 q 256 389 231 400 q 306 378 281 378 q 328 381 318 378 q 421 442 383 397 q 432 449 428 449 q 435 447 433 447 q 436 443 436 447 q 368 369 436 410 q 306 350 338 350 q 256 360 281 350 q 224 368 236 368 q 202 341 206 368 q 199 279 199 314 q 219 130 199 208 q 288 46 239 51 m 267 -1 q 157 56 197 -1 q 99 195 117 113 q 81 353 81 278 q 90 456 81 413 q 42 669 42 563 q 99 882 42 775 q 174 968 122 938 q 282 999 225 999 q 407 947 351 999 q 506 781 482 879 q 526 643 521 711 q 617 890 550 772 q 570 878 594 890 q 529 865 546 865 q 508 888 508 865 q 536 922 508 910 q 750 974 639 974 q 914 939 833 974 q 924 922 924 932 q 907 901 924 901 q 797 911 867 911 q 722 894 736 911 q 664 724 694 808 l 631 625 q 621 592 629 614 q 604 532 604 546 q 618 515 604 517 q 715 514 681 515 q 803 488 803 510 q 718 467 799 467 l 699 467 q 619 463 654 467 q 585 438 585 458 q 564 222 564 308 q 646 57 564 57 q 764 110 689 57 q 919 271 851 179 q 994 353 981 353 q 1010 328 1010 353 q 1001 306 1010 315 q 901 161 936 208 q 663 4 782 4 q 546 58 589 4 q 474 244 492 125 q 411 101 449 167 q 267 -1 356 7 z "}}}
